<svg width="512" height="512" viewBox="0 0 512 512" fill="none" xmlns="http://www.w3.org/2000/svg">
<rect width="512" height="512" fill="#FFEC00"/>
<path d="M261.88 317.042C255.284 316.606 247.677 315.46 241.678 313.738C240.554 313.415 235.901 311.72 234.717 311.182C213.831 301.594 199.28 280.663 199.28 256.38C199.28 223.073 226.622 195.943 260.252 195.943C293.582 195.943 320.74 222.61 321.207 255.54H343.234C342.767 210.579 305.733 174.141 260.252 174.141C214.498 174.141 177.258 211.026 177.258 256.38C177.258 287.647 195.001 314.841 220.981 328.734C225.672 331.193 232.404 333.727 234.69 334.421C242.096 336.606 251.185 338.059 259.274 338.667C262.022 338.871 271.615 338.979 274.411 338.99H426.097V317.246H274.667C272.652 317.246 263.851 317.171 261.88 317.042ZM274.667 282.901C273.065 282.901 264.687 282.847 263.14 282.718C260.518 282.497 256.717 282.11 254.274 281.556C251.516 280.824 248.926 279.856 247.759 279.221C239.577 274.835 234.001 266.259 234.001 256.38C234.001 242.008 245.744 230.353 260.252 230.353C274.455 230.353 286.003 241.55 286.465 255.54H307.628C307.183 229.982 286.161 209.384 260.252 209.384C234.055 209.384 212.821 230.423 212.821 256.38C212.821 274.685 223.408 290.493 238.827 298.236C241.2 299.614 245.663 301.056 246.933 301.384C251.288 302.519 257.135 303.294 261.88 303.638C263.634 303.784 272.223 303.848 274.037 303.859V303.891H426.092V282.901H274.667ZM163.685 338.909H141.511V195.992H109.109V174.012H163.685V338.909ZM84.7637 206.974V228.109H109.109V338.909H130.414V206.974H84.7637Z" fill="#D91920"/>
<path d="M386.909 175.554C378.923 175.554 372.299 181.866 372.299 189.786C372.299 197.707 378.923 204.271 386.909 204.271C395.14 204.271 401.509 197.707 401.509 189.786C401.509 181.866 395.14 175.554 386.909 175.554ZM386.909 201.936C380.313 201.936 374.628 196.797 374.628 189.786C374.628 183.13 380.313 177.863 386.909 177.863C393.5 177.863 399.158 183.13 399.158 189.786C399.158 196.797 393.5 201.936 386.909 201.936Z" fill="#D91920"/>
<path d="M392.471 193.689C392.471 192.091 392.232 190.606 390.386 190.02C392.699 189.223 392.927 187.722 392.927 186.813C392.927 183.138 389.561 182.67 388.176 182.67H381.807V196.902H384.462V191.064H386.553C389.561 191.064 389.81 192.436 389.81 193.689C389.81 196.116 389.81 196.574 390.386 196.902H393.046C392.471 196.326 392.699 195.879 392.471 193.689ZM387.595 188.987H384.462V184.505H387.144C389.001 184.505 390.261 185.086 390.261 186.813C390.261 187.722 389.81 188.987 387.595 188.987Z" fill="#D91920"/>
</svg>
