<svg width="512" height="512" viewBox="0 0 512 512" fill="none" xmlns="http://www.w3.org/2000/svg">
<g clip-path="url(#clip0_326_2231)">
<path d="M512 0H0V512H512V0Z" fill="#FFD500"/>
<path d="M307.912 205.404L290.256 250.868C299.658 256.983 307.353 265.385 312.621 275.286C317.889 285.188 320.556 296.264 320.373 307.478C319.884 319.971 315.762 332.05 308.51 342.234C301.259 352.418 291.194 360.266 279.55 364.816C267.905 369.366 255.185 370.419 242.951 367.848C230.716 365.277 219.497 359.192 210.668 350.34C201.84 341.488 195.786 330.252 193.248 318.01C190.709 305.769 191.798 293.052 196.379 281.42C200.96 269.787 208.835 259.744 219.039 252.52C229.243 245.296 241.333 241.206 253.826 240.751L270.382 194.583C254.561 192.004 238.368 192.901 222.928 197.211C207.488 201.522 193.172 209.143 180.975 219.545C168.778 229.947 158.993 242.88 152.299 257.446C145.604 272.011 142.162 287.86 142.211 303.89V419.815H192.401V401.438C211.532 413.577 233.767 419.921 256.423 419.707C282.092 420.06 307.116 411.664 327.378 395.901C347.639 380.138 361.931 357.947 367.901 332.98C373.871 308.012 371.163 281.757 360.224 258.533C349.285 235.31 330.765 216.502 307.713 205.205L307.912 205.404Z" fill="black"/>
<path d="M142 199.89C156.316 185.282 173.371 173.638 192.19 165.625V93H142V199.89Z" fill="black"/>
</g>
<defs>
<clipPath id="clip0_326_2231">
<rect width="512" height="512" fill="white"/>
</clipPath>
</defs>
</svg>
