<svg width="512" height="512" viewBox="0 0 512 512" fill="none" xmlns="http://www.w3.org/2000/svg">
<g clip-path="url(#clip0_317_477)">
<path d="M512 0H0V512H512V0Z" fill="#585FFF"/>
<path d="M259.842 197.962C250.55 192.418 239.962 189.444 229.154 189.341C218.345 189.236 207.702 192.007 198.306 197.37C188.911 202.734 181.099 210.498 175.665 219.874C170.23 229.25 167.367 239.902 167.367 250.75C167.367 261.595 170.23 272.249 175.665 281.625C181.099 291.001 188.911 298.766 198.306 304.129C207.702 309.492 218.345 312.262 229.154 312.158C239.962 312.054 250.55 309.079 259.842 303.536V311.418H289.801V189.94H259.842V197.962ZM228.562 282.103C222.383 282.096 216.346 280.251 211.212 276.802C206.078 273.352 202.079 268.454 199.719 262.724C197.36 256.994 196.746 250.691 197.956 244.611C199.165 238.531 202.144 232.949 206.515 228.566C210.886 224.185 216.454 221.202 222.514 219.996C228.574 218.789 234.854 219.411 240.562 221.786C246.269 224.16 251.147 228.178 254.578 233.334C258.01 238.489 259.842 244.55 259.842 250.75C259.833 259.068 256.533 267.043 250.667 272.922C244.803 278.801 236.851 282.103 228.562 282.103Z" fill="white"/>
<path d="M103.294 150.209H44.1143V311.416H74.0742V262.59H103.909C111.288 262.583 118.595 261.111 125.407 258.265C132.219 255.417 138.403 251.248 143.607 245.997C148.809 240.746 152.927 234.515 155.726 227.663C158.524 220.81 159.946 213.471 159.91 206.066C159.736 175.041 134.196 150.209 103.294 150.209ZM103.471 232.541H74.0742V180.242H103.909C107.371 180.247 110.796 180.943 113.987 182.29C117.177 183.637 120.069 185.607 122.492 188.087C124.916 190.567 126.824 193.506 128.105 196.733C129.386 199.959 130.013 203.41 129.951 206.883C129.678 221.192 117.731 232.517 103.471 232.517V232.541Z" fill="white"/>
<path d="M449.604 312.451C459.701 312.451 467.885 304.238 467.885 294.107C467.885 283.975 459.701 275.762 449.604 275.762C439.507 275.762 431.322 283.975 431.322 294.107C431.322 304.238 439.507 312.451 449.604 312.451Z" fill="white"/>
<path d="M406.81 189.514L371.647 280.779L335.426 189.942H302.657L351.086 311.421H359.83L359.672 311.839C357.392 317.68 353.416 322.698 348.26 326.246C343.104 329.791 337.006 331.702 330.755 331.728H327.22V361.79H331.252C343.543 361.738 355.535 357.981 365.673 351.008C375.812 344.034 383.629 334.166 388.112 322.68L439.416 189.514H406.81Z" fill="white"/>
</g>
<defs>
<clipPath id="clip0_317_477">
<rect width="512" height="512" fill="white"/>
</clipPath>
</defs>
</svg>
