<svg width="512" height="512" viewBox="0 0 512 512" fill="none" xmlns="http://www.w3.org/2000/svg">
<g clip-path="url(#clip0_323_1788)">
<mask id="mask0_323_1788" style="mask-type:luminance" maskUnits="userSpaceOnUse" x="0" y="0" width="512" height="512">
<path d="M512 0H0V512H512V0Z" fill="white"/>
</mask>
<g mask="url(#mask0_323_1788)">
<path d="M512 0H0V512H512V0Z" fill="white"/>
<path d="M108.262 169.129L159.812 80.0272L367.409 80L418.679 169.986L418.742 349.995L367.418 439.928L159.884 440L107.739 350.005L108.262 169.129Z" fill="#4D4D4D"/>
<path d="M107.748 349.978H201.306L149.918 259.296L191.71 169.147L108.271 169.129L56 260.027" fill="#EDEDED"/>
<path d="M229.678 349.978H298.065L358.535 261.716L299.12 169.996H218.676L170.219 258.628L229.678 349.978Z" fill="#E0E0E0"/>
<path d="M56 260.02L107.748 350.006H201.315L150.487 260.327L56 260.02Z" fill="#ACACAC"/>
<path d="M171.202 260.035L229.687 350.004H298.065L357.587 260.071L171.202 260.035Z" fill="#9E9E9E"/>
<path d="M194.363 260.08L176.713 265.228L159.776 260.071L228.922 140.047L246.219 170.012" fill="#00B8E3"/>
<path d="M246.146 349.977L228.938 380.069L183.007 330.514L159.739 260.098V260.062H194.352" fill="#33C6E9"/>
<path d="M159.784 260.073H159.748V260.099L142.46 290.101L125.1 260.235L142.704 229.655L194.361 140.066H228.938" fill="#008AAA"/>
<path d="M350.04 349.979H454.763L454.7 169.988H350.04V349.979Z" fill="#D4D4D4"/>
<path d="M350.04 260.316V349.996H454.574V260.316H350.04Z" fill="#919191"/>
<path d="M228.957 380.107H194.353L142.46 290.093L159.749 260.109L228.957 380.107Z" fill="#00B8E3"/>
<path d="M367.31 260.073L298.147 380.079C291.789 370.723 280.895 350.005 280.895 350.005L332.778 260.055L367.31 260.073Z" fill="#008AAA"/>
<path d="M332.688 380.077L298.147 380.068L367.319 260.062L384.599 230.097L401.932 260.261M367.311 260.071H332.787L280.886 170.004L298.066 140.074L340.075 193.557L367.311 260.071Z" fill="#00B8E3"/>
<path d="M384.597 230.082V230.108L367.309 260.074L298.074 140.086L332.714 140.104L384.597 230.082Z" fill="#33C6E9"/>
</g>
</g>
<defs>
<clipPath id="clip0_323_1788">
<rect width="512" height="512" fill="white"/>
</clipPath>
</defs>
</svg>
