<svg width="512" height="512" viewBox="0 0 512 512" fill="none" xmlns="http://www.w3.org/2000/svg">
<g clip-path="url(#clip0_328_2449)">
<path d="M512 0H0V512H512V0Z" fill="white"/>
<g clip-path="url(#clip1_328_2449)">
<path fill-rule="evenodd" clip-rule="evenodd" d="M216.982 261.6C222.464 261.6 279.158 261.523 295.097 261.523C300.579 261.523 306.06 253.72 301.95 248.442L262.891 202.287C259.698 199.04 253.921 199.039 250.558 202.287L211.5 248.61C207.389 253.72 211.5 261.6 216.982 261.6Z" fill="#121AB4"/>
<path d="M229.066 97.0874C224.61 98.8516 199.663 111.789 174.121 126.197C96.3068 170.009 92.7428 177.066 94.2278 272.04C95.1188 341.727 96.6038 346.725 120.958 368.778C135.511 382.009 181.843 406.709 198.178 409.65C215.404 412.884 239.164 404.651 253.42 390.537C270.348 373.776 274.804 358.486 274.804 317.027C274.804 268.903 274.804 266.656 274.804 218.533H237.679C237.679 264.696 236.787 339.668 236.193 342.755C236.158 357.939 224.582 372.894 207.979 372.894C193.129 372.894 149.767 349.371 138.778 335.257C130.759 324.966 130.759 324.379 129.868 272.922C128.68 217.348 131.056 201.471 142.045 189.415C145.609 185.299 169.963 170.009 196.099 155.307C256.686 120.904 253.717 120.904 314.899 155.601C363.607 183.24 374.298 191.767 378.754 207.645C382.614 221.759 382.614 306.442 378.456 320.555C374.001 336.728 365.685 344.667 335.688 362.015L308.959 377.305L308.067 397.299C307.474 408.179 308.067 417 309.256 417C315.493 417 379.348 378.481 391.228 367.601C415.285 345.549 417.957 333.788 416.77 259.69C415.878 197.942 415.878 197.942 407.266 182.652C402.811 174.419 395.386 164.128 390.931 160.011C382.02 151.484 295.594 102.086 280.743 97.0874C268.864 92.9709 240.946 92.9709 229.066 97.0874Z" fill="#121AB4"/>
</g>
</g>
<defs>
<clipPath id="clip0_328_2449">
<rect width="512" height="512" fill="white"/>
</clipPath>
<clipPath id="clip1_328_2449">
<rect width="323" height="323" fill="white" transform="translate(94 94)"/>
</clipPath>
</defs>
</svg>
