<svg width="512" height="512" viewBox="0 0 512 512" fill="none" xmlns="http://www.w3.org/2000/svg">
<g clip-path="url(#clip0_323_1975)">
<path d="M512 0H0V512H512V0Z" fill="white"/>
<g clip-path="url(#clip1_323_1975)">
<path d="M189.036 440.934C177.061 440.934 167.393 431.238 167.393 419.263V93.2884C167.393 81.3129 177.088 71.6172 189.036 71.6172C200.984 71.6172 210.708 81.3129 210.708 93.2884V419.263C210.708 431.238 201.012 440.934 189.036 440.934Z" fill="#CEDC21"/>
<path d="M189.036 440.932C180.934 440.932 173.161 436.373 169.453 428.545C164.316 417.75 168.931 404.814 179.753 399.677L310.384 337.712L176.209 238.86C166.596 231.774 164.536 218.205 171.622 208.564C178.709 198.923 192.277 196.891 201.918 203.977L365.262 324.309C371.388 328.841 374.711 336.257 373.969 343.838C373.228 351.418 368.586 358.065 361.692 361.334L198.348 438.845C195.354 440.246 192.195 440.932 189.064 440.932" fill="#51B13E"/>
<path d="M189.064 312.802C182.417 312.802 175.852 309.753 171.595 303.985C164.508 294.372 166.541 280.803 176.182 273.689L310.356 174.837L179.752 112.844C168.931 107.708 164.344 94.7988 169.452 83.977C174.589 73.1551 187.498 68.5682 198.32 73.677L361.664 151.188C368.558 154.456 373.2 161.103 373.942 168.684C374.683 176.265 371.36 183.681 365.235 188.213L201.891 308.544C198.018 311.401 193.513 312.774 189.064 312.774V312.802Z" fill="#CEDC21"/>
<path d="M210.68 210.488V302.09L272.837 256.303L210.68 210.488Z" fill="#1E7A44"/>
<path d="M210.68 172.062H167.365V277.644H210.68V172.062Z" fill="white"/>
<path d="M210.68 93.2884C210.68 81.3129 200.984 71.6172 189.009 71.6172C177.034 71.6172 167.365 81.3129 167.365 93.2884V365.895H210.68V93.2884Z" fill="#CEDC21"/>
</g>
</g>
<defs>
<clipPath id="clip0_323_1975">
<rect width="512" height="512" fill="white"/>
</clipPath>
<clipPath id="clip1_323_1975">
<rect width="412" height="412" fill="white" transform="translate(50 50)"/>
</clipPath>
</defs>
</svg>
