<svg width="512" height="512" viewBox="0 0 512 512" fill="none" xmlns="http://www.w3.org/2000/svg">
<g clip-path="url(#clip0_329_2483)">
<path d="M512 0H0V512H512V0Z" fill="white"/>
<g clip-path="url(#clip1_329_2483)">
<path d="M384 65H129C93.6499 65 65 93.6499 65 129V384C65 419.35 93.6499 448 129 448H384C419.35 448 448 419.35 448 384V129C448 93.6499 419.35 65 384 65ZM378.378 358.161C378.378 369.328 369.328 378.378 358.161 378.378H154.839C143.672 378.378 134.622 369.328 134.622 358.161V154.839C134.622 143.672 143.672 134.622 154.839 134.622H358.161C369.328 134.622 378.378 143.672 378.378 154.839V358.161ZM215.874 308.486C209.443 308.486 204.283 303.287 204.283 296.856V215.682C204.283 209.251 209.443 204.014 215.874 204.014H297.164C303.557 204.014 308.755 209.212 308.755 215.682V296.818C308.755 303.249 303.557 308.447 297.164 308.447H215.874V308.486Z" fill="black"/>
</g>
</g>
<defs>
<clipPath id="clip0_329_2483">
<rect width="512" height="512" fill="white"/>
</clipPath>
<clipPath id="clip1_329_2483">
<rect width="383" height="383" fill="white" transform="translate(65 65)"/>
</clipPath>
</defs>
</svg>
