<svg width="512" height="512" viewBox="0 0 512 512" fill="none" xmlns="http://www.w3.org/2000/svg">
<g clip-path="url(#clip0_323_1902)">
<mask id="mask0_323_1902" style="mask-type:luminance" maskUnits="userSpaceOnUse" x="0" y="0" width="512" height="512">
<path d="M512 0H0V512H512V0Z" fill="white"/>
</mask>
<g mask="url(#mask0_323_1902)">
<path d="M512 0H0V512H512V0Z" fill="#1CC6BB"/>
<path fill-rule="evenodd" clip-rule="evenodd" d="M274.776 148.485C266.331 132.351 243.595 131.357 233.776 146.7L194.92 207.387L134.651 238.935C121.612 245.744 111.567 257.155 106.468 270.953C101.368 284.752 101.577 299.952 107.056 313.605C112.533 327.258 122.888 338.387 136.111 344.835C149.333 351.282 164.48 352.586 178.609 348.493L198.416 386.332C202.064 393.301 208.332 398.536 215.839 400.884C223.346 403.232 231.479 402.503 238.448 398.855C245.417 395.207 250.652 388.939 253 381.432C255.348 373.924 254.619 365.792 250.971 358.823L231.714 322.035L249.94 312.495L321.951 315.146C340.154 315.821 352.299 296.582 343.848 280.438L274.776 148.485Z" fill="white"/>
<path d="M325.193 155.395C328.788 156.304 332.277 157.587 335.603 159.224C345.777 164.249 354.085 172.385 359.321 182.452C364.765 192.85 366.481 204.195 364.937 214.901C364.391 218.663 363.442 222.356 362.108 225.915" stroke="white" stroke-width="2.66667" stroke-linecap="round" stroke-linejoin="round"/>
<path d="M387.656 253.4C403.41 227.734 405.646 194.664 390.664 166.045C375.916 137.868 348.115 120.954 318.568 118.832" stroke="white" stroke-width="2.66667" stroke-linecap="round"/>
</g>
</g>
<defs>
<clipPath id="clip0_323_1902">
<rect width="512" height="512" fill="white"/>
</clipPath>
</defs>
</svg>
