<svg width="512" height="512" viewBox="0 0 512 512" fill="none" xmlns="http://www.w3.org/2000/svg">
<g clip-path="url(#clip0_318_943)">
<path d="M512 0H0V512H512V0Z" fill="#007EB5"/>
<path d="M243.094 321.32C239.576 321.357 236.181 320.03 233.626 317.619C231.071 315.209 229.555 311.902 229.4 308.399C229.371 307.786 229.312 306.138 227.898 306.138C227.315 306.138 226.819 306.474 226.25 306.999C224.617 308.501 222.546 310.003 219.542 310.003C218.011 309.971 216.5 309.644 215.094 309.04C207.292 305.92 207.19 300.611 207.496 298.468C207.583 297.913 207.598 297.301 207.204 296.863L206.737 296.426H206.242C205.848 296.426 205.44 296.601 204.885 296.995C202.977 298.442 200.662 299.258 198.265 299.328C197 299.315 195.749 299.068 194.575 298.599C184.25 294.661 185.096 285.065 185.577 282.178C185.65 281.58 185.504 281.128 185.14 280.836L184.41 280.253L183.725 280.88C181.747 282.78 179.107 283.841 176.36 283.84C173.539 283.848 170.831 282.739 168.829 280.757C166.828 278.774 165.697 276.081 165.685 273.268C165.685 267.434 170.469 262.738 176.36 262.738C181.669 262.738 186.204 266.676 186.875 271.926L187.254 274.77L188.858 272.363C189.004 272.101 193.335 265.655 201.283 265.655C202.771 265.655 204.346 265.888 205.892 266.384C212.221 268.28 213.3 273.968 213.46 276.301C213.577 277.672 214.554 277.759 214.773 277.759C215.312 277.759 215.706 277.409 215.983 277.103C217.006 276.055 218.231 275.224 219.585 274.66C220.938 274.096 222.392 273.811 223.858 273.822C225.725 273.822 227.694 274.259 229.721 275.134C239.783 279.407 235.248 292.022 235.175 292.153C234.329 294.253 234.285 295.172 235.102 295.711L235.496 295.901H235.788C236.225 295.901 236.808 295.697 237.742 295.391C239.098 294.924 241.169 294.224 243.094 294.224C246.705 294.239 250.165 295.669 252.729 298.206C255.293 300.743 256.756 304.183 256.802 307.786C256.779 311.394 255.323 314.845 252.753 317.382C250.183 319.919 246.709 321.335 243.094 321.32ZM349.581 260.493C332.985 246.201 294.631 213.243 284.233 205.513C278.312 201.109 274.244 198.776 270.7 197.741C268.546 197.073 266.305 196.729 264.05 196.72C261.396 196.72 258.567 197.186 255.592 198.105C248.883 200.22 242.204 205.47 235.729 210.559L235.394 210.822C229.356 215.547 223.144 220.447 218.419 221.468C216.361 221.933 214.258 222.172 212.148 222.182C206.869 222.182 202.129 220.666 200.335 218.42C200.044 218.055 200.233 217.457 200.919 216.597L201.035 216.48L215.619 200.92C227.037 189.632 237.858 178.957 262.723 178.388H263.962C279.45 178.388 294.879 185.228 296.629 186.03C310.498 192.865 325.734 196.475 341.196 196.588C356.887 196.588 373.104 192.753 390.108 184.995C388.184 183.399 386.214 181.857 384.202 180.372C369.254 186.788 354.992 189.997 341.24 189.997C327.21 189.997 313.167 186.657 299.56 180.08C298.831 179.759 281.769 171.811 263.977 171.768C263.51 171.768 263.029 171.768 262.577 171.797C241.665 172.278 229.91 179.613 222.006 186.03C214.306 186.22 207.685 188.043 201.765 189.676C196.5 191.134 191.95 192.388 187.487 192.374C185.665 192.374 182.383 192.228 182.092 192.199C176.988 192.053 151.248 185.826 130.787 178.17C128.702 179.628 126.704 181.13 124.735 182.69C146.115 191.338 172.131 198.047 180.327 198.572C182.617 198.718 185.037 198.965 187.487 198.965C192.912 198.965 198.338 197.463 203.588 196.005C206.694 195.145 210.092 194.211 213.679 193.526L210.821 196.355L195.99 212.207C194.823 213.374 192.285 216.495 193.948 220.33C194.815 222.094 196.171 223.572 197.856 224.588C201.4 226.951 207.729 228.526 213.606 228.54C215.823 228.54 217.938 228.322 219.877 227.899C226.104 226.513 232.623 221.366 239.55 215.94C245.048 211.624 252.865 206.14 258.844 204.536C260.605 204.069 262.417 203.824 264.24 203.807C264.703 203.795 265.166 203.82 265.625 203.88C269.562 204.376 273.398 205.703 280.252 210.763C292.429 219.805 346.329 266.399 346.84 266.851C346.869 266.88 350.31 269.811 350.048 274.682C349.946 277.395 348.444 279.815 345.76 281.478C343.666 282.865 341.216 283.624 338.702 283.665C336.492 283.661 334.329 283.035 332.46 281.857C332.256 281.711 313.794 264.984 306.998 259.355C305.919 258.48 304.869 257.678 303.79 257.678C303.522 257.675 303.257 257.732 303.015 257.846C302.772 257.96 302.559 258.127 302.39 258.334C301.325 259.647 302.535 261.426 303.921 262.622L325.504 284.059C325.533 284.059 328.187 286.538 328.479 289.82C328.654 293.378 326.933 296.338 323.375 298.657C321.12 300.224 318.451 301.091 315.704 301.151C313.525 301.143 311.396 300.499 309.579 299.299L306.458 296.295C301.383 291.207 296.13 286.299 290.708 281.58C289.658 280.734 288.55 279.947 287.485 279.947C287.231 279.94 286.978 279.986 286.742 280.081C286.506 280.176 286.293 280.319 286.115 280.501C285.633 281.04 285.298 282.003 286.523 283.593C286.854 284.025 287.22 284.429 287.617 284.803L303.337 302.274C303.483 302.42 306.575 306.065 303.688 309.726L303.133 310.426C302.675 310.921 302.188 311.388 301.675 311.826C298.992 314.013 295.404 314.218 293.99 314.218C293.271 314.225 292.553 314.167 291.846 314.043C290.3 313.78 289.25 313.343 288.754 312.745L288.565 312.555C287.69 311.68 279.785 303.674 273.194 298.263C272.333 297.534 271.254 296.659 270.131 296.659C269.868 296.657 269.607 296.71 269.366 296.816C269.124 296.921 268.908 297.077 268.731 297.272C267.419 298.672 269.373 300.772 270.19 301.545L283.606 316.172C283.499 316.499 283.336 316.805 283.125 317.076C282.644 317.718 281.025 319.336 276.14 319.934C275.549 320.008 274.955 320.042 274.36 320.036C269.329 320.036 263.977 317.645 261.206 316.186C262.456 313.562 263.104 310.692 263.102 307.786C263.088 305.117 262.537 302.478 261.48 300.026C260.423 297.574 258.883 295.358 256.951 293.512C255.019 291.666 252.735 290.226 250.234 289.279C247.733 288.331 245.067 287.895 242.394 287.997C242.744 283.009 242.029 273.559 232.229 269.418C229.588 268.246 226.734 267.626 223.844 267.595C221.715 267.595 219.658 267.959 217.719 268.688C215.671 264.768 212.155 261.812 207.933 260.463C205.617 259.656 203.183 259.237 200.729 259.224C196.646 259.224 192.898 260.391 189.544 262.753C187.952 260.8 185.944 259.224 183.667 258.14C181.389 257.055 178.899 256.489 176.375 256.482C171.902 256.488 167.609 258.242 164.417 261.368C160.231 258.203 143.635 247.805 99.2729 237.845C95.8904 236.995 92.5258 236.076 89.1812 235.088C88.6825 237.469 88.3077 239.873 88.0583 242.293L97.8292 244.582C143.154 254.528 158.146 264.868 160.669 266.822C159.806 268.862 159.36 271.053 159.356 273.268C159.368 275.748 159.926 278.195 160.992 280.435C162.058 282.675 163.605 284.653 165.524 286.229C167.442 287.805 169.684 288.94 172.092 289.553C174.499 290.166 177.012 290.242 179.452 289.776C180.852 296.586 185.373 301.749 192.271 304.403C194.2 305.157 196.251 305.552 198.323 305.57C199.635 305.57 200.933 305.395 202.202 305.074C203.456 308.282 206.315 312.263 212.731 314.816C214.845 315.691 217.107 316.157 219.396 316.186C221.175 316.186 222.91 315.865 224.573 315.268C226.1 318.907 228.672 322.013 231.965 324.196C235.258 326.378 239.126 327.539 243.079 327.532C248.475 327.561 253.667 325.388 257.444 321.553C260.667 323.318 267.477 326.526 274.404 326.526C275.279 326.526 276.125 326.497 276.956 326.38C283.81 325.52 287.004 322.88 288.462 320.809C288.726 320.449 288.96 320.069 289.162 319.672C290.767 320.138 292.575 320.518 294.602 320.518C298.321 320.518 301.908 319.263 305.54 316.653C309.098 314.116 311.635 310.47 312.015 307.363V307.218C313.225 307.465 314.45 307.597 315.675 307.597C319.54 307.597 323.36 306.401 326.948 304.068C333.948 299.547 335.144 293.641 335.027 289.776C337.473 290.282 339.995 290.292 342.445 289.806C344.895 289.32 347.223 288.348 349.29 286.947C351.359 285.707 353.103 283.991 354.376 281.941C355.649 279.892 356.415 277.568 356.61 275.163C356.863 271.823 356.046 268.488 354.277 265.641C366.002 260.653 392.719 251.013 424.204 244.013C424.005 241.606 423.679 239.211 423.227 236.838C397.983 242.35 373.327 250.261 349.596 260.463L349.581 260.493ZM424.292 249.366C424.292 308.093 348.954 355.722 256.044 355.722C163.119 355.722 87.7812 308.093 87.7812 249.366C87.7812 190.624 163.104 143.009 256.058 143.009C348.969 143.009 424.292 190.624 424.292 249.366ZM431 249.424C431 187.124 352.629 136.33 256 136.33C159.371 136.33 81.0292 187.124 81.0292 249.438L81 256.059C81 322.165 149.469 375.686 255.985 375.686C363.129 375.686 430.985 322.165 430.985 256.045L431 249.424Z" fill="black"/>
</g>
<defs>
<clipPath id="clip0_318_943">
<rect width="512" height="512" fill="white"/>
</clipPath>
</defs>
</svg>
