<svg width="512" height="512" viewBox="0 0 512 512" fill="none" xmlns="http://www.w3.org/2000/svg">
<g clip-path="url(#clip0_327_2411)">
<mask id="mask0_327_2411" style="mask-type:luminance" maskUnits="userSpaceOnUse" x="0" y="0" width="512" height="512">
<path d="M512 0H0V512H512V0Z" fill="white"/>
</mask>
<g mask="url(#mask0_327_2411)">
<path d="M512 0H0V512H512V0Z" fill="#339933"/>
<path d="M256 96C277.218 96 297.566 104.429 312.569 119.431C327.571 134.434 336 154.782 336 176V224C348.73 224 360.939 229.057 369.941 238.059C378.943 247.061 384 259.27 384 272V368C384 380.73 378.943 392.939 369.941 401.941C360.939 410.943 348.73 416 336 416H176C163.27 416 151.061 410.943 142.059 401.941C133.057 392.939 128 380.73 128 368V272C128 259.27 133.057 247.061 142.059 238.059C151.061 229.057 163.27 224 176 224V176C176 154.782 184.429 134.434 199.431 119.431C214.434 104.429 234.782 96 256 96ZM256 288C247.926 287.998 240.151 291.046 234.231 296.536C228.311 302.026 224.686 309.55 224.08 317.6L224 320C224 326.329 225.877 332.516 229.393 337.778C232.909 343.041 237.907 347.142 243.754 349.564C249.602 351.986 256.035 352.62 262.243 351.385C268.45 350.15 274.152 347.102 278.627 342.627C283.102 338.152 286.15 332.45 287.385 326.243C288.62 320.035 287.986 313.602 285.564 307.754C283.142 301.907 279.041 296.909 273.778 293.393C268.516 289.877 262.329 288 256 288ZM256 128C243.27 128 231.061 133.057 222.059 142.059C213.057 151.061 208 163.27 208 176V224H304V176C304 163.27 298.943 151.061 289.941 142.059C280.939 133.057 268.73 128 256 128Z" fill="white"/>
</g>
</g>
<defs>
<clipPath id="clip0_327_2411">
<rect width="512" height="512" fill="white"/>
</clipPath>
</defs>
</svg>
