<svg width="512" height="512" viewBox="0 0 512 512" fill="none" xmlns="http://www.w3.org/2000/svg">
<g clip-path="url(#clip0_325_2122)">
<path d="M512 0H0V512H512V0Z" fill="#CF163E"/>
<path d="M310.259 68.2891C310.259 68.2891 351.197 134.225 364.88 157.659C365.101 158.041 365.007 158.546 364.678 158.875C364.263 159.29 363.638 159.334 363.227 158.919L292.688 85.146L310.259 68.2891Z" fill="#F15A29"/>
<path d="M189.661 308.558C201.634 283.228 217.784 260.309 237.772 240.322C245.374 232.724 253.398 225.683 261.816 219.214V271.419L189.661 308.558ZM148 356.773L261.815 298.832V431.284L287.463 464.975V285.639L303.041 277.626C310.217 274.021 316.947 269.224 322.934 263.233C352.602 233.569 353.074 185.687 324.251 155.506L265.453 94.2481C263.109 91.7428 261.878 88.4632 261.987 85.0154C262.095 81.5453 263.546 78.322 266.07 75.9437C271.275 71.0484 279.569 71.3782 284.464 76.5794L292.687 85.1504L310.258 68.2898C289.498 41.366 264.096 44.7467 249.382 58.2158C242.128 65.0441 237.962 74.2912 237.647 84.2527C237.334 94.2293 240.927 103.72 247.759 110.978L247.838 111.064L306.942 172.632C326.379 193.319 325.99 225.851 305.772 246.07C302.619 249.221 299.164 251.892 295.503 254.083L287.464 258.218V174.54C262.873 187.212 240.449 203.493 220.679 223.267C196.055 247.887 176.723 276.564 163.216 308.499C156.59 324.162 151.511 340.29 148 356.773Z" fill="white"/>
<path d="M287.465 285.641V312.714L261.816 325.73V298.833L287.465 285.641Z" fill="#BCBEC0"/>
</g>
<defs>
<clipPath id="clip0_325_2122">
<rect width="512" height="512" fill="white"/>
</clipPath>
</defs>
</svg>
