<svg width="512" height="512" viewBox="0 0 512 512" fill="none" xmlns="http://www.w3.org/2000/svg">
<g clip-path="url(#clip0_317_650)">
<path d="M512 0H0V512H512V0Z" fill="white"/>
<mask id="mask0_317_650" style="mask-type:luminance" maskUnits="userSpaceOnUse" x="146" y="119" width="220" height="220">
<path d="M366 119H146V339H366V119Z" fill="white"/>
</mask>
<g mask="url(#mask0_317_650)">
<path d="M372.667 112.334H139.334V345.667H372.667V112.334Z" fill="white"/>
</g>
<mask id="mask1_317_650" style="mask-type:luminance" maskUnits="userSpaceOnUse" x="211" y="176" width="83" height="99">
<path d="M282.665 202.33C285.332 200.33 286.665 196.33 286.665 190.33C286.665 185.663 285.332 181.663 283.332 179.663C281.332 177.663 277.999 176.33 274.665 176.33H211.332V205.663H273.332C276.665 206.33 279.999 204.33 282.665 202.33ZM279.999 241.663H211.332V274.33H278.665C282.665 274.33 285.999 272.997 289.332 270.33C291.999 267.663 293.332 263.663 293.332 258.997C293.332 254.997 291.999 250.997 289.999 246.997C287.332 243.663 283.999 241.663 279.999 241.663Z" fill="white"/>
</mask>
<g mask="url(#mask1_317_650)">
<path d="M300.666 170.326H204.666V281.66H300.666V170.326Z" fill="black"/>
</g>
<mask id="mask2_317_650" style="mask-type:luminance" maskUnits="userSpaceOnUse" x="106" y="79" width="300" height="354">
<path d="M347.333 298.333C344 304.333 338.667 309.667 332.667 313.667C326 317.667 318.667 321.667 310.667 323C302.667 325 293.333 327 284 327H161.333V134.333H300C306.667 134.333 312.667 135.667 318 139C323.333 141.667 328 145.667 332 150.333C340 159.667 344 171.667 344 183.667C344 192.333 341.333 201 337.333 209.667C332.667 217.667 325.333 224.333 316.667 228.333C328 231.667 336.667 237 342.667 245C348.667 253 352 263.667 352 277.667C352 285 350 292.333 347.333 298.333ZM392.667 79H121.333C112.667 79 106 85.6667 106 94.3333V365C106 373 112.667 378.333 121.333 378.333H161.333V432.333L211.333 378.333H392.667C400.667 378.333 406 373 406 364.333V94.3333C406 86.3333 400.667 79.6667 392.667 79Z" fill="white"/>
</mask>
<g mask="url(#mask2_317_650)">
<path d="M412.667 72.334H99.334V439.001H412.667V72.334Z" fill="black"/>
</g>
</g>
<defs>
<clipPath id="clip0_317_650">
<rect width="512" height="512" fill="white"/>
</clipPath>
</defs>
</svg>
