<svg width="512" height="512" viewBox="0 0 512 512" fill="none" xmlns="http://www.w3.org/2000/svg">
<g clip-path="url(#clip0_317_573)">
<path d="M512 0H0V512H512V0Z" fill="#4945FF"/>
<path fill-rule="evenodd" clip-rule="evenodd" d="M353.282 155.307H180.908V243.2H268.802V331.094H356.695V158.72C356.695 156.835 355.167 155.307 353.282 155.307Z" fill="white"/>
<path d="M180.908 243.199H265.388C267.274 243.199 268.802 244.728 268.802 246.613V331.093H184.322C182.437 331.093 180.908 329.565 180.908 327.679V243.199Z" fill="#9593FF"/>
<path d="M268.801 331.094H356.694L271.714 416.074C270.639 417.149 268.801 416.387 268.801 414.867V331.094Z" fill="#9593FF"/>
<path d="M180.907 243.2H97.1335C95.6135 243.2 94.8519 241.362 95.9271 240.287L180.907 155.307V243.2Z" fill="#9593FF"/>
</g>
<defs>
<clipPath id="clip0_317_573">
<rect width="512" height="512" fill="white"/>
</clipPath>
</defs>
</svg>
