<svg width="512" height="512" viewBox="0 0 512 512" fill="none" xmlns="http://www.w3.org/2000/svg">
<g clip-path="url(#clip0_317_778)">
<path d="M512 0H0V512H512V0Z" fill="black"/>
<path fill-rule="evenodd" clip-rule="evenodd" d="M345.8 132.099C342.4 131.899 339.4 131.699 336 131.699C305.6 131.699 276.6 144.099 255.8 166.299C234.9 144.299 206.2 131.699 175.9 131.699C115.4 131.699 66 180.899 66 241.499V379.999H125.2V243.199C125.2 217.999 145.9 194.899 170.1 192.499C171.8 192.299 173.5 192.299 175.2 192.299C202.6 192.299 225 214.699 225 242.099V380.199H285.5V243.199C285.5 218.199 306 195.099 330.4 192.599C332.1 192.399 333.8 192.399 335.5 192.399C362.9 192.399 385.3 214.599 385.5 241.799V380.299H446V243.499C446 215.699 435.7 188.999 417.2 168.299C398.8 147.299 373.4 134.499 345.8 131.999" fill="white"/>
</g>
<defs>
<clipPath id="clip0_317_778">
<rect width="512" height="512" fill="white"/>
</clipPath>
</defs>
</svg>
