<svg width="512" height="512" viewBox="0 0 512 512" fill="none" xmlns="http://www.w3.org/2000/svg">
<g clip-path="url(#clip0_317_520)">
<path d="M512 0H0V512H512V0Z" fill="white"/>
<path d="M412.799 258.801C412.799 312.101 413.099 365.401 412.299 418.601C412.299 422.801 404.799 430.401 400.699 430.501C358.699 431.401 316.699 431.101 272.899 429.001C354.599 400.401 400.899 344.301 412.799 258.701V258.801Z" fill="#FDDD1C"/>
<path d="M413.8 238.601C404.6 235.101 398.3 230.701 391.9 230.601C353.8 229.901 315.6 230.601 277.5 230.101C267.1 230.001 264.1 233.901 263.8 243.901C262.8 280.501 262.4 280.501 299.5 280.601C313.3 280.601 327 280.601 343.1 280.601C334.3 315.801 314.1 338.201 286.4 353.101C240.6 377.801 194.2 376.301 151.7 346.101C109.3 315.901 92.3998 272.801 99.8998 221.201C109.6 154.101 146.1 107.401 211.4 87.9006C299.9 61.5006 385.7 114.501 407 198.901C410.4 212.201 411.6 226.101 413.7 238.701L413.8 238.601ZM98.3998 251.101C142 225.901 176.2 206.201 220 180.901C223.7 185.401 226.7 189.101 230.7 194.001C239.5 178.601 247.3 164.901 255.9 149.701H205.1C207 155.501 208.5 160.001 210.2 164.801C172.4 186.601 135.6 207.801 98.5998 229.101M119.5 314.101C163.1 288.901 140.3 302.101 184.1 276.801C187.8 281.301 190.8 285.001 194.8 289.901C203.6 274.501 211.4 260.801 220 245.601H169.2C171.1 251.401 172.6 255.901 174.3 260.701C136.5 282.501 147.5 277.801 110.5 299.101L114.9 307.101L119.5 314.101Z" fill="#058D7F"/>
</g>
<defs>
<clipPath id="clip0_317_520">
<rect width="512" height="512" fill="white"/>
</clipPath>
</defs>
</svg>
