<svg width="512" height="512" viewBox="0 0 512 512" fill="none" xmlns="http://www.w3.org/2000/svg">
<g clip-path="url(#clip0_317_636)">
<path d="M512 0H0V512H512V0Z" fill="white"/>
<g clip-path="url(#clip1_317_636)">
<path d="M174.396 410.99L371.329 351.493V167.174L144.275 109.373V165.712H108.82V63L403.379 140.458V377.216L174.382 448.375V410.976L174.396 410.99Z" fill="#414042"/>
<path d="M108.82 449.602V197.776H144.275V449.602H108.82Z" fill="#414042"/>
<path d="M193.337 197.775H229.275V271.842C229.275 292.561 239.062 302.928 258.664 302.928C278.267 302.928 288.054 292.575 288.054 271.842V197.775H323.992V275.482C323.992 293.609 318.409 307.821 307.243 318.091C296.077 328.375 279.879 333.517 258.678 333.517C237.477 333.517 221.279 328.334 210.113 317.981C198.947 307.615 193.351 293.457 193.351 275.482V197.775H193.337Z" fill="#00AD7D"/>
</g>
</g>
<defs>
<clipPath id="clip0_317_636">
<rect width="512" height="512" fill="white"/>
</clipPath>
<clipPath id="clip1_317_636">
<rect width="295" height="385.981" fill="white" transform="translate(109 63)"/>
</clipPath>
</defs>
</svg>
