<svg width="512" height="512" viewBox="0 0 512 512" fill="none" xmlns="http://www.w3.org/2000/svg">
<g clip-path="url(#clip0_323_1846)">
<path d="M512 0H0V512H512V0Z" fill="url(#paint0_linear_323_1846)"/>
<path fill-rule="evenodd" clip-rule="evenodd" d="M271.218 387.432L278.806 374.608C284.686 364.668 287.626 359.684 292.358 356.94C297.09 354.182 303.04 354.084 314.94 353.874C332.524 353.58 343.542 352.502 352.782 348.666C361.275 345.148 368.992 339.992 375.492 333.492C381.992 326.992 387.148 319.275 390.666 310.782C396 297.93 396 281.62 396 249V235C396 189.178 396 166.26 385.682 149.432C379.914 140.013 371.998 132.092 362.582 126.318C345.74 116 322.822 116 277 116H235C189.178 116 166.26 116 149.432 126.318C140.013 132.086 132.092 140.002 126.318 149.418C116 166.26 116 189.192 116 235V249C116 281.62 116 297.93 121.32 310.782C124.839 319.276 129.998 326.994 136.501 333.494C143.003 339.994 150.722 345.15 159.218 348.666C168.458 352.502 179.476 353.566 197.06 353.874C208.96 354.084 214.91 354.182 219.642 356.94C224.36 359.684 227.314 364.654 233.194 374.608L240.782 387.432C247.544 398.856 264.442 398.856 271.218 387.432ZM312 256C315.713 256 319.274 254.525 321.899 251.899C324.525 249.274 326 245.713 326 242C326 238.287 324.525 234.726 321.899 232.101C319.274 229.475 315.713 228 312 228C308.287 228 304.726 229.475 302.101 232.101C299.475 234.726 298 238.287 298 242C298 245.713 299.475 249.274 302.101 251.899C304.726 254.525 308.287 256 312 256ZM270 242C270 245.713 268.525 249.274 265.899 251.899C263.274 254.525 259.713 256 256 256C252.287 256 248.726 254.525 246.101 251.899C243.475 249.274 242 245.713 242 242C242 238.287 243.475 234.726 246.101 232.101C248.726 229.475 252.287 228 256 228C259.713 228 263.274 229.475 265.899 232.101C268.525 234.726 270 238.287 270 242ZM200 256C203.713 256 207.274 254.525 209.899 251.899C212.525 249.274 214 245.713 214 242C214 238.287 212.525 234.726 209.899 232.101C207.274 229.475 203.713 228 200 228C196.287 228 192.726 229.475 190.101 232.101C187.475 234.726 186 238.287 186 242C186 245.713 187.475 249.274 190.101 251.899C192.726 254.525 196.287 256 200 256Z" fill="white"/>
</g>
<defs>
<linearGradient id="paint0_linear_323_1846" x1="-0.00418679" y1="-0.00556786" x2="362.034" y2="362.033" gradientUnits="userSpaceOnUse">
<stop stop-color="#8E2DE2"/>
<stop offset="1" stop-color="#4A00E0"/>
</linearGradient>
<clipPath id="clip0_323_1846">
<rect width="512" height="512" fill="white"/>
</clipPath>
</defs>
</svg>
