<svg width="512" height="512" viewBox="0 0 512 512" fill="none" xmlns="http://www.w3.org/2000/svg">
<g clip-path="url(#clip0_327_2387)">
<path d="M512 0H0V512H512V0Z" fill="url(#paint0_linear_327_2387)"/>
<path fill-rule="evenodd" clip-rule="evenodd" d="M96.4998 262.166H146.402C148.654 262.173 150.812 263.073 152.404 264.669C153.997 266.265 154.894 268.427 154.902 270.684V372.902C154.894 375.159 153.997 377.321 152.404 378.917C150.812 380.513 148.654 381.413 146.402 381.42H96.4998C94.2477 381.413 92.09 380.513 90.4975 378.917C88.9051 377.321 88.0072 375.159 88 372.902V270.684C88.0072 268.427 88.9051 266.265 90.4975 264.669C92.09 263.073 94.2477 262.173 96.4998 262.166ZM165.924 371.418V271.865H218.979C237.953 275.273 256.927 285.604 275.873 297.557H310.64C326.351 298.492 334.604 314.484 319.331 325.035C307.13 333.993 291.063 333.471 274.584 332.015C263.205 331.438 262.712 346.743 274.584 346.798C278.697 347.128 283.166 346.166 287.087 346.138C307.651 346.138 324.596 342.182 334.96 325.915L340.252 313.522L391.936 287.83C417.819 279.312 436.19 306.433 417.134 325.283C381.075 351.664 342.501 374.407 301.975 393.181C273.46 410.574 244.917 409.97 216.402 393.181L165.951 371.418H165.924ZM257.996 128.018C257.68 127.759 257.317 127.563 256.927 127.441C256.638 127.375 256.338 127.375 256.049 127.441C255.273 127.52 254.557 127.893 254.048 128.486L247.111 136.729C246.492 137.474 245.636 137.983 244.687 138.168C243.737 138.353 242.753 138.204 241.901 137.746C240.969 137.251 239.982 136.784 238.995 136.372C238.008 135.96 236.829 135.52 235.787 135.163C234.745 134.806 233.676 134.503 232.442 134.146C231.208 133.789 230.166 133.514 229.097 133.267C228.21 133.041 227.421 132.534 226.848 131.82C226.274 131.106 225.947 130.226 225.916 129.31L224.874 117.989C224.831 117.588 224.719 117.198 224.545 116.835C224.377 116.539 224.164 116.27 223.914 116.038C223.667 115.81 223.364 115.649 223.037 115.571C222.667 115.486 222.283 115.486 221.913 115.571L207.354 117C206.964 117.052 206.585 117.163 206.229 117.33C205.873 117.525 205.556 117.786 205.297 118.099C205.081 118.37 204.914 118.677 204.804 119.006C204.747 119.305 204.747 119.613 204.804 119.913L205.818 130.601C205.912 131.59 205.656 132.581 205.095 133.4C204.533 134.219 203.702 134.814 202.747 135.08C201.87 135.383 200.883 135.74 199.759 136.207C198.634 136.674 197.675 137.141 196.797 137.608H196.633C195.701 138.103 194.714 138.625 193.891 139.175H193.617C192.685 139.724 191.78 140.301 190.875 140.878C190.126 141.374 189.241 141.62 188.344 141.581C187.448 141.541 186.587 141.218 185.885 140.658L176.398 133.294C176.109 133.061 175.785 132.876 175.438 132.745C175.167 132.684 174.887 132.684 174.616 132.745C174.224 132.801 173.844 132.922 173.491 133.102H173.327C173.073 133.283 172.842 133.495 172.641 133.734L163.456 144.917C163.179 145.251 162.966 145.633 162.826 146.044C162.771 146.335 162.771 146.633 162.826 146.923V147.116C162.854 147.442 162.948 147.76 163.1 148.05V148.187C163.281 148.458 163.503 148.699 163.758 148.902L171.983 155.854C172.738 156.472 173.253 157.335 173.438 158.294C173.624 159.253 173.468 160.246 172.998 161.102C172.506 161.995 172.057 162.912 171.654 163.85C171.198 164.9 170.796 165.973 170.448 167.065C170.119 168.081 169.763 169.18 169.406 170.417C169.05 171.653 168.775 172.725 168.529 173.769C168.359 174.67 167.9 175.49 167.222 176.105C166.544 176.72 165.683 177.097 164.772 177.177L153.448 178.221C153.057 178.264 152.677 178.376 152.324 178.55C152.015 178.722 151.736 178.945 151.502 179.21C151.288 179.468 151.13 179.767 151.036 180.089C150.962 180.452 150.962 180.826 151.036 181.188L152.461 195.779C152.501 196.18 152.612 196.571 152.79 196.933C152.973 197.29 153.225 197.608 153.531 197.867C153.808 198.074 154.112 198.24 154.435 198.362C154.771 198.42 155.114 198.42 155.45 198.362L166.116 197.345C167.077 197.285 168.029 197.558 168.813 198.119C169.597 198.679 170.164 199.493 170.421 200.423C170.722 201.302 171.106 202.319 171.572 203.418C172.038 204.517 172.477 205.479 172.971 206.413L173.162 206.798C173.601 207.65 174.095 208.584 174.643 209.546L176.48 212.568C176.955 213.318 177.183 214.198 177.134 215.085C177.085 215.972 176.761 216.821 176.206 217.514L168.611 226.884C168.411 227.156 168.245 227.451 168.117 227.763C168.074 228.027 168.074 228.296 168.117 228.56C168.153 228.962 168.265 229.354 168.446 229.714C168.624 230.044 168.866 230.334 169.159 230.566C172.943 233.726 176.837 236.831 180.593 240.019C180.843 240.199 181.121 240.338 181.415 240.431C181.759 240.502 182.114 240.502 182.457 240.431C182.875 240.387 183.282 240.275 183.664 240.101H183.801C184.061 239.926 184.308 239.733 184.541 239.524L191.396 231.281C192.012 230.524 192.872 230.006 193.827 229.816C194.783 229.625 195.775 229.774 196.633 230.236C197.578 230.744 198.548 231.202 199.539 231.61C200.609 232.077 201.678 232.462 202.747 232.819C203.817 233.177 204.831 233.506 206.092 233.863C207.354 234.221 208.368 234.495 209.437 234.743C210.341 234.949 211.151 235.448 211.741 236.164C212.332 236.88 212.669 237.772 212.7 238.7L213.742 249.883C213.786 250.279 213.907 250.661 214.099 251.01C214.25 251.325 214.465 251.605 214.729 251.834C214.994 252.037 215.291 252.195 215.607 252.301C215.978 252.372 216.359 252.372 216.731 252.301L231.263 250.872C231.672 250.832 232.071 250.721 232.442 250.543C232.768 250.372 233.064 250.149 233.319 249.883C233.566 249.579 233.761 249.235 233.895 248.866C233.978 248.542 233.978 248.202 233.895 247.877L232.908 237.161C232.809 236.226 233.025 235.286 233.522 234.489C234.019 233.692 234.768 233.085 235.65 232.764C236.719 232.407 237.788 231.995 238.83 231.555H239.159C240.037 231.171 240.914 230.731 241.901 230.236H242.066C243.108 229.714 244.122 229.165 245.027 228.615L248.07 226.774C248.815 226.296 249.691 226.068 250.574 226.123C251.456 226.177 252.298 226.511 252.978 227.076L262.246 234.66C262.523 234.867 262.827 235.033 263.151 235.155C263.439 235.224 263.74 235.224 264.028 235.155C264.42 235.136 264.803 235.033 265.152 234.853C265.466 234.653 265.744 234.402 265.975 234.111C269.128 230.319 272.226 226.417 275.407 222.652C275.592 222.415 275.731 222.144 275.818 221.856C275.876 221.51 275.876 221.157 275.818 220.811C275.77 220.394 275.66 219.986 275.489 219.602C275.312 219.273 275.08 218.975 274.804 218.723L266.578 212.019C265.807 211.407 265.278 210.542 265.082 209.576C264.886 208.611 265.037 207.607 265.509 206.743C266.015 205.796 266.472 204.824 266.88 203.83C267.346 202.704 267.757 201.632 268.086 200.643C268.415 199.653 268.744 198.499 269.1 197.263C269.457 196.026 269.731 195.01 269.978 193.911C270.187 192.992 270.698 192.17 271.429 191.577C272.16 190.984 273.068 190.654 274.008 190.641L285.415 189.432C285.814 189.388 286.204 189.277 286.566 189.102C286.856 188.924 287.123 188.712 287.361 188.47C287.564 188.204 287.721 187.907 287.827 187.591C287.886 187.245 287.886 186.892 287.827 186.546L286.402 171.983C286.354 171.592 286.243 171.212 286.073 170.857V170.692C285.884 170.402 285.653 170.143 285.387 169.922C285.117 169.706 284.81 169.538 284.482 169.428C284.183 169.371 283.876 169.371 283.578 169.428L272.802 170.197C271.871 170.287 270.936 170.066 270.143 169.569C269.35 169.072 268.743 168.327 268.415 167.449C268.059 166.433 267.675 165.361 267.181 164.262C266.688 163.163 266.221 162.009 265.755 161.102V160.91C265.29 159.968 264.778 159.051 264.22 158.162C263.672 157.228 263.041 156.293 262.41 155.414C261.896 154.655 261.641 153.748 261.686 152.831C261.73 151.914 262.071 151.036 262.657 150.331L270.17 141.016C270.408 140.73 270.593 140.404 270.718 140.054C270.776 139.791 270.776 139.519 270.718 139.257C270.662 138.856 270.541 138.466 270.362 138.103V137.911C270.201 137.665 270.007 137.444 269.786 137.251L259.504 128.788C258.952 128.642 258.438 128.38 257.996 128.018ZM371.454 195.614C371.022 195.245 370.52 194.968 369.978 194.798C369.437 194.628 368.866 194.569 368.301 194.625C367.168 194.754 366.127 195.314 365.395 196.191L361.2 201.275C359.867 200.583 358.483 199.995 357.06 199.516C355.579 199.049 354.318 198.637 352.727 198.28L352.069 191.19C351.969 190.058 351.427 189.012 350.561 188.278C350.134 187.914 349.634 187.645 349.095 187.489C348.557 187.333 347.991 187.292 347.436 187.371L338.497 188.25C337.434 188.394 336.459 188.922 335.755 189.734C335.383 190.165 335.103 190.667 334.934 191.211C334.764 191.755 334.707 192.327 334.768 192.894L335.371 199.406C333.923 199.876 332.519 200.473 331.176 201.192C329.845 201.851 328.562 202.604 327.338 203.445L321.689 198.884C321.28 198.504 320.794 198.216 320.264 198.041C319.735 197.866 319.173 197.806 318.619 197.867C317.479 197.998 316.436 198.57 315.712 199.461L310.228 206.303C309.862 206.737 309.585 207.239 309.415 207.782C309.245 208.324 309.185 208.895 309.239 209.461C309.292 210.027 309.458 210.577 309.727 211.077C309.996 211.578 310.362 212.019 310.804 212.376L315.575 216.58C314.883 217.911 314.305 219.299 313.848 220.729C313.354 222.213 312.943 223.477 312.587 225.071L305.512 225.73C304.385 225.839 303.344 226.381 302.606 227.241C302.27 227.687 302.03 228.199 301.903 228.743C301.775 229.287 301.763 229.852 301.866 230.401L302.743 239.332C302.853 240.453 303.394 241.488 304.251 242.217C304.674 242.592 305.171 242.874 305.709 243.044C306.248 243.215 306.816 243.27 307.377 243.206L313.875 242.601C314.324 244.039 314.893 245.436 315.575 246.778C316.255 248.136 317.005 249.457 317.823 250.735L313.272 256.231C312.896 256.642 312.613 257.13 312.443 257.661C312.272 258.192 312.219 258.754 312.285 259.308C312.443 260.388 313.001 261.369 313.848 262.056L320.785 268.019C321.22 268.378 321.725 268.645 322.267 268.801C322.81 268.957 323.378 268.999 323.938 268.925C325.074 268.816 326.13 268.287 326.899 267.442L331.122 262.276C332.447 262.984 333.832 263.572 335.262 264.034C336.682 264.526 338.128 264.939 339.594 265.271L340.252 272.388C340.37 273.506 340.909 274.538 341.76 275.273C342.192 275.639 342.696 275.911 343.239 276.072C343.781 276.233 344.352 276.279 344.913 276.207L353.824 275.328C354.94 275.206 355.968 274.667 356.703 273.816C357.075 273.386 357.355 272.883 357.525 272.339C357.695 271.796 357.751 271.223 357.69 270.656L357.06 264.144C358.512 263.685 359.916 263.086 361.255 262.358C362.603 261.691 363.912 260.948 365.176 260.132L370.659 264.694C371.089 265.067 371.591 265.347 372.133 265.517C372.676 265.687 373.247 265.744 373.812 265.683C374.377 265.631 374.925 265.465 375.425 265.196C375.924 264.927 376.364 264.56 376.719 264.117L382.422 257.192C382.782 256.756 383.05 256.251 383.21 255.708C383.37 255.165 383.419 254.595 383.354 254.032C383.248 252.886 382.708 251.825 381.846 251.065L376.691 246.888C377.469 245.569 378.12 244.18 378.638 242.739C379.125 241.324 379.537 239.884 379.872 238.425L386.973 237.765C388.044 237.624 389.023 237.085 389.715 236.254C390.082 235.822 390.354 235.317 390.515 234.773C390.676 234.229 390.721 233.657 390.647 233.094L389.77 224.164C389.617 223.095 389.081 222.118 388.262 221.416C387.835 221.038 387.334 220.753 386.791 220.578C386.249 220.403 385.676 220.342 385.109 220.399L378.611 221.031C378.122 219.587 377.526 218.182 376.828 216.827C376.2 215.478 375.447 214.19 374.58 212.98L379.159 207.32C379.528 206.903 379.806 206.415 379.976 205.885C380.146 205.355 380.204 204.796 380.146 204.242C380.018 203.106 379.458 202.063 378.583 201.33L371.729 195.697H371.509L371.454 195.614ZM344.365 214.382C346.691 214.17 349.035 214.403 351.274 215.069C353.421 215.753 355.42 216.834 357.169 218.256C358.908 219.695 360.351 221.459 361.419 223.449C362.537 225.492 363.21 227.749 363.393 230.072C363.605 232.402 363.373 234.752 362.708 236.996C362.075 239.155 361.023 241.167 359.611 242.916C358.199 244.666 356.456 246.118 354.482 247.19C352.436 248.288 350.187 248.952 347.874 249.141C345.548 249.368 343.201 249.134 340.965 248.454C338.812 247.78 336.803 246.708 335.042 245.294C333.319 243.836 331.887 242.065 330.82 240.074C329.641 238.028 328.92 235.749 328.709 233.396C328.34 229.968 329.005 226.507 330.618 223.46C332.231 220.414 334.717 217.922 337.757 216.305C339.793 215.179 342.046 214.504 344.365 214.327V214.382ZM259.531 119.363C260.491 119.665 261.411 120.08 262.273 120.599C262.877 120.744 263.44 121.026 263.918 121.424L274.968 130.629C275.993 131.471 276.865 132.484 277.545 133.624L277.765 133.981C278.464 135.277 278.91 136.695 279.081 138.158C279.272 139.694 279.113 141.254 278.615 142.719C278.18 144.007 277.521 145.207 276.668 146.264L271.02 153.298L271.376 153.875C272.095 155.083 272.745 156.331 273.323 157.612C273.981 158.895 274.529 160.076 274.968 161.157L275.187 161.706L282.59 160.992C284.027 160.825 285.483 160.956 286.868 161.377H287.087C288.358 161.799 289.546 162.441 290.597 163.273L290.981 163.602C291.959 164.464 292.785 165.486 293.421 166.625L293.64 166.982C294.271 168.228 294.67 169.578 294.819 170.967C294.819 174.649 295.751 181.793 296.245 185.64C296.409 187.029 296.307 188.438 295.943 189.789V190.036C295.525 191.453 294.825 192.771 293.887 193.911C292.986 195.029 291.878 195.962 290.624 196.658C289.322 197.328 287.91 197.757 286.456 197.922L277.737 198.692L277.518 199.489C277.216 200.588 276.833 201.824 276.339 203.226C275.845 204.627 275.434 205.973 274.968 206.99L274.749 207.457L280.753 212.321C281.893 213.308 282.825 214.513 283.495 215.865C283.996 217.072 284.292 218.353 284.373 219.657V219.795C284.557 221.269 284.436 222.766 284.016 224.191C283.635 225.53 283.013 226.787 282.179 227.901L272.61 239.496C271.696 240.623 270.569 241.557 269.292 242.244C268 242.969 266.571 243.418 265.097 243.563C263.635 243.734 262.153 243.612 260.738 243.206H260.518C259.27 242.781 258.103 242.15 257.064 241.337L249.962 235.54L249.249 235.952C248.043 236.666 246.864 237.298 245.74 237.848C244.616 238.397 243.656 238.892 242.532 239.387L241.545 239.716L242.312 247.135C242.482 248.663 242.323 250.209 241.846 251.669C241.384 253.023 240.677 254.28 239.762 255.379L239.598 255.544C238.711 256.544 237.664 257.389 236.5 258.044H236.225C234.989 258.668 233.652 259.068 232.277 259.226C228.603 259.226 221.474 260.187 217.636 260.682C216.164 260.845 214.675 260.723 213.249 260.325C211.833 259.897 210.518 259.187 209.383 258.236H209.245C208.191 257.299 207.309 256.183 206.641 254.939C205.956 253.641 205.528 252.223 205.379 250.762L204.584 242.052L203.817 241.832L200.088 240.651C198.772 240.211 197.346 239.744 196.331 239.249L195.81 239.029L190.875 245.047C189.97 246.074 188.882 246.922 187.667 247.548L187.365 247.74C186.161 248.305 184.874 248.676 183.554 248.839H183.417C181.937 249.022 180.435 248.9 179.003 248.482C177.685 248.082 176.45 247.449 175.356 246.613L163.758 237.023C162.64 236.102 161.709 234.973 161.016 233.699C160.317 232.413 159.87 231.004 159.7 229.549C159.522 228.067 159.682 226.564 160.166 225.153C160.572 223.886 161.203 222.704 162.03 221.663L167.816 214.546L167.514 213.86C166.911 212.843 166.335 211.744 165.759 210.59C165.074 209.326 164.498 208.117 163.977 206.88L163.73 206.248L156.382 206.935C154.869 207.114 153.336 206.964 151.886 206.495C150.608 206.075 149.418 205.423 148.376 204.572L147.965 204.27C146.847 203.304 145.917 202.14 145.223 200.835C144.596 199.598 144.197 198.257 144.044 196.878C144.044 193.169 143.084 186.134 142.591 182.232C142.365 180.72 142.449 179.177 142.837 177.699C143.264 176.28 143.973 174.962 144.921 173.824C145.846 172.72 146.961 171.789 148.211 171.076C149.508 170.4 150.923 169.98 152.379 169.84L161.071 169.043L161.29 168.246C161.619 167.175 162.003 165.911 162.469 164.537C162.935 163.163 163.401 161.789 163.868 160.745L164.087 160.223L158.466 155.441C157.378 154.596 156.45 153.563 155.724 152.391L155.56 152.117C154.932 150.901 154.541 149.577 154.408 148.215V147.995C154.252 146.506 154.401 145 154.847 143.571C155.302 142.153 156.029 140.837 156.985 139.697L166.171 128.458C167.01 127.427 168.033 126.56 169.187 125.903L169.516 125.683C170.803 124.967 172.22 124.519 173.683 124.364C175.189 124.172 176.719 124.332 178.153 124.831C179.435 125.272 180.632 125.932 181.69 126.782L188.736 132.47L189.449 131.92C190.573 131.261 191.725 130.656 192.876 130.079C194.028 129.502 195.289 128.87 196.413 128.376L197.072 128.128L196.331 120.737C196.165 119.297 196.295 117.838 196.715 116.45V116.23C197.136 114.957 197.777 113.766 198.607 112.713L199.018 112.493C199.962 111.375 201.106 110.443 202.391 109.746C203.628 109.091 204.976 108.672 206.366 108.509C210.041 108.509 217.169 107.575 221.008 107.08C222.479 106.901 223.972 107.023 225.395 107.438C226.809 107.857 228.124 108.558 229.261 109.498C230.364 110.414 231.293 111.522 232.003 112.768C232.703 114.103 233.15 115.556 233.319 117.055L234.087 125.793L234.882 126.013C235.951 126.315 237.213 126.7 238.611 127.167L242.367 128.568L242.916 128.815L247.659 123.072C248.585 121.947 249.721 121.014 251.004 120.325C252.316 119.59 253.761 119.123 255.254 118.951C256.738 118.767 258.244 118.907 259.668 119.363H259.531ZM216.073 151.265C218.18 151.086 220.299 151.086 222.406 151.265C224.601 151.48 226.768 151.913 228.877 152.556C230.887 153.188 232.833 154.007 234.69 155.002L234.937 155.139C236.674 156.103 238.326 157.216 239.872 158.464C243.091 161.198 245.778 164.505 247.796 168.219C248.86 170.123 249.706 172.142 250.319 174.236C250.957 176.347 251.362 178.522 251.525 180.721C251.717 182.823 251.717 184.939 251.525 187.041C251.338 189.242 250.915 191.416 250.264 193.526V193.801C249.642 195.699 248.853 197.538 247.906 199.296C246.915 201.132 245.768 202.878 244.478 204.517L244.204 204.819C241.534 207.958 238.308 210.575 234.69 212.541C232.772 213.591 230.751 214.438 228.658 215.069C226.554 215.68 224.396 216.085 222.214 216.278C220.07 216.456 217.915 216.456 215.771 216.278C213.576 216.065 211.409 215.633 209.3 214.986C207.302 214.349 205.365 213.53 203.515 212.541C201.685 211.535 199.942 210.377 198.305 209.078C196.708 207.734 195.24 206.244 193.918 204.627C192.578 202.976 191.386 201.211 190.354 199.351C189.313 197.429 188.477 195.403 187.859 193.306C187.22 191.195 186.816 189.021 186.652 186.821C186.461 184.719 186.461 182.604 186.652 180.501C186.839 178.301 187.262 176.127 187.914 174.017C188.539 172.001 189.356 170.05 190.354 168.191L190.491 167.944C191.44 166.186 192.55 164.521 193.809 162.97L194.028 162.696C195.315 161.159 196.747 159.751 198.305 158.492C199.953 157.157 201.714 155.971 203.57 154.947C205.477 153.895 207.49 153.048 209.574 152.419C211.688 151.81 213.855 151.405 216.045 151.21L216.073 151.265ZM221.556 159.701C219.933 159.549 218.299 159.549 216.676 159.701C215.069 159.834 213.48 160.129 211.932 160.58C210.42 161.029 208.959 161.637 207.573 162.393C206.154 163.193 204.805 164.112 203.542 165.141C202.417 166.058 201.371 167.069 200.417 168.164C199.488 169.326 198.662 170.567 197.949 171.873V172.093C197.214 173.491 196.609 174.954 196.139 176.462C195.569 178.046 195.165 179.685 194.933 181.353C194.796 182.981 194.796 184.617 194.933 186.244C195.065 187.866 195.368 189.468 195.838 191.025C196.282 192.573 196.898 194.066 197.675 195.477C198.463 196.896 199.381 198.239 200.417 199.489C201.382 200.694 202.466 201.798 203.652 202.786C204.863 203.751 206.157 204.606 207.518 205.341C208.925 206.08 210.393 206.696 211.905 207.182C213.447 207.668 215.038 207.981 216.648 208.117C218.299 208.268 219.96 208.268 221.611 208.117C223.226 207.98 224.824 207.686 226.382 207.237C227.84 206.781 229.246 206.173 230.577 205.424C232.002 204.634 233.352 203.714 234.608 202.676C235.736 201.742 236.782 200.712 237.733 199.599C238.767 198.367 239.685 197.043 240.475 195.642C241.174 194.297 241.77 192.901 242.258 191.465V191.3C242.734 189.742 243.055 188.141 243.217 186.519C243.354 184.892 243.354 183.255 243.217 181.628C243.085 180.007 242.782 178.404 242.312 176.847C241.866 175.33 241.259 173.866 240.503 172.478C239.721 171.054 238.803 169.711 237.761 168.466C236.796 167.261 235.712 166.156 234.525 165.169C233.38 164.254 232.16 163.436 230.879 162.723H230.659C229.253 161.983 227.785 161.367 226.272 160.882C224.739 160.4 223.158 160.086 221.556 159.948V159.701ZM132.555 342.896C134.487 342.89 136.377 343.46 137.986 344.531C139.595 345.603 140.85 347.129 141.593 348.916C142.336 350.702 142.533 352.67 142.16 354.57C141.786 356.469 140.859 358.215 139.495 359.585C138.131 360.956 136.391 361.891 134.497 362.27C132.603 362.65 130.639 362.458 128.854 361.718C127.069 360.979 125.542 359.725 124.469 358.116C123.395 356.506 122.822 354.614 122.822 352.678C122.822 350.088 123.846 347.604 125.671 345.771C127.496 343.937 129.971 342.903 132.555 342.896Z" fill="white"/>
</g>
<defs>
<linearGradient id="paint0_linear_327_2387" x1="-0.00418679" y1="-0.00556786" x2="362.034" y2="362.033" gradientUnits="userSpaceOnUse">
<stop stop-color="#8E2DE2"/>
<stop offset="1" stop-color="#4A00E0"/>
</linearGradient>
<clipPath id="clip0_327_2387">
<rect width="512" height="512" fill="white"/>
</clipPath>
</defs>
</svg>
