<svg width="512" height="512" viewBox="0 0 512 512" fill="none" xmlns="http://www.w3.org/2000/svg">
<g clip-path="url(#clip0_320_1146)">
<path d="M512 0H0V512H512V0Z" fill="url(#paint0_linear_320_1146)"/>
<path d="M162.666 376C155.334 376 149.058 373.391 143.84 368.174C138.622 362.955 136.009 356.675 136 349.334V162.666C136 155.334 138.614 149.058 143.84 143.84C149.066 138.622 155.342 136.009 162.666 136H262C266.445 136 269.835 137.946 272.174 141.84C274.511 145.734 274.786 149.898 273 154.334C271.889 157.889 271 161.445 270.334 165C269.666 168.556 269.334 172.222 269.334 176C269.334 194.445 275.835 210.169 288.84 223.174C301.845 236.178 317.565 242.676 336 242.666C339.778 242.666 343.445 242.334 347 241.666C350.555 241 354.111 240.111 357.666 239C362.111 237.445 366.28 237.778 370.174 240C374.066 242.222 376.009 245.556 376 250V349.334C376 356.666 373.391 362.946 368.174 368.174C362.955 373.4 356.675 376.009 349.334 376H162.666ZM176 322.666H336L286 256L246 309.334L216 269.334L176 322.666ZM336 216C332.222 216 329.058 214.72 326.506 212.16C323.955 209.6 322.675 206.436 322.666 202.666V189.334H309.334C305.555 189.334 302.391 188.054 299.84 185.494C297.289 182.934 296.009 179.769 296 176C295.991 172.231 297.271 169.066 299.84 166.506C302.409 163.946 305.574 162.666 309.334 162.666H322.666V149.334C322.666 145.556 323.946 142.391 326.506 139.84C329.066 137.289 332.231 136.009 336 136C339.769 135.991 342.938 137.271 345.506 139.84C348.075 142.409 349.351 145.574 349.334 149.334V162.666H362.666C366.445 162.666 369.614 163.946 372.174 166.506C374.734 169.066 376.009 172.231 376 176C375.991 179.769 374.711 182.938 372.16 185.506C369.609 188.075 366.445 189.351 362.666 189.334H349.334V202.666C349.334 206.445 348.054 209.614 345.494 212.174C342.934 214.734 339.769 216.009 336 216Z" fill="white"/>
</g>
<defs>
<linearGradient id="paint0_linear_320_1146" x1="-0.00418679" y1="-0.00556786" x2="362.034" y2="362.033" gradientUnits="userSpaceOnUse">
<stop stop-color="#8E2DE2"/>
<stop offset="1" stop-color="#4A00E0"/>
</linearGradient>
<clipPath id="clip0_320_1146">
<rect width="512" height="512" fill="white"/>
</clipPath>
</defs>
</svg>
