<svg width="512" height="512" viewBox="0 0 512 512" fill="none" xmlns="http://www.w3.org/2000/svg">
<g clip-path="url(#clip0_323_1881)">
<path d="M512 0H0V512H512V0Z" fill="#FC6600"/>
<path d="M256.122 342.921C256.122 342.921 238.836 321.737 228.611 310.294L214.246 344.137C234.94 374.816 248.575 401.355 256.122 414.016C270.73 389.181 306.519 315.651 380.288 246.746L372.011 227.512C324.048 263.06 283.147 308.346 256.122 342.921Z" fill="white"/>
<path d="M363.732 423.999H422.407L370.792 300.312C355.698 316.382 342.795 332.208 331.352 347.304L363.732 423.999Z" fill="white"/>
<path d="M281.686 88H281.442H230.314H230.071L89.5928 424H148.267L249.792 184.418L254.661 171.513H257.339L262.208 184.418L292.398 255.513C305.788 242.122 320.396 228.974 335.734 216.557L281.686 88Z" fill="white"/>
</g>
<defs>
<clipPath id="clip0_323_1881">
<rect width="512" height="512" fill="white"/>
</clipPath>
</defs>
</svg>
