<svg width="512" height="512" viewBox="0 0 512 512" fill="none" xmlns="http://www.w3.org/2000/svg">
<g clip-path="url(#clip0_318_805)">
<path d="M512 0H0V512H512V0Z" fill="#2C3C58"/>
<path fill-rule="evenodd" clip-rule="evenodd" d="M250.83 87.9003C237.67 98.6103 235.69 117.95 246.39 131.11C246.71 131.5 247.04 131.89 247.38 132.27C249.92 135.15 253 137.51 256.45 139.21C259.3 140.74 260.37 144.29 258.85 147.14C257.38 149.89 254.02 151 251.2 149.67C241.52 144.78 234.1 136.33 230.51 126.1C208.53 131.1 189.73 141.97 170.44 159.05C120.68 203.11 108.16 271 140.74 313.65C132.45 324.15 126.23 335.81 124.6 347.54C122.61 359.42 126.39 371.54 134.79 380.18C151.44 397.61 173.63 393.11 191.47 389.5C203.4 387.07 214.68 384.79 221.39 389.08C227.23 392.83 227.68 396.1 227.94 397.15C231.75 414.05 217.44 422.34 214.03 426.65C213.11 427.81 213.3 429.5 214.46 430.42C214.92 430.79 215.49 430.99 216.08 431C222.39 431 232.4 428.86 238.46 423.6C244.52 418.34 251.44 409.28 249.14 394.01C248.99 393.1 248.81 392.2 248.56 391.15C247 385.08 242.94 377.42 232.95 371.04C218.95 362.06 202.13 365.47 187.22 368.48C169.52 372.11 158.21 373.65 150.28 365.38C146.42 361.48 144.75 355.91 145.82 350.53C146.8 343.69 150.63 336.22 156.01 329.03C195.38 359.66 259.13 353.45 305.91 312C322.31 298.22 335.23 280.77 343.64 261.07C332.21 256.72 323.24 247.6 319.09 236.1C317.99 233.06 319.57 229.7 322.62 228.6C325.66 227.5 329.02 229.08 330.12 232.13C331.41 235.73 333.38 239.05 335.92 241.9C347.12 254.52 366.43 255.67 379.05 244.46C391.67 233.26 392.82 213.95 381.61 201.33C375.34 194.27 366.16 190.5 356.73 191.13C353.51 191.39 350.68 188.98 350.43 185.75C350.17 182.53 352.58 179.7 355.81 179.45C363.9 178.81 372.01 180.5 379.16 184.33C383.87 158.8 385.22 127.38 375.42 116.32C368.02 107.96 338.03 101.81 311.63 102.25C312.95 108.1 313.02 114.17 311.83 120.06C311.11 123.21 307.97 125.19 304.82 124.47C301.77 123.78 299.81 120.81 300.35 117.74C303.67 101.1 292.87 84.9303 276.24 81.6103C267.25 79.8203 257.94 82.1303 250.83 87.9203V87.9003ZM365.52 125.98C367.64 129.55 367.22 134.08 364.49 137.2C362.15 139.27 359.56 136.28 357.06 133.46C354.56 130.64 351.44 127.26 353.78 125.19C357.48 123 362.15 123.31 365.53 125.97L365.52 125.98Z" fill="#EC407A"/>
</g>
<defs>
<clipPath id="clip0_318_805">
<rect width="512" height="512" fill="white"/>
</clipPath>
</defs>
</svg>
