<svg width="512" height="512" viewBox="0 0 512 512" fill="none" xmlns="http://www.w3.org/2000/svg">
<g clip-path="url(#clip0_321_1275)">
<path d="M512 0H0V512H512V0Z" fill="url(#paint0_linear_321_1275)"/>
<path fill-rule="evenodd" clip-rule="evenodd" d="M192.389 134.65C192.45 136.635 192.115 138.613 191.404 140.469C190.692 142.325 189.618 144.025 188.242 145.471C186.866 146.917 185.216 148.08 183.386 148.893C181.555 149.708 179.581 150.157 177.574 150.216C171.313 150.397 166.548 151.38 162.989 152.785C160.578 153.636 158.468 155.157 156.91 157.167C156.132 158.452 155.139 161.142 155.139 166.325V214.14C155.139 228.164 151.321 241.069 142.31 251.301L142.157 251.481C140.772 252.993 139.306 254.409 137.758 255.729C139.378 257.149 140.905 258.69 142.34 260.353C151.382 270.417 155.139 283.247 155.139 297.165V345.993C155.139 351.131 156.208 353.76 157.033 355.029L157.216 355.317C158.163 356.828 159.538 358.082 162.149 359.004L162.653 359.201C166.166 360.591 171.007 361.588 177.559 361.769C181.61 361.884 185.449 363.585 188.231 366.501C191.014 369.415 192.512 373.305 192.397 377.313C192.282 381.321 190.562 385.119 187.616 387.872C184.67 390.625 180.739 392.108 176.689 391.993C167.662 391.737 159.171 390.331 151.55 387.354C143.174 384.437 136.046 378.795 131.329 371.35C126.411 363.794 124.594 354.969 124.594 345.993V297.181C124.594 288.597 122.348 283.58 119.446 280.376L119.095 279.983C116.346 276.749 111.001 273.364 100.585 271.521C97.06 270.897 93.8688 269.068 91.568 266.353C89.268 263.637 88.0048 260.209 88 256.665V254.67C87.9992 251.131 89.2544 247.704 91.5456 244.987C93.8376 242.269 97.02 240.433 100.539 239.8C110.695 237.987 116.3 234.693 119.37 231.368C122.394 227.877 124.594 222.633 124.594 214.14V166.341C124.594 157.197 126.396 148.145 131.42 140.499L131.726 140.076C136.694 133.135 143.622 127.8 151.642 124.737C159.278 121.714 167.724 120.279 176.674 120.007C180.722 119.889 184.652 121.367 187.599 124.116C190.546 126.865 192.27 130.645 192.389 134.65ZM319.611 134.665C319.67 132.681 320.124 130.727 320.947 128.916C321.77 127.105 322.946 125.472 324.406 124.11C325.867 122.749 327.585 121.686 329.462 120.981C331.338 120.277 333.336 119.946 335.342 120.007C344.276 120.279 352.722 121.714 360.358 124.737C368.546 127.861 375.593 133.354 380.58 140.499C385.62 148.145 387.406 157.197 387.406 166.341V214.14C387.406 222.602 389.606 227.861 392.645 231.353C395.7 234.677 401.305 237.957 411.461 239.785C414.98 240.418 418.162 242.254 420.454 244.972C422.746 247.689 424.001 251.116 424 254.655V256.65C423.998 260.196 422.738 263.628 420.437 266.346C418.136 269.065 414.942 270.897 411.415 271.521C400.999 273.364 395.638 276.749 392.905 279.983L392.554 280.376C389.652 283.565 387.406 288.597 387.406 297.165V345.993C387.406 354.969 385.574 363.809 380.686 371.35C375.969 378.803 368.834 384.451 360.45 387.369C352.829 390.331 344.338 391.737 335.311 391.993C333.306 392.05 331.308 391.715 329.434 391.008C327.558 390.301 325.843 389.235 324.384 387.872C322.926 386.509 321.753 384.874 320.933 383.063C320.112 381.251 319.661 379.297 319.603 377.313C319.546 375.328 319.885 373.352 320.599 371.497C321.314 369.641 322.391 367.944 323.769 366.501C325.146 365.057 326.798 363.897 328.63 363.085C330.46 362.273 332.435 361.826 334.441 361.769C340.993 361.588 345.834 360.591 349.347 359.201L349.79 359.034L349.851 359.004C351.89 358.401 353.641 357.092 354.784 355.317L354.967 355.014C355.807 353.76 356.861 351.131 356.861 345.993V297.181C356.861 283.247 360.618 270.417 369.675 260.353C371.1 258.69 372.628 257.149 374.257 255.729C372.696 254.412 371.226 252.993 369.858 251.481L369.69 251.301C360.679 241.069 356.861 228.179 356.861 214.125V166.341C356.861 161.157 355.868 158.467 355.09 157.167C353.53 155.163 351.419 153.647 349.011 152.8C345.452 151.394 340.702 150.413 334.426 150.231C332.419 150.173 330.445 149.723 328.614 148.909C326.784 148.095 325.134 146.932 323.758 145.486C322.382 144.041 321.308 142.341 320.596 140.484C319.885 138.628 319.55 136.65 319.611 134.665ZM210.182 286.225C214.232 286.225 218.117 287.817 220.982 290.65C223.846 293.485 225.454 297.329 225.454 301.337V316.449C225.454 320.457 223.846 324.301 220.982 327.134C218.117 329.969 214.232 331.561 210.182 331.561C206.131 331.561 202.246 329.969 199.382 327.134C196.518 324.301 194.909 320.457 194.909 316.449V301.337C194.909 297.329 196.518 293.485 199.382 290.65C202.246 287.817 206.131 286.225 210.182 286.225ZM256 286.225C260.05 286.225 263.935 287.817 266.799 290.65C269.664 293.485 271.273 297.329 271.273 301.337V316.449C271.273 320.457 269.664 324.301 266.799 327.134C263.935 329.969 260.05 331.561 256 331.561C251.95 331.561 248.065 329.969 245.201 327.134C242.336 324.301 240.727 320.457 240.727 316.449V301.337C240.727 297.329 242.336 293.485 245.201 290.65C248.065 287.817 251.95 286.225 256 286.225ZM301.818 286.225C305.869 286.225 309.754 287.817 312.618 290.65C315.482 293.485 317.091 297.329 317.091 301.337V316.449C317.091 320.457 315.482 324.301 312.618 327.134C309.754 329.969 305.869 331.561 301.818 331.561C297.767 331.561 293.883 329.969 291.018 327.134C288.154 324.301 286.546 320.457 286.546 316.449V301.337C286.546 297.329 288.154 293.485 291.018 290.65C293.883 287.817 297.767 286.225 301.818 286.225Z" fill="white"/>
</g>
<defs>
<linearGradient id="paint0_linear_321_1275" x1="-0.00418679" y1="-0.00556786" x2="362.034" y2="362.033" gradientUnits="userSpaceOnUse">
<stop stop-color="#8E2DE2"/>
<stop offset="1" stop-color="#4A00E0"/>
</linearGradient>
<clipPath id="clip0_321_1275">
<rect width="512" height="512" fill="white"/>
</clipPath>
</defs>
</svg>
