<svg width="512" height="512" viewBox="0 0 512 512" fill="none" xmlns="http://www.w3.org/2000/svg">
<g clip-path="url(#clip0_320_1178)">
<path d="M512 0H0V512H512V0Z" fill="#8E2DE2"/>
<path d="M115.998 406.32V399.558L106.057 404.454L104.37 405.18C95.8393 408.36 86.0745 404.73 81.9049 396.541C77.46 387.806 81.0585 377.181 89.9473 372.812L93.7441 370.946L89.9473 369.082L88.3521 368.188C80.6441 363.39 77.7369 353.543 81.9049 345.353C86.3513 336.618 97.1665 333.071 106.057 337.438L115.998 342.322V335.574C116 325.809 124.066 317.894 134.006 317.894C143.943 317.896 151.999 325.81 152.002 335.574V342.322L161.955 337.438L178.052 369.082L174.255 370.946L178.052 372.812L161.955 404.454L152.002 399.558V406.32C151.999 416.083 143.943 423.998 134.006 424C124.066 424 116 416.085 115.998 406.32ZM242.005 406.32V399.558L232.051 404.454L230.364 405.18C221.834 408.358 212.067 404.73 207.899 396.541C203.454 387.805 207.062 377.18 215.954 372.812L219.738 370.946L215.954 369.082L214.346 368.188C206.641 363.39 203.731 353.542 207.899 345.353C212.067 337.163 221.834 333.536 230.364 336.714L232.051 337.438L242.005 342.322V335.574C242.007 325.809 250.061 317.894 260 317.894C269.321 317.894 276.982 324.854 277.903 333.773L277.995 335.574V342.322L287.949 337.438L289.636 336.714C298.166 333.536 307.933 337.163 312.101 345.353C316.546 354.088 312.938 364.714 304.046 369.082L300.249 370.946L304.046 372.812L305.654 373.706C313.359 378.504 316.269 388.351 312.101 396.541C307.933 404.73 298.166 408.358 289.636 405.18L287.949 404.454L277.995 399.558V406.32C277.993 416.085 269.939 424 260 424C250.061 424 242.007 416.085 242.005 406.32ZM367.998 406.32V399.558L358.045 404.454L341.948 372.812L345.732 370.946L341.948 369.082L358.045 337.438L367.998 342.322V335.574C368.001 325.81 376.057 317.896 385.994 317.894C395.934 317.894 404 325.809 404.002 335.574V342.322L413.943 337.438C422.834 333.071 433.649 336.618 438.095 345.353C442.54 354.087 438.942 364.713 430.053 369.082L426.256 370.946L430.053 372.812C438.942 377.181 442.54 387.806 438.095 396.541C433.649 405.275 422.834 408.822 413.943 404.454L404.002 399.558V406.32C404 416.085 395.934 424 385.994 424C376.057 423.998 368.001 416.083 367.998 406.32ZM178.052 372.812C186.942 377.179 190.551 387.806 186.107 396.541C181.662 405.274 170.846 408.818 161.955 404.454L178.052 372.812ZM358.045 404.454C349.154 408.818 338.338 405.274 333.893 396.541C329.449 387.806 333.058 377.179 341.948 372.812L358.045 404.454ZM161.955 337.438C170.846 333.074 181.662 336.618 186.107 345.353C190.551 354.088 186.942 364.714 178.052 369.082L161.955 337.438ZM333.893 345.353C338.338 336.618 349.154 333.074 358.045 337.438L341.948 369.082C333.058 364.714 329.449 354.088 333.893 345.353ZM331.994 282.52V141.054C331.994 136.363 330.097 131.858 326.722 128.542C323.768 125.642 319.898 123.853 315.779 123.451L313.999 123.36H296.004L295.912 125.174C295.051 133.496 288.312 140.118 279.841 140.962L277.995 141.054H242.005C232.685 141.054 225.01 134.091 224.088 125.174L223.996 123.36H206.001C201.229 123.36 196.654 125.227 193.278 128.542C189.903 131.858 188.006 136.363 188.006 141.054V282.52C188.006 292.287 179.938 300.214 169.997 300.214C160.058 300.211 152.002 292.286 152.002 282.52V141.054C152.002 126.982 157.694 113.479 167.822 103.53C177.948 93.5832 191.682 88 206.001 88H313.999L316.675 88.0648C330.021 88.7152 342.685 94.2048 352.178 103.53C362.306 113.479 367.998 126.982 367.998 141.054V282.52C367.998 292.286 359.942 300.211 350.003 300.214C340.062 300.214 331.994 292.287 331.994 282.52Z" fill="white"/>
</g>
<defs>
<clipPath id="clip0_320_1178">
<rect width="512" height="512" fill="white"/>
</clipPath>
</defs>
</svg>
