<svg width="512" height="512" viewBox="0 0 512 512" fill="none" xmlns="http://www.w3.org/2000/svg">
<g clip-path="url(#clip0_321_1346)">
<path d="M512 0H0V512H512V0Z" fill="url(#paint0_linear_321_1346)"/>
<path d="M332.562 168.5V157.562C332.562 137.257 324.496 117.783 310.138 103.425C295.78 89.0664 276.306 81 256 81C235.694 81 216.22 89.0664 201.862 103.425C187.504 117.783 179.438 137.257 179.438 157.562V168.5H102.875V387.25C102.875 398.853 107.484 409.981 115.689 418.186C123.894 426.391 135.022 431 146.625 431H365.375C376.978 431 388.106 426.391 396.311 418.186C404.516 409.981 409.125 398.853 409.125 387.25V168.5H332.562ZM256 102.875C270.504 102.875 284.414 108.637 294.67 118.893C304.926 129.148 310.688 143.058 310.688 157.562V168.5H201.312V157.562C201.312 143.058 207.074 129.148 217.33 118.893C227.586 108.637 241.496 102.875 256 102.875ZM256 255.847C292.4 218.419 383.422 283.913 256 368.109C128.578 283.891 219.6 218.419 256 255.847Z" fill="white"/>
</g>
<defs>
<linearGradient id="paint0_linear_321_1346" x1="-0.00418679" y1="-0.00556786" x2="362.034" y2="362.033" gradientUnits="userSpaceOnUse">
<stop stop-color="#8E2DE2"/>
<stop offset="1" stop-color="#4A00E0"/>
</linearGradient>
<clipPath id="clip0_321_1346">
<rect width="512" height="512" fill="white"/>
</clipPath>
</defs>
</svg>
