<svg width="512" height="512" viewBox="0 0 512 512" fill="none" xmlns="http://www.w3.org/2000/svg">
<g clip-path="url(#clip0_326_2297)">
<path d="M512 0H0V512H512V0Z" fill="#3764E4"/>
<path fill-rule="evenodd" clip-rule="evenodd" d="M256.001 173C264.837 173 272 179.926 272 188.47V306.531C272 315.074 264.837 322 256.001 322C247.164 322 240 315.074 240 306.531V188.47C240 179.926 247.164 173 256.001 173Z" fill="#FFD93B"/>
<path fill-rule="evenodd" clip-rule="evenodd" d="M256 149.497C199.49 149.497 153.678 193.374 153.678 247.501C153.678 301.627 199.49 345.504 256 345.504C312.512 345.504 358.324 301.627 358.324 247.501C358.324 193.374 312.512 149.497 256 149.497ZM102 247.501C102 166.038 170.948 100 256 100C341.052 100 410 166.038 410 247.501C410 328.962 341.052 395 256 395C170.948 395 102 328.962 102 247.501Z" fill="white"/>
<path fill-rule="evenodd" clip-rule="evenodd" d="M512 149.497C484.864 149.497 458.837 159.822 439.647 178.201C420.458 196.581 409.679 221.509 409.679 247.501C409.679 273.493 420.458 298.42 439.647 316.8C458.837 335.178 484.864 345.504 512 345.504V395C471.154 395 431.987 379.461 403.104 351.799C374.224 324.137 358 286.619 358 247.501C358 208.381 374.224 170.864 403.104 143.202C431.987 115.54 471.154 100 512 100V149.497Z" fill="white"/>
<path fill-rule="evenodd" clip-rule="evenodd" d="M0 100C40.8438 100 80.0132 115.54 108.894 143.202C137.774 170.864 154 208.381 154 247.501C154 286.619 137.774 324.137 108.894 351.799C80.0132 379.461 40.8438 395 0 395V345.504C27.1375 345.504 53.1624 335.178 72.352 316.8C91.5413 298.42 102.322 273.493 102.322 247.501C102.322 221.509 91.5413 196.581 72.352 178.201C53.1624 159.822 27.1375 149.497 0 149.497V100Z" fill="white"/>
<path d="M321.233 443.471L279 358.194L325.613 337L367.844 422.335C368.518 423.688 368.907 425.15 368.985 426.646C369.063 428.139 368.835 429.635 368.307 431.042C367.779 432.45 366.966 433.745 365.913 434.849C364.858 435.953 363.587 436.846 362.174 437.476L337.091 448.91C334.236 450.198 330.961 450.352 327.987 449.333C325.014 448.314 322.585 446.204 321.233 443.471Z" fill="white"/>
<path fill-rule="evenodd" clip-rule="evenodd" d="M313.001 197C321.837 197 329 203.859 329 212.322V244.678C329 253.141 321.837 260 313.001 260C304.164 260 297 253.141 297 244.678V212.322C297 203.859 304.164 197 313.001 197Z" fill="#53CF78"/>
<path fill-rule="evenodd" clip-rule="evenodd" d="M199.001 215C207.837 215 215 221.968 215 230.564V263.436C215 272.031 207.837 279 199.001 279C190.164 279 183 272.031 183 263.436V230.564C183 221.968 190.164 215 199.001 215Z" fill="#FFBDD7"/>
<path fill-rule="evenodd" clip-rule="evenodd" d="M59 195C67.8367 195 75 201.969 75 210.564V243.436C75 252.032 67.8367 259 59 259C50.1637 259 43 252.032 43 243.436V210.564C43 201.969 50.1637 195 59 195Z" fill="#53CF78"/>
<path fill-rule="evenodd" clip-rule="evenodd" d="M457.5 232C466.613 232 474 238.968 474 247.564V280.436C474 289.031 466.613 296 457.5 296C448.387 296 441 289.031 441 280.436V247.564C441 238.968 448.387 232 457.5 232Z" fill="#FFBDD7"/>
</g>
<defs>
<clipPath id="clip0_326_2297">
<rect width="512" height="512" fill="white"/>
</clipPath>
</defs>
</svg>
