<svg width="512" height="512" viewBox="0 0 512 512" fill="none" xmlns="http://www.w3.org/2000/svg">
<g clip-path="url(#clip0_317_595)">
<mask id="mask0_317_595" style="mask-type:luminance" maskUnits="userSpaceOnUse" x="0" y="0" width="512" height="512">
<path d="M512 0H0V512H512V0Z" fill="white"/>
</mask>
<g mask="url(#mask0_317_595)">
<path d="M512 0H0V512H512V0Z" fill="url(#paint0_linear_317_595)"/>
<path fill-rule="evenodd" clip-rule="evenodd" d="M153.334 124C141.665 124 130.473 128.636 122.222 136.887C113.97 145.139 109.334 156.33 109.334 168V314.666C109.334 322.446 112.425 329.907 117.926 335.409C123.427 340.91 130.888 344 138.668 344V168C138.668 164.11 140.213 160.38 142.964 157.629C145.714 154.878 149.444 153.334 153.334 153.334H358.668C358.668 145.554 355.577 138.093 350.076 132.591C344.575 127.09 337.114 124 329.334 124H153.334ZM153.334 197.334C153.334 189.554 156.425 182.093 161.926 176.591C167.427 171.09 174.888 168 182.668 168H373.334C381.114 168 388.575 171.09 394.076 176.591C399.577 182.093 402.668 189.554 402.668 197.334V363.55C402.668 371.33 399.577 378.791 394.076 384.293C388.575 389.794 381.114 392.884 373.334 392.884H182.668C174.888 392.884 167.427 389.794 161.926 384.293C156.425 378.791 153.334 371.33 153.334 363.55V197.334ZM373.334 197.334H182.668V312.438L239.105 256C240.808 254.297 242.828 252.946 245.053 252.025C247.278 251.103 249.663 250.629 252.07 250.629C254.478 250.629 256.863 251.103 259.088 252.025C261.312 252.946 263.333 254.297 265.036 256L312.57 303.52L325.536 290.57C327.238 288.866 329.26 287.515 331.484 286.594C333.708 285.672 336.093 285.198 338.501 285.198C340.909 285.198 343.293 285.672 345.518 286.594C347.743 287.515 349.764 288.866 351.467 290.57L373.334 312.438V197.334ZM344.001 241.334C344.001 247.168 341.684 252.764 337.557 256.89C333.432 261.015 327.836 263.334 322.001 263.334C316.166 263.334 310.571 261.015 306.444 256.89C302.319 252.764 300.001 247.168 300.001 241.334C300.001 235.498 302.319 229.902 306.444 225.777C310.571 221.651 316.166 219.334 322.001 219.334C327.836 219.334 333.432 221.651 337.557 225.777C341.684 229.902 344.001 235.498 344.001 241.334Z" fill="white"/>
</g>
</g>
<defs>
<linearGradient id="paint0_linear_317_595" x1="-0.00418679" y1="-0.00556786" x2="362.034" y2="362.033" gradientUnits="userSpaceOnUse">
<stop stop-color="#8E2DE2"/>
<stop offset="1" stop-color="#4A00E0"/>
</linearGradient>
<clipPath id="clip0_317_595">
<rect width="512" height="512" fill="white"/>
</clipPath>
</defs>
</svg>
