<svg width="512" height="512" viewBox="0 0 512 512" fill="none" xmlns="http://www.w3.org/2000/svg">
<g clip-path="url(#clip0_323_1724)">
<path d="M512 0H0V512H512V0Z" fill="#FFDE00"/>
<path d="M143 362.659H158.963C167.161 362.659 172.337 357.37 172.337 348.995V162.099C172.337 153.724 167.161 148.434 158.963 148.434H143V107H258.625C320.751 107 369.933 139.178 369.933 200.449C369.933 262.158 320.751 294.338 258.625 294.338H218.933V348.995C218.933 357.37 224.109 362.659 232.738 362.659H265.095V404.535H143V362.659ZM255.172 251.138C296.159 251.138 319.887 233.507 319.887 201.329C319.887 168.27 296.159 151.52 255.172 151.52H218.933V251.58H255.172V251.138Z" fill="black"/>
</g>
<defs>
<clipPath id="clip0_323_1724">
<rect width="512" height="512" fill="white"/>
</clipPath>
</defs>
</svg>
