<svg width="512" height="512" viewBox="0 0 512 512" fill="none" xmlns="http://www.w3.org/2000/svg">
<g clip-path="url(#clip0_326_2343)">
<path d="M512 0H0V512H512V0Z" fill="#005696"/>
<g clip-path="url(#clip1_326_2343)">
<path d="M157.637 107.01V405.99H147.177V107.01H157.637ZM137.055 138.021V374.642H126.257V138.021H137.055ZM115.46 169.031V344.306H105V169.031H115.46ZM334.443 437V261.725H178.557V437H168.097V76H178.557V251.275H334.443V76H344.903V437H334.443ZM355.7 406.327V107.347H366.16V406.327H355.7ZM376.283 374.979V138.358H386.743V374.979H376.283ZM397.54 344.306V169.031H408V344.306H397.54ZM313.523 240.489H198.802H188.342V106.673H198.802V230.04H313.523V106.673H324.321V240.489H313.523ZM299.014 219.591H220.059H209.599V137.683H220.059V209.142H292.941V137.683H303.401V219.591H299.014ZM275.733 199.367H240.304H229.844V168.694H240.304V188.918H271.684V168.694H282.144V199.367C282.481 199.367 275.733 199.367 275.733 199.367ZM198.802 271.5H313.523H323.983V405.316H313.523V282.286H198.802V405.653H188.342V271.837C188.342 271.837 199.139 271.837 198.802 271.5ZM213.648 292.398H292.604H303.063V374.305H292.604V303.184H219.722V374.642H209.262V292.735C209.262 292.735 213.648 292.735 213.648 292.398ZM236.592 312.622H272.021H282.481V343.295H272.021V323.071H240.641V343.295H230.182V312.622C230.182 312.959 236.592 312.959 236.592 312.622Z" fill="white"/>
</g>
</g>
<defs>
<clipPath id="clip0_326_2343">
<rect width="512" height="512" fill="white"/>
</clipPath>
<clipPath id="clip1_326_2343">
<rect width="303" height="361" fill="white" transform="translate(105 76)"/>
</clipPath>
</defs>
</svg>
