<svg width="15" height="15" viewBox="0 0 15 15" fill="none" xmlns="http://www.w3.org/2000/svg">
<path
    d="M9.53125 9.33018C10.0548 9.33018 10.4792 9.74041 10.4792 10.2465V11.2947L10.4749 11.3514C10.3066 12.4647 9.27207 13 7.53618 13C5.80654 13 4.75554 12.4708 4.52867 11.3704L4.52083 11.2936V10.2465C4.52083 9.74041 4.94523 9.33018 5.46875 9.33018H9.53125ZM9.79879 6.18863L13.0521 6.18867C13.5756 6.18867 14 6.5989 14 7.10495V8.15315L13.9957 8.20994C13.8274 9.32319 12.7929 9.85849 11.057 9.85849L10.9659 9.85766C10.7988 9.28019 10.2685 8.84932 9.6281 8.80959L9.53125 8.80659L9.03171 8.80697C9.58422 8.37504 9.9375 7.71442 9.9375 6.97405C9.9375 6.69865 9.88862 6.43429 9.79879 6.18863ZM1.94792 6.18867L5.20122 6.18863C5.11138 6.43429 5.0625 6.69865 5.0625 6.97405C5.0625 7.67087 5.37544 8.29704 5.87289 8.72841L5.96829 8.80697L5.46875 8.80659C4.78506 8.80659 4.20894 9.25183 4.0338 9.8587L4.01534 9.85849C2.28571 9.85849 1.2347 9.32931 1.00783 8.22886L1 8.15211V7.10495C1 6.5989 1.4244 6.18867 1.94792 6.18867ZM7.5 5.14151C8.54704 5.14151 9.39583 5.96196 9.39583 6.97405C9.39583 7.98614 8.54704 8.80659 7.5 8.80659C6.45296 8.80659 5.60417 7.98614 5.60417 6.97405C5.60417 5.96196 6.45296 5.14151 7.5 5.14151ZM11.0208 2C12.0679 2 12.9167 2.82046 12.9167 3.83254C12.9167 4.84463 12.0679 5.66509 11.0208 5.66509C9.97379 5.66509 9.125 4.84463 9.125 3.83254C9.125 2.82046 9.97379 2 11.0208 2ZM3.97917 2C5.02621 2 5.875 2.82046 5.875 3.83254C5.875 4.84463 5.02621 5.66509 3.97917 5.66509C2.93213 5.66509 2.08333 4.84463 2.08333 3.83254C2.08333 2.82046 2.93213 2 3.97917 2Z"
    fill="currentColor"
  />
</svg>
