<svg width="15" height="15" viewBox="0 0 15 15" fill="none" xmlns="http://www.w3.org/2000/svg">
<g clip-path="url(#clip0_3761_4717)">
<path d="M4.611 5.49999H6.38878M4.611 8.16665H10.3888M4.611 10.8333H10.3888M12.9754 5.05554H9.94434C9.45367 5.05554 9.05545 4.65732 9.05545 4.16665V1.14621M1.94434 12.1667V2.83332C1.94434 1.8511 2.73989 1.05554 3.72211 1.05554H8.68745C8.923 1.05554 9.14967 1.14888 9.31589 1.31599L12.795 4.7951C12.9621 4.96221 13.0554 5.18799 13.0554 5.42354V12.1667C13.0554 13.1489 12.2599 13.9444 11.2777 13.9444H3.72211C2.73989 13.9444 1.94434 13.1489 1.94434 12.1667Z" stroke="#52525B" stroke-width="1.3" stroke-linecap="round" stroke-linejoin="round"/>
</g>
<defs>
<clipPath id="clip0_3761_4717">
<rect width="15" height="15" fill="white"/>
</clipPath>
</defs>
</svg>
