<svg viewBox="0 0 488 129" fill="none" xmlns="http://www.w3.org/2000/svg">
<path
    d="M188.392 125.301C182.852 125.301 178.094 124.548 174.116 123.043C170.139 121.565 166.943 119.577 164.528 117.077C162.114 114.577 160.437 111.807 159.5 108.767L173.392 105.401C174.017 106.679 174.926 107.943 176.119 109.193C177.312 110.472 178.918 111.523 180.935 112.347C182.98 113.199 185.551 113.625 188.648 113.625C193.023 113.625 196.645 112.56 199.514 110.429C202.384 108.327 203.818 104.861 203.818 100.031V87.6307H203.051C202.256 89.2216 201.091 90.8551 199.557 92.5312C198.051 94.2074 196.048 95.6136 193.548 96.75C191.077 97.8864 187.966 98.4545 184.216 98.4545C179.187 98.4545 174.628 97.2756 170.537 94.9176C166.474 92.5313 163.236 88.9801 160.821 84.2642C158.435 79.5199 157.241 73.5824 157.241 66.4517C157.241 59.2642 158.435 53.1989 160.821 48.2557C163.236 43.2841 166.489 39.5199 170.58 36.9631C174.67 34.3778 179.23 33.0852 184.259 33.0852C188.094 33.0852 191.247 33.7386 193.719 35.0455C196.219 36.3239 198.207 37.8722 199.685 39.6903C201.162 41.4801 202.284 43.1705 203.051 44.7614H203.903V33.9375H219.116V100.457C219.116 106.054 217.781 110.685 215.111 114.349C212.44 118.014 208.79 120.756 204.159 122.574C199.528 124.392 194.273 125.301 188.392 125.301ZM188.52 86.3523C191.787 86.3523 194.571 85.5568 196.872 83.9659C199.173 82.375 200.92 80.0881 202.114 77.1051C203.307 74.1222 203.903 70.5426 203.903 66.3665C203.903 62.2472 203.307 58.6392 202.114 55.5426C200.949 52.446 199.216 50.0455 196.915 48.3409C194.642 46.608 191.844 45.7415 188.52 45.7415C185.082 45.7415 182.213 46.6364 179.912 48.4261C177.611 50.2159 175.878 52.6733 174.713 55.7983C173.548 58.8949 172.966 62.4176 172.966 66.3665C172.966 70.3722 173.548 73.8807 174.713 76.892C175.906 79.875 177.653 82.2045 179.955 83.8807C182.284 85.5284 185.139 86.3523 188.52 86.3523Z"
    fill="currentColor"
  />
<path
    d="M263.477 100.67C257.085 100.67 251.545 99.2642 246.858 96.4517C242.17 93.6392 238.534 89.7045 235.949 84.6477C233.392 79.5909 232.114 73.6818 232.114 66.9205C232.114 60.1591 233.392 54.2358 235.949 49.1506C238.534 44.0653 242.17 40.1165 246.858 37.304C251.545 34.4915 257.085 33.0852 263.477 33.0852C269.869 33.0852 275.409 34.4915 280.097 37.304C284.784 40.1165 288.406 44.0653 290.963 49.1506C293.548 54.2358 294.841 60.1591 294.841 66.9205C294.841 73.6818 293.548 79.5909 290.963 84.6477C288.406 89.7045 284.784 93.6392 280.097 96.4517C275.409 99.2642 269.869 100.67 263.477 100.67ZM263.562 88.3125C267.028 88.3125 269.926 87.3608 272.256 85.4574C274.585 83.5256 276.318 80.9403 277.455 77.7017C278.619 74.4631 279.202 70.8551 279.202 66.8778C279.202 62.8722 278.619 59.25 277.455 56.0114C276.318 52.7443 274.585 50.1449 272.256 48.2131C269.926 46.2813 267.028 45.3153 263.562 45.3153C260.011 45.3153 257.057 46.2813 254.699 48.2131C252.369 50.1449 250.622 52.7443 249.457 56.0114C248.321 59.25 247.753 62.8722 247.753 66.8778C247.753 70.8551 248.321 74.4631 249.457 77.7017C250.622 80.9403 252.369 83.5256 254.699 85.4574C257.057 87.3608 260.011 88.3125 263.562 88.3125Z"
    fill="currentColor"
  />
<path
    d="M307.934 99.392V33.9375H322.891V44.8466H323.573C324.766 41.0682 326.812 38.1563 329.71 36.1108C332.636 34.0369 335.974 33 339.724 33C340.576 33 341.528 33.0426 342.579 33.1278C343.658 33.1847 344.553 33.2841 345.263 33.4261V47.6165C344.61 47.3892 343.573 47.1903 342.153 47.0199C340.761 46.821 339.411 46.7216 338.104 46.7216C335.292 46.7216 332.763 47.3324 330.519 48.554C328.303 49.7472 326.556 51.4091 325.278 53.5398C323.999 55.6705 323.36 58.1278 323.36 60.9119V99.392H307.934Z"
    fill="currentColor"
  />
<path
    d="M381.283 125.301C375.743 125.301 370.984 124.548 367.007 123.043C363.03 121.565 359.834 119.577 357.419 117.077C355.004 114.577 353.328 111.807 352.391 108.767L366.283 105.401C366.908 106.679 367.817 107.943 369.01 109.193C370.203 110.472 371.808 111.523 373.825 112.347C375.871 113.199 378.442 113.625 381.538 113.625C385.913 113.625 389.535 112.56 392.405 110.429C395.274 108.327 396.709 104.861 396.709 100.031V87.6307H395.942C395.146 89.2216 393.982 90.8551 392.447 92.5312C390.942 94.2074 388.939 95.6136 386.439 96.75C383.967 97.8864 380.857 98.4545 377.107 98.4545C372.078 98.4545 367.518 97.2756 363.428 94.9176C359.365 92.5313 356.126 88.9801 353.712 84.2642C351.325 79.5199 350.132 73.5824 350.132 66.4517C350.132 59.2642 351.325 53.1989 353.712 48.2557C356.126 43.2841 359.379 39.5199 363.47 36.9631C367.561 34.3778 372.121 33.0852 377.149 33.0852C380.984 33.0852 384.138 33.7386 386.609 35.0455C389.109 36.3239 391.098 37.8722 392.575 39.6903C394.053 41.4801 395.175 43.1705 395.942 44.7614H396.794V33.9375H412.007V100.457C412.007 106.054 410.672 110.685 408.001 114.349C405.331 118.014 401.68 120.756 397.05 122.574C392.419 124.392 387.163 125.301 381.283 125.301ZM381.41 86.3523C384.678 86.3523 387.462 85.5568 389.763 83.9659C392.064 82.375 393.811 80.0881 395.004 77.1051C396.197 74.1222 396.794 70.5426 396.794 66.3665C396.794 62.2472 396.197 58.6392 395.004 55.5426C393.839 52.446 392.107 50.0455 389.805 48.3409C387.533 46.608 384.734 45.7415 381.41 45.7415C377.973 45.7415 375.104 46.6364 372.803 48.4261C370.501 50.2159 368.768 52.6733 367.604 55.7983C366.439 58.8949 365.857 62.4176 365.857 66.3665C365.857 70.3722 366.439 73.8807 367.604 76.892C368.797 79.875 370.544 82.2045 372.845 83.8807C375.175 85.5284 378.03 86.3523 381.41 86.3523Z"
    fill="currentColor"
  />
<path
    d="M456.368 100.67C449.976 100.67 444.436 99.2642 439.749 96.4517C435.061 93.6392 431.425 89.7045 428.839 84.6477C426.283 79.5909 425.004 73.6818 425.004 66.9205C425.004 60.1591 426.283 54.2358 428.839 49.1506C431.425 44.0653 435.061 40.1165 439.749 37.304C444.436 34.4915 449.976 33.0852 456.368 33.0852C462.76 33.0852 468.3 34.4915 472.987 37.304C477.675 40.1165 481.297 44.0653 483.854 49.1506C486.439 54.2358 487.732 60.1591 487.732 66.9205C487.732 73.6818 486.439 79.5909 483.854 84.6477C481.297 89.7045 477.675 93.6392 472.987 96.4517C468.3 99.2642 462.76 100.67 456.368 100.67ZM456.453 88.3125C459.919 88.3125 462.817 87.3608 465.146 85.4574C467.476 83.5256 469.209 80.9403 470.345 77.7017C471.51 74.4631 472.092 70.8551 472.092 66.8778C472.092 62.8722 471.51 59.25 470.345 56.0114C469.209 52.7443 467.476 50.1449 465.146 48.2131C462.817 46.2813 459.919 45.3153 456.453 45.3153C452.902 45.3153 449.947 46.2813 447.589 48.2131C445.26 50.1449 443.513 52.7443 442.348 56.0114C441.212 59.25 440.643 62.8722 440.643 66.8778C440.643 70.8551 441.212 74.4631 442.348 77.7017C443.513 80.9403 445.26 83.5256 447.589 85.4574C449.947 87.3608 452.902 88.3125 456.453 88.3125Z"
    fill="currentColor"
  />
<path
    d="M83.2554 41.8747L68.0767 33.1459C63.1104 30.2828 57.0249 30.2828 52.0586 33.1459L36.8099 41.8747C31.9136 44.7378 28.8359 50.045 28.8359 55.7013V73.2289C28.8359 78.955 31.9136 84.1923 36.8099 87.0554L51.9887 95.8541C56.955 98.7172 63.0404 98.7172 68.0068 95.8541L83.1855 87.0554C88.1518 84.1923 91.1596 78.955 91.1596 73.2289V55.7013C91.2994 50.045 88.2217 44.7378 83.2554 41.8747Z"
    fill="currentColor"
  />
<path
    d="M47.6866 22.5906C47.6866 29.0449 42.4543 34.2771 36 34.2771C29.5457 34.2771 24.3135 29.0449 24.3135 22.5906C24.3135 16.1363 29.5457 10.904 36 10.904C42.4543 10.904 47.6866 16.1363 47.6866 22.5906Z"
    fill="currentColor"
  />
<path
    d="M25.7125 38.3261C25.7125 44.7804 20.4802 50.0126 14.0259 50.0126C7.57163 50.0126 2.33938 44.7804 2.33938 38.3261C2.33938 31.8718 7.57163 26.6395 14.0259 26.6395C20.4802 26.6395 25.7125 31.8718 25.7125 38.3261Z"
    fill="currentColor"
  />
<path
    d="M23.3731 64.5C23.3731 70.9543 18.1408 76.1865 11.6865 76.1865C5.23225 76.1865 0 70.9543 0 64.5C0 58.0457 5.23225 52.8134 11.6865 52.8134C18.1408 52.8134 23.3731 58.0457 23.3731 64.5Z"
    fill="currentColor"
  />
<path
    d="M25.8684 90.8297C25.8684 97.284 20.6361 102.516 14.1818 102.516C7.72754 102.516 2.49529 97.284 2.49529 90.8297C2.49529 84.3754 7.72754 79.1432 14.1818 79.1432C20.6361 79.1432 25.8684 84.3754 25.8684 90.8297Z"
    fill="currentColor"
  />
<path
    d="M47.6866 106.409C47.6866 112.864 42.4543 118.096 36 118.096C29.5457 118.096 24.3135 112.864 24.3135 106.409C24.3135 99.9551 29.5457 94.7229 36 94.7229C42.4543 94.7229 47.6866 99.9551 47.6866 106.409Z"
    fill="currentColor"
  />
<path
    d="M71.6865 117.313C71.6865 123.768 66.4543 129 60 129C53.5457 129 48.3134 123.768 48.3134 117.313C48.3134 110.859 53.5457 105.627 60 105.627C66.4543 105.627 71.6865 110.859 71.6865 117.313Z"
    fill="currentColor"
  />
<path
    d="M95.6865 106.409C95.6865 112.864 90.4543 118.096 84 118.096C77.5457 118.096 72.3134 112.864 72.3134 106.409C72.3134 99.9551 77.5457 94.7229 84 94.7229C90.4543 94.7229 95.6865 99.9551 95.6865 106.409Z"
    fill="currentColor"
  />
<path
    d="M117.661 90.6739C117.661 97.1282 112.428 102.36 105.974 102.36C99.5197 102.36 94.2875 97.1282 94.2875 90.6739C94.2875 84.2196 99.5197 78.9874 105.974 78.9874C112.428 78.9874 117.661 84.2196 117.661 90.6739Z"
    fill="currentColor"
  />
<path
    d="M120 64.5C120 70.9543 114.768 76.1865 108.313 76.1865C101.859 76.1865 96.6269 70.9543 96.6269 64.5C96.6269 58.0457 101.859 52.8134 108.313 52.8134C114.768 52.8134 120 58.0457 120 64.5Z"
    fill="currentColor"
  />
<path
    d="M117.816 38.1703C117.816 44.6246 112.584 49.8568 106.13 49.8568C99.6756 49.8568 94.4434 44.6246 94.4434 38.1703C94.4434 31.716 99.6756 26.4837 106.13 26.4837C112.584 26.4837 117.816 31.716 117.816 38.1703Z"
    fill="currentColor"
  />
<path
    d="M95.6865 22.4348C95.6865 28.8891 90.4543 34.1213 84 34.1213C77.5457 34.1213 72.3134 28.8891 72.3134 22.4348C72.3134 15.9805 77.5457 10.7482 84 10.7482C90.4543 10.7482 95.6865 15.9805 95.6865 22.4348Z"
    fill="currentColor"
  />
<path
    d="M71.6865 11.6865C71.6865 18.1408 66.4543 23.3731 60 23.3731C53.5457 23.3731 48.3134 18.1408 48.3134 11.6865C48.3134 5.23225 53.5457 0 60 0C66.4543 0 71.6865 5.23225 71.6865 11.6865Z"
    fill="currentColor"
  />
</svg>
