<svg width="512" height="512" viewBox="0 0 512 512" fill="none" xmlns="http://www.w3.org/2000/svg">
<g clip-path="url(#clip0_323_1503)">
<mask id="mask0_323_1503" style="mask-type:luminance" maskUnits="userSpaceOnUse" x="0" y="0" width="512" height="512">
<path d="M512 0H0V512H512V0Z" fill="white"/>
</mask>
<g mask="url(#mask0_323_1503)">
<path d="M512 0H0V512H512V0Z" fill="#B3B2B1"/>
<path fill-rule="evenodd" clip-rule="evenodd" d="M187.431 179.895C185.332 177.67 182.306 175.941 178.971 174.581C175.452 173.222 171.562 172.233 167.733 171.554C162.917 170.688 158.223 170.318 154.889 170.194C151.802 170.07 149.826 170.07 149.826 170.07H107.589H76.1579L48 340.242H74.3054L84.6792 277.215L135.685 277.462C135.685 277.462 155.568 278.266 169.647 270.789C183.726 263.312 187.493 246.32 187.493 246.32C187.493 246.32 189.037 240.018 190.334 232.355C191.754 223.89 193.174 213.756 193.915 208.381C194.224 206.033 194.409 204.55 194.409 204.55C194.409 204.55 194.779 202.819 194.779 200.101C194.841 196.331 194.286 190.646 191.322 185.209C190.272 183.294 189.037 181.563 187.431 179.895ZM167.178 209.926C167.178 210.234 164.83 223.89 161.743 240.079C160.57 246.258 155.815 249.594 150.382 250.769C141.366 252.684 131.671 252.314 131.671 252.314L89.064 252.19L98.4496 195.652L137.043 195.775C137.043 195.775 139.637 195.714 143.28 195.775C147.418 195.837 152.913 196.022 157.421 196.64C161.311 197.134 164.398 197.938 165.386 199.174C166.683 200.78 167.178 202.882 167.362 204.735C167.61 207.454 167.178 209.74 167.178 209.926Z" fill="#D13239"/>
<path fill-rule="evenodd" clip-rule="evenodd" d="M199.71 229.699L226.324 229.76L227.929 219.442C227.929 219.442 230.77 200.781 237.13 197.197C239.168 196.023 242.441 194.972 246.208 194.293C253.185 193.057 262.016 192.933 269.24 193.18C280.293 193.552 284.493 193.675 295.731 194.972C306.969 196.27 304.129 207.145 304.129 207.145L301.906 223.396C301.906 223.396 300.918 230.688 298.325 235.198C296.04 239.215 289.741 241.933 286.098 243.108C277.329 245.95 247.319 253.612 247.319 253.612L223.73 260.408C223.73 260.408 209.219 264.611 201.13 273.57C192.979 282.592 189.768 292.787 188.657 298.101C187.545 303.415 181.309 340.18 181.309 340.18L308.637 340.242L312.897 314.784L212.183 314.908L213.974 304.527C213.974 304.527 215.147 293.837 219.47 290.316C220.829 289.203 221.508 287.72 229.535 284.878C234.352 283.148 250.777 278.76 250.777 278.76L288.753 268.38C288.753 268.38 309.501 263.066 317.652 251.696C325.803 240.388 328.953 218.7 328.953 218.7C328.953 218.7 331.175 197.63 329.446 191.018C327.779 184.407 321.542 176.497 313.947 173.099C306.352 169.7 298.448 167.723 275.539 168.032C252.629 168.341 241.268 169.392 229.658 173.716C218.049 177.98 211.319 185.766 207.058 196.764C202.427 207.207 199.71 229.699 199.71 229.699Z" fill="white"/>
<path fill-rule="evenodd" clip-rule="evenodd" d="M439.423 277.029L457.269 170.008H425.653L327.223 275.793L322.777 302.61H408.857L402.558 340.179L428.987 340.241L435.224 302.61L459.615 302.672L463.999 277.029H439.423ZM413.117 277.09L357.481 277.029L425.22 204.796L413.117 277.09Z" fill="white"/>
</g>
</g>
<defs>
<clipPath id="clip0_323_1503">
<rect width="512" height="512" fill="white"/>
</clipPath>
</defs>
</svg>
