<svg width="512" height="512" viewBox="0 0 512 512" fill="none" xmlns="http://www.w3.org/2000/svg">
<g clip-path="url(#clip0_330_2558)">
<path d="M512 0H0V512H512V0Z" fill="#F3E4E0"/>
<g clip-path="url(#clip1_330_2558)">
<path d="M256.5 96C254.676 96 253.035 96.3647 251.576 97.0942L125.93 165.662L266.712 247.542C267.989 248.271 269.083 249.912 269.083 251.554V371C269.083 372.641 268.171 374.1 266.712 375.012L259.053 379.206C258.324 379.571 257.594 379.753 256.865 379.753H256.682C255.771 379.753 255.041 379.571 254.312 379.206L246.653 375.012C245.194 374.1 244.464 372.641 244.282 371V264.319C244.099 263.407 243.735 262.678 243.005 262.313L119 190.098V331.428C119 334.528 121.188 338.54 123.924 339.999L251.576 415.314C253.035 416.043 254.859 416.59 256.5 416.59C258.141 416.59 259.965 416.225 261.424 415.314L389.076 339.999C391.994 337.993 393.818 334.893 394 331.428V190.098L309.932 238.971C308.473 239.7 306.832 239.7 305.373 238.971L298.078 234.594C297.349 234.229 296.802 233.5 296.437 232.953V232.771C295.89 232.041 295.708 231.312 295.708 230.4L295.525 221.647C295.525 220.005 296.437 218.546 297.714 217.635L387.253 165.479L261.606 97.0942C259.965 96.3647 258.324 96 256.5 96Z" fill="url(#paint0_linear_330_2558)"/>
</g>
</g>
<defs>
<linearGradient id="paint0_linear_330_2558" x1="119.228" y1="256.328" x2="394.365" y2="256.328" gradientUnits="userSpaceOnUse">
<stop stop-color="#F25C19"/>
<stop offset="0.379" stop-color="#F25C19"/>
<stop offset="1" stop-color="#FAB217"/>
</linearGradient>
<clipPath id="clip0_330_2558">
<rect width="512" height="512" fill="white"/>
</clipPath>
<clipPath id="clip1_330_2558">
<rect width="275" height="320.59" fill="white" transform="translate(119 96)"/>
</clipPath>
</defs>
</svg>
