<svg width="512" height="512" viewBox="0 0 512 512" fill="none" xmlns="http://www.w3.org/2000/svg">
<g clip-path="url(#clip0_320_1231)">
<path d="M512 0H0V512H512V0Z" fill="url(#paint0_linear_320_1231)"/>
<path d="M299.932 121.057C299.321 120.567 298.62 120.203 297.867 119.985C297.115 119.768 296.327 119.701 295.549 119.79C294.771 119.878 294.018 120.119 293.333 120.5C292.649 120.88 292.046 121.393 291.561 122.007L236.9 191.024H206.607L272.952 107.258C275.381 104.192 278.391 101.635 281.81 99.7356C285.23 97.8361 288.991 96.631 292.877 96.1896C296.764 95.7482 300.699 96.0792 304.457 97.1636C308.215 98.2479 311.722 100.064 314.776 102.508L375.897 151.469C381.676 156.099 385.516 162.723 386.663 170.039C387.81 177.355 386.181 184.836 382.096 191.013H351.054L361.825 178.52C362.346 177.916 362.741 177.213 362.984 176.453C363.228 175.693 363.316 174.891 363.243 174.096C363.17 173.302 362.937 172.53 362.559 171.827C362.18 171.124 361.664 170.505 361.041 170.006L331.306 146.184L296.061 191.024H265.851L312.757 131.341L299.932 121.057ZM137.625 155.399C128.177 155.399 119.115 159.153 112.434 165.834C105.753 172.515 102 181.576 102 191.024V363.212C102 377.384 107.63 390.977 117.651 400.998C127.673 411.019 141.265 416.649 155.438 416.649H357.312C371.485 416.649 385.077 411.019 395.099 400.998C405.12 390.977 410.75 377.384 410.75 363.212V256.337C410.75 242.164 405.12 228.572 395.099 218.551C385.077 208.529 371.485 202.899 357.312 202.899H137.625C134.476 202.899 131.455 201.648 129.228 199.421C127.001 197.194 125.75 194.174 125.75 191.024C125.75 187.875 127.001 184.855 129.228 182.628C131.455 180.401 134.476 179.149 137.625 179.149H192.012L210.965 155.399H137.625ZM315.75 297.899H351.375C354.524 297.899 357.545 299.151 359.772 301.378C361.999 303.605 363.25 306.625 363.25 309.774C363.25 312.924 361.999 315.944 359.772 318.171C357.545 320.398 354.524 321.649 351.375 321.649H315.75C312.601 321.649 309.58 320.398 307.353 318.171C305.126 315.944 303.875 312.924 303.875 309.774C303.875 306.625 305.126 303.605 307.353 301.378C309.58 299.151 312.601 297.899 315.75 297.899Z" fill="white"/>
</g>
<defs>
<linearGradient id="paint0_linear_320_1231" x1="-0.00418679" y1="-0.00556786" x2="362.034" y2="362.033" gradientUnits="userSpaceOnUse">
<stop stop-color="#8E2DE2"/>
<stop offset="1" stop-color="#4A00E0"/>
</linearGradient>
<clipPath id="clip0_320_1231">
<rect width="512" height="512" fill="white"/>
</clipPath>
</defs>
</svg>
