<svg width="512" height="512" viewBox="0 0 512 512" fill="none" xmlns="http://www.w3.org/2000/svg">
<g clip-path="url(#clip0_318_923)">
<path d="M512 0H0V512H512V0Z" fill="white"/>
<path d="M220.137 135.99C217.39 135.99 214.734 136.97 212.646 138.753C210.558 140.536 209.175 143.005 208.746 145.716L189.815 265.693L172.421 375.936L172.41 376.029L172.431 375.936L189.825 265.693C190.709 260.089 195.536 255.966 201.209 255.966H256.67C312.485 255.966 359.859 215.267 368.511 160.116C369.17 155.925 369.523 151.775 369.603 147.679V147.673H369.597C355.412 140.235 338.756 135.99 320.505 135.99H220.137Z" fill="#001C64"/>
<path d="M369.6 147.676C369.522 151.772 369.165 155.926 368.508 160.116C359.856 215.268 312.482 255.967 256.667 255.967H201.207C195.533 255.967 190.706 260.09 189.822 265.693L172.428 375.937L161.512 445.103C161.302 446.439 161.384 447.805 161.752 449.106C162.12 450.408 162.766 451.614 163.646 452.642C164.525 453.67 165.617 454.496 166.846 455.062C168.074 455.628 169.411 455.921 170.765 455.921H230.964C233.71 455.921 236.367 454.942 238.455 453.159C240.543 451.376 241.926 448.906 242.354 446.195L258.213 345.677C259.101 340.074 263.93 335.945 269.604 335.945H305.051C360.866 335.945 408.234 295.248 416.885 240.1C423.027 200.95 403.314 165.335 369.6 147.676Z" fill="#0070E0"/>
<path d="M151.743 56C148.995 56.0001 146.338 56.9806 144.25 58.7648C142.162 60.5491 140.779 63.02 140.352 65.7325L93.1148 365.112C92.9035 366.449 92.9846 367.815 93.3524 369.117C93.7203 370.42 94.3661 371.627 95.2455 372.655C96.1248 373.684 97.2169 374.51 98.4464 375.077C99.6759 375.643 101.014 375.936 102.367 375.937H172.42L189.814 265.693L208.745 145.717C209.174 143.005 210.556 140.536 212.645 138.753C214.733 136.97 217.389 135.99 220.136 135.99H320.5C338.755 135.99 355.411 140.242 369.598 147.669C370.564 97.4595 329.111 56 272.111 56H151.743Z" fill="#003087"/>
</g>
<defs>
<clipPath id="clip0_318_923">
<rect width="512" height="512" fill="white"/>
</clipPath>
</defs>
</svg>
