<svg width="512" height="512" viewBox="0 0 512 512" fill="none" xmlns="http://www.w3.org/2000/svg">
<g clip-path="url(#clip0_318_856)">
<path d="M512 0H0V512H512V0Z" fill="white"/>
<path d="M319.001 128.091V380.09C319.001 408.288 338.474 424 359.092 424C378.183 424 399.183 410.636 399.183 380.09V130C399.183 104.151 380.092 88 359.092 88C338.092 88 319.001 105.812 319.001 128.091Z" fill="#F9AB00"/>
<path d="M214.001 255.999V380.091C214.001 408.287 233.474 423.999 254.091 423.999C273.183 423.999 294.183 410.635 294.183 380.091V257.908C294.183 232.059 275.092 215.908 254.091 215.908C233.091 215.908 214.001 233.72 214.001 255.999Z" fill="#E37400"/>
<path d="M149.091 424C171.233 424 189.182 406.051 189.182 383.91C189.182 361.768 171.233 343.818 149.091 343.818C126.95 343.818 109 361.768 109 383.91C109 406.051 126.95 424 149.091 424Z" fill="#E37400"/>
</g>
<defs>
<clipPath id="clip0_318_856">
<rect width="512" height="512" fill="white"/>
</clipPath>
</defs>
</svg>
