<svg width="512" height="512" viewBox="0 0 512 512" fill="none" xmlns="http://www.w3.org/2000/svg">
<g clip-path="url(#clip0_325_2150)">
<mask id="mask0_325_2150" style="mask-type:luminance" maskUnits="userSpaceOnUse" x="0" y="0" width="512" height="512">
<path d="M512 0H0V512H512V0Z" fill="white"/>
</mask>
<g mask="url(#mask0_325_2150)">
<path d="M512 0H0V512H512V0Z" fill="white"/>
<path fill-rule="evenodd" clip-rule="evenodd" d="M256.595 88.0072C256.656 88.0088 256.717 88.0112 256.778 88.0136C275.558 88.728 284.58 93.0496 317.612 109.486C350.645 125.923 381.91 125.919 385.613 131.802C389.315 137.684 384.49 170.202 381.438 208.851C377.367 260.388 380.092 326.018 369.766 339.532C332.569 388.212 259.827 423.579 256.595 423.579C253.364 423.572 180.622 388.205 143.425 339.525C133.098 326.01 135.823 260.382 131.753 208.844C128.7 170.195 123.875 137.677 127.578 131.794C131.282 125.913 162.546 125.917 195.578 109.48C228.611 93.0432 237.633 88.7208 256.414 88.0072C256.474 88.0048 256.535 88.0096 256.595 88.0072Z" fill="url(#paint0_linear_325_2150)"/>
<path fill-rule="evenodd" clip-rule="evenodd" d="M379.688 239.157H255.939V88C256.001 88.0024 256.062 88.008 256.123 88.0104C274.998 88.724 284.065 93.0464 317.263 109.483C350.463 125.92 381.885 125.916 385.607 131.798C389.328 137.681 384.479 170.2 381.411 208.849C380.638 218.597 380.108 228.849 379.688 239.157ZM255.939 423.579C252.692 423.572 179.583 388.205 142.199 339.524C133.784 328.566 133.992 283.346 132.191 239.157H255.939V423.579Z" fill="url(#paint1_linear_325_2150)"/>
<path fill-rule="evenodd" clip-rule="evenodd" d="M56.0077 292.68C74.8506 296.224 88.4976 297.996 96.9496 297.996H122.666V346.23H96.9496C83.4944 346.23 69.8449 344.475 56 340.965L68.6069 318.351L56.0077 292.68Z" fill="#6165A0"/>
<path fill-rule="evenodd" clip-rule="evenodd" d="M122.54 298.629H122.666V346.229H120.813L101.516 322.429L122.54 298.629Z" fill="#292C55"/>
<path fill-rule="evenodd" clip-rule="evenodd" d="M455.993 292.68L443.394 318.351L456.001 340.965C442.156 344.475 428.506 346.23 415.052 346.23H389.334V297.996H415.052C423.503 297.996 437.151 296.224 455.993 292.68Z" fill="#6165A0"/>
<path fill-rule="evenodd" clip-rule="evenodd" d="M389.334 298.156L411.909 322.437L391.187 346.232H389.334V298.156Z" fill="#292C55"/>
<path fill-rule="evenodd" clip-rule="evenodd" d="M101.238 322.43C153.024 335.165 204.809 341.532 256.595 341.532C308.381 341.532 360.167 335.165 411.953 322.43V375.917C360.167 388.652 308.381 395.019 256.595 395.019C204.809 395.019 153.024 388.652 101.238 375.917V322.43Z" fill="#444884"/>
</g>
</g>
<defs>
<linearGradient id="paint0_linear_325_2150" x1="4790.09" y1="2620.17" x2="25132.4" y2="23167.4" gradientUnits="userSpaceOnUse">
<stop stop-color="#69C294"/>
<stop offset="1" stop-color="#69B3BD"/>
</linearGradient>
<linearGradient id="paint1_linear_325_2150" x1="26240.2" y1="4273.4" x2="-4348" y2="21388.6" gradientUnits="userSpaceOnUse">
<stop stop-color="#6091CF"/>
<stop offset="1" stop-color="#6A6BB0"/>
</linearGradient>
<clipPath id="clip0_325_2150">
<rect width="512" height="512" fill="white"/>
</clipPath>
</defs>
</svg>
