<svg width="512" height="512" viewBox="0 0 512 512" fill="none" xmlns="http://www.w3.org/2000/svg">
<g clip-path="url(#clip0_330_2523)">
<path d="M512 0H0V512H512V0Z" fill="url(#paint0_linear_330_2523)"/>
<g clip-path="url(#clip1_330_2523)">
<path d="M345.476 110H200.939C200.279 110 199.637 110.073 199.012 110.194C198.993 110.198 198.973 110.196 198.955 110.2C198.075 110.375 197.257 110.695 196.476 111.082C196.294 111.173 196.122 111.27 195.945 111.37C195.163 111.82 194.424 112.334 193.792 112.967L132.967 173.796C132.332 174.43 131.816 175.172 131.366 175.957C131.267 176.131 131.171 176.301 131.082 176.479C130.695 177.262 130.375 178.08 130.199 178.962C130.194 178.987 130.197 179.013 130.192 179.038C130.074 179.657 130 180.291 130 180.943V256.105H150.191V191.038H183.943C198.881 191.038 211.035 178.885 211.035 163.943V130.191H345.476C354.482 130.191 361.809 136.938 361.809 145.227V366.985C361.809 375.274 354.482 382.017 345.476 382.017H164.324C156.532 382.017 150.191 375.676 150.191 367.884V366.735H130V367.884C130 386.808 145.399 402.208 164.324 402.208H345.476C365.615 402.208 382 386.406 382 366.985V145.227C382 125.802 365.615 110 345.476 110Z" fill="white"/>
<path d="M145.836 314.837H139.777V331.545H130V285H145.836C155.673 285 160.589 291.432 160.589 299.984C160.589 307.677 156.071 314.837 145.836 314.837ZM145.093 305.82C148.981 305.82 150.64 303.565 150.64 299.984C150.64 296.406 148.981 294.151 145.093 294.151H139.777V305.82H145.093ZM201.746 308.274C201.746 322.062 193.514 331.545 180.705 331.545H165.669V285H180.705C193.514 285 201.746 294.417 201.746 308.274ZM180.078 321.731C187.453 321.731 191.799 316.826 191.799 308.274C191.799 299.719 187.453 294.682 180.078 294.682H175.446V321.731H180.078ZM207.227 285H233.357V294.086H217.004V303.896H229.24V312.714H217.004V331.545H207.227V285Z" fill="white"/>
</g>
</g>
<defs>
<linearGradient id="paint0_linear_330_2523" x1="-0.00418679" y1="-0.00556786" x2="362.034" y2="362.033" gradientUnits="userSpaceOnUse">
<stop stop-color="#8E2DE2"/>
<stop offset="1" stop-color="#4A00E0"/>
</linearGradient>
<clipPath id="clip0_330_2523">
<rect width="512" height="512" fill="white"/>
</clipPath>
<clipPath id="clip1_330_2523">
<rect width="252" height="292.208" fill="white" transform="translate(130 110)"/>
</clipPath>
</defs>
</svg>
