<svg width="1280" height="214" viewBox="0 0 1280 214" fill="none" xmlns="http://www.w3.org/2000/svg">
<path opacity="0.35" d="M-164.128 0L-142.962 20.9473L-121.803 0L-100.645 20.9473L-79.4866 0L-58.3201 20.9473L-37.1617 0L-16.0033 20.9473L5.16321 0L26.3216 20.9473L47.4881 0L68.6465 20.9473L89.8049 0L110.971 20.9473L132.13 0L153.288 20.9473L174.455 0L195.613 20.9473L216.78 0L237.938 20.9473L259.096 0L280.255 20.9473L301.413 0L322.58 20.9473L343.738 0L364.904 20.9473L386.063 0L407.221 20.9473L428.388 0L449.546 20.9473L470.713 0L491.879 20.9473L513.038 0L534.196 20.9473L555.362 0L576.529 20.9473L597.687 0L618.854 20.9473L640.02 0L661.179 20.9473L682.345 0L703.504 20.9473L724.662 0L745.82 20.9473L766.987 0L788.145 20.9473L809.304 0L830.462 20.9473L851.629 0L872.787 20.9473L893.945 0L915.104 20.9473L936.262 0L957.429 20.9473L978.587 0L999.745 20.9473L1020.91 0L1042.07 20.9473L1063.23 0L1084.4 20.9473L1105.55 0L1126.71 20.9473L1147.88 0L1169.04 20.9473L1190.2 0L1211.36 20.9473L1232.52 0L1253.69 20.9473L1274.84 0L1296 20.9473L1317.17 0L1338.33 20.9473L1359.49 0L1380.65 20.9473L1401.81 0L1422.97 20.9473L1444.13 0M1444.13 21.9305L1422.97 42.8696L1401.81 21.9305L1380.65 42.8696L1359.49 21.9305L1338.33 42.8696L1317.17 21.9305L1296 42.8696L1274.84 21.9305L1253.69 42.8696L1232.52 21.9305L1211.36 42.8696L1190.2 21.9305L1169.04 42.8696L1147.88 21.9305L1126.71 42.8696L1105.55 21.9305L1084.4 42.8696L1063.23 21.9305L1042.07 42.8696L1020.91 21.9305L999.745 42.8696L978.587 21.9305L957.429 42.8696L936.262 21.9305L915.104 42.8696L893.945 21.9305L872.787 42.8696L851.629 21.9305L830.462 42.8696L809.304 21.9305L788.145 42.8696L766.987 21.9305L745.82 42.8696L724.662 21.9305L703.504 42.8696L682.345 21.9305L661.179 42.8696L640.02 21.9305L618.854 42.8696L597.687 21.9305L576.529 42.8696L555.362 21.9305L534.196 42.8696L513.038 21.9305L491.879 42.8696L470.713 21.9305L449.546 42.8696L428.388 21.9305L407.221 42.8696L386.063 21.9305L364.904 42.8696L343.738 21.9305L322.58 42.8696L301.413 21.9305L280.255 42.8696L259.096 21.9305L237.938 42.8696L216.78 21.9305L195.613 42.8696L174.455 21.9305L153.288 42.8696L132.13 21.9305L110.971 42.8696L89.8049 21.9305L68.6465 42.8696L47.4881 21.9305L26.3216 42.8696L5.16321 21.9305L-16.0033 42.8696L-37.1617 21.9305L-58.3201 42.8696L-79.4866 21.9305L-100.645 42.8696L-121.803 21.9305L-142.962 42.8696L-164.128 21.9305M-164.128 43.8528L-142.962 64.792L-121.803 43.8528L-100.645 64.792L-79.4866 43.8528L-58.3201 64.792L-37.1617 43.8528L-16.0033 64.792L5.16321 43.8528L26.3216 64.792L47.4881 43.8528L68.6465 64.792L89.8049 43.8528L110.971 64.792L132.13 43.8528L153.288 64.792L174.455 43.8528L195.613 64.792L216.78 43.8528L237.938 64.792L259.096 43.8528L280.255 64.792L301.413 43.8528L322.58 64.792L343.738 43.8528L364.904 64.792L386.063 43.8528L407.221 64.792L428.388 43.8528L449.546 64.792L470.713 43.8528L491.879 64.792L513.038 43.8528L534.196 64.792L555.362 43.8528L576.529 64.792L597.687 43.8528L618.854 64.792L640.02 43.8528L661.179 64.792L682.345 43.8528L703.504 64.792L724.662 43.8528L745.82 64.792L766.987 43.8528L788.145 64.792L809.304 43.8528L830.462 64.792L851.629 43.8528L872.787 64.792L893.945 43.8528L915.104 64.792L936.262 43.8528L957.429 64.792L978.587 43.8528L999.745 64.792L1020.91 43.8528L1042.07 64.792L1063.23 43.8528L1084.4 64.792L1105.55 43.8528L1126.71 64.792L1147.88 43.8528L1169.04 64.792L1190.2 43.8528L1211.36 64.792L1232.52 43.8528L1253.69 64.792L1274.84 43.8528L1296 64.792L1317.17 43.8528L1338.33 64.792L1359.49 43.8528L1380.65 64.792L1401.81 43.8528L1422.97 64.792L1444.13 43.8528M1444.13 65.7752L1422.97 86.7225L1401.81 65.7752L1380.65 86.7225L1359.49 65.7752L1338.33 86.7225L1317.17 65.7752L1296 86.7225L1274.84 65.7752L1253.69 86.7225L1232.52 65.7752L1211.36 86.7225L1190.2 65.7752L1169.04 86.7225L1147.88 65.7752L1126.71 86.7225L1105.55 65.7752L1084.4 86.7225L1063.23 65.7752L1042.07 86.7225L1020.91 65.7752L999.745 86.7225L978.587 65.7752L957.429 86.7225L936.262 65.7752L915.104 86.7225L893.945 65.7752L872.787 86.7225L851.629 65.7752L830.462 86.7225L809.304 65.7752L788.145 86.7225L766.987 65.7752L745.82 86.7225L724.662 65.7752L703.504 86.7225L682.345 65.7752L661.179 86.7225L640.02 65.7752L618.854 86.7225L597.687 65.7752L576.529 86.7225L555.362 65.7752L534.196 86.7225L513.038 65.7752L491.879 86.7225L470.713 65.7752L449.546 86.7225L428.388 65.7752L407.221 86.7225L386.063 65.7752L364.904 86.7225L343.738 65.7752L322.58 86.7225L301.413 65.7752L280.255 86.7225L259.096 65.7752L237.938 86.7225L216.78 65.7752L195.613 86.7225L174.455 65.7752L153.288 86.7225L132.13 65.7752L110.971 86.7225L89.8049 65.7752L68.6465 86.7225L47.4881 65.7752L26.3216 86.7225L5.16321 65.7752L-16.0033 86.7225L-37.1617 65.7752L-58.3201 86.7225L-79.4866 65.7752L-100.645 86.7225L-121.803 65.7752L-142.962 86.7225L-164.128 65.7752M-164.128 87.6975L-142.962 108.645L-121.803 87.6975L-100.645 108.645L-79.4866 87.6975L-58.3201 108.645L-37.1617 87.6975L-16.0033 108.645L5.16321 87.6975L26.3216 108.645L47.4881 87.6975L68.6465 108.645L89.8049 87.6975L110.971 108.645L132.13 87.6975L153.288 108.645L174.455 87.6975L195.613 108.645L216.78 87.6975L237.938 108.645L259.096 87.6975L280.255 108.645L301.413 87.6975L322.58 108.645L343.738 87.6975L364.904 108.645L386.063 87.6975L407.221 108.645L428.388 87.6975L449.546 108.645L470.713 87.6975L491.879 108.645L513.038 87.6975L534.196 108.645L555.362 87.6975L576.529 108.645L597.687 87.6975L618.854 108.645L640.02 87.6975L661.179 108.645L682.345 87.6975L703.504 108.645L724.662 87.6975L745.82 108.645L766.987 87.6975L788.145 108.645L809.304 87.6975L830.462 108.645L851.629 87.6975L872.787 108.645L893.945 87.6975L915.104 108.645L936.262 87.6975L957.429 108.645L978.587 87.6975L999.745 108.645L1020.91 87.6975L1042.07 108.645L1063.23 87.6975L1084.4 108.645L1105.55 87.6975L1126.71 108.645L1147.88 87.6975L1169.04 108.645L1190.2 87.6975L1211.36 108.645L1232.52 87.6975L1253.69 108.645L1274.84 87.6975L1296 108.645L1317.17 87.6975L1338.33 108.645L1359.49 87.6975L1380.65 108.645L1401.81 87.6975L1422.97 108.645L1444.13 87.6975M1444.13 109.628L1422.97 130.567L1401.81 109.628L1380.65 130.567L1359.49 109.628L1338.33 130.567L1317.17 109.628L1296 130.567L1274.84 109.628L1253.69 130.567L1232.52 109.628L1211.36 130.567L1190.2 109.628L1169.04 130.567L1147.88 109.628L1126.71 130.567L1105.55 109.628L1084.4 130.567L1063.23 109.628L1042.07 130.567L1020.91 109.628L999.745 130.567L978.587 109.628L957.429 130.567L936.262 109.628L915.104 130.567L893.945 109.628L872.787 130.567L851.629 109.628L830.462 130.567L809.304 109.628L788.145 130.567L766.987 109.628L745.82 130.567L724.662 109.628L703.504 130.567L682.345 109.628L661.179 130.567L640.02 109.628L618.854 130.567L597.687 109.628L576.529 130.567L555.362 109.628L534.196 130.567L513.038 109.628L491.879 130.567L470.713 109.628L449.546 130.567L428.388 109.628L407.221 130.567L386.063 109.628L364.904 130.567L343.738 109.628L322.58 130.567L301.413 109.628L280.255 130.567L259.096 109.628L237.938 130.567L216.78 109.628L195.613 130.567L174.455 109.628L153.288 130.567L132.13 109.628L110.971 130.567L89.8049 109.628L68.6465 130.567L47.4881 109.628L26.3216 130.567L5.16321 109.628L-16.0033 130.567L-37.1617 109.628L-58.3201 130.567L-79.4866 109.628L-100.645 130.567L-121.803 109.628L-142.962 130.567L-164.128 109.628M-164.128 131.55L-142.962 152.489L-121.803 131.55L-100.645 152.489L-79.4866 131.55L-58.3201 152.489L-37.1617 131.55L-16.0033 152.489L5.16321 131.55L26.3216 152.489L47.4881 131.55L68.6465 152.489L89.8049 131.55L110.971 152.489L132.13 131.55L153.288 152.489L174.455 131.55L195.613 152.489L216.78 131.55L237.938 152.489L259.096 131.55L280.255 152.489L301.413 131.55L322.58 152.489L343.738 131.55L364.904 152.489L386.063 131.55L407.221 152.489L428.388 131.55L449.546 152.489L470.713 131.55L491.879 152.489L513.038 131.55L534.196 152.489L555.362 131.55L576.529 152.489L597.687 131.55L618.854 152.489L640.02 131.55L661.179 152.489L682.345 131.55L703.504 152.489L724.662 131.55L745.82 152.489L766.987 131.55L788.145 152.489L809.304 131.55L830.462 152.489L851.629 131.55L872.787 152.489L893.945 131.55L915.104 152.489L936.262 131.55L957.429 152.489L978.587 131.55L999.745 152.489L1020.91 131.55L1042.07 152.489L1063.23 131.55L1084.4 152.489L1105.55 131.55L1126.71 152.489L1147.88 131.55L1169.04 152.489L1190.2 131.55L1211.36 152.489L1232.52 131.55L1253.69 152.489L1274.84 131.55L1296 152.489L1317.17 131.55L1338.33 152.489L1359.49 131.55L1380.65 152.489L1401.81 131.55L1422.97 152.489L1444.13 131.55M1444.13 153.473L1422.97 174.42L1401.81 153.473L1380.65 174.42L1359.49 153.473L1338.33 174.42L1317.17 153.473L1296 174.42L1274.84 153.473L1253.69 174.42L1232.52 153.473L1211.36 174.42L1190.2 153.473L1169.04 174.42L1147.88 153.473L1126.71 174.42L1105.55 153.473L1084.4 174.42L1063.23 153.473L1042.07 174.42L1020.91 153.473L999.745 174.42L978.587 153.473L957.429 174.42L936.262 153.473L915.104 174.42L893.945 153.473L872.787 174.42L851.629 153.473L830.462 174.42L809.304 153.473L788.145 174.42L766.987 153.473L745.82 174.42L724.662 153.473L703.504 174.42L682.345 153.473L661.179 174.42L640.02 153.473L618.854 174.42L597.687 153.473L576.529 174.42L555.362 153.473L534.196 174.42L513.038 153.473L491.879 174.42L470.713 153.473L449.546 174.42L428.388 153.473L407.221 174.42L386.063 153.473L364.904 174.42L343.738 153.473L322.58 174.42L301.413 153.473L280.255 174.42L259.096 153.473L237.938 174.42L216.78 153.473L195.613 174.42L174.455 153.473L153.288 174.42L132.13 153.473L110.971 174.42L89.8049 153.473L68.6465 174.42L47.4881 153.473L26.3216 174.42L5.16321 153.473L-16.0033 174.42L-37.1617 153.473L-58.3201 174.42L-79.4866 153.473L-100.645 174.42L-121.803 153.473L-142.962 174.42L-164.128 153.473M-164.128 175.395L-142.962 196.342L-121.803 175.395L-100.645 196.342L-79.4866 175.395L-58.3201 196.342L-37.1617 175.395L-16.0033 196.342L5.16321 175.395L26.3216 196.342L47.4881 175.395L68.6465 196.342L89.8049 175.395L110.971 196.342L132.13 175.395L153.288 196.342L174.455 175.395L195.613 196.342L216.78 175.395L237.938 196.342L259.096 175.395L280.255 196.342L301.413 175.395L322.58 196.342L343.738 175.395L364.904 196.342L386.063 175.395L407.221 196.342L428.388 175.395L449.546 196.342L470.713 175.395L491.879 196.342L513.038 175.395L534.196 196.342L555.362 175.395L576.529 196.342L597.687 175.395L618.854 196.342L640.02 175.395L661.179 196.342L682.345 175.395L703.504 196.342L724.662 175.395L745.82 196.342L766.987 175.395L788.145 196.342L809.304 175.395L830.462 196.342L851.629 175.395L872.787 196.342L893.945 175.395L915.104 196.342L936.262 175.395L957.429 196.342L978.587 175.395L999.745 196.342L1020.91 175.395L1042.07 196.342L1063.23 175.395L1084.4 196.342L1105.55 175.395L1126.71 196.342L1147.88 175.395L1169.04 196.342L1190.2 175.395L1211.36 196.342L1232.52 175.395L1253.69 196.342L1274.84 175.395L1296 196.342L1317.17 175.395L1338.33 196.342L1359.49 175.395L1380.65 196.342L1401.81 175.395L1422.97 196.342L1444.13 175.395M1444.13 197.325L1422.97 218.265L1401.81 197.325L1380.65 218.265L1359.49 197.325L1338.33 218.265L1317.17 197.325L1296 218.265L1274.84 197.325L1253.69 218.265L1232.52 197.325L1211.36 218.265L1190.2 197.325L1169.04 218.265L1147.88 197.325L1126.71 218.265L1105.55 197.325L1084.4 218.265L1063.23 197.325L1042.07 218.265L1020.91 197.325L999.745 218.265L978.587 197.325L957.429 218.265L936.262 197.325L915.104 218.265L893.945 197.325L872.787 218.265L851.629 197.325L830.462 218.265L809.304 197.325L788.145 218.265L766.987 197.325L745.82 218.265L724.662 197.325L703.504 218.265L682.345 197.325L661.179 218.265L640.02 197.325L618.854 218.265L597.687 197.325L576.529 218.265L555.362 197.325L534.196 218.265L513.038 197.325L491.879 218.265L470.713 197.325L449.546 218.265L428.388 197.325L407.221 218.265L386.063 197.325L364.904 218.265L343.738 197.325L322.58 218.265L301.413 197.325L280.255 218.265L259.096 197.325L237.938 218.265L216.78 197.325L195.613 218.265L174.455 197.325L153.288 218.265L132.13 197.325L110.971 218.265L89.8049 197.325L68.6465 218.265L47.4881 197.325L26.3216 218.265L5.16321 197.325L-16.0033 218.265L-37.1617 197.325L-58.3201 218.265L-79.4866 197.325L-100.645 218.265L-121.803 197.325L-142.962 218.265L-164.128 197.325M-164.128 306.945L-142.962 327.884L-121.803 306.945L-100.645 327.884L-79.4866 306.945L-58.3201 327.884L-37.1617 306.945L-16.0033 327.884L5.16321 306.945L26.3216 327.884L47.4881 306.945L68.6465 327.884L89.8049 306.945L110.971 327.884L132.13 306.945L153.288 327.884L174.455 306.945L195.613 327.884L216.78 306.945L237.938 327.884L259.096 306.945L280.255 327.884L301.413 306.945L322.58 327.884L343.738 306.945L364.904 327.884L386.063 306.945L407.221 327.884L428.388 306.945L449.546 327.884L470.713 306.945L491.879 327.884L513.038 306.945L534.196 327.884L555.362 306.945L576.529 327.884L597.687 306.945L618.854 327.884L640.02 306.945L661.179 327.884L682.345 306.945L703.504 327.884L724.662 306.945L745.82 327.884L766.987 306.945L788.145 327.884L809.304 306.945L830.462 327.884L851.629 306.945L872.787 327.884L893.945 306.945L915.104 327.884L936.262 306.945L957.429 327.884L978.587 306.945L999.745 327.884L1020.91 306.945L1042.07 327.884L1063.23 306.945L1084.4 327.884L1105.55 306.945L1126.71 327.884L1147.88 306.945L1169.04 327.884L1190.2 306.945L1211.36 327.884L1232.52 306.945L1253.69 327.884L1274.84 306.945L1296 327.884L1317.17 306.945L1338.33 327.884L1359.49 306.945L1380.65 327.884L1401.81 306.945L1422.97 327.884L1444.13 306.945M1444.13 285.023L1422.97 305.962L1401.81 285.023L1380.65 305.962L1359.49 285.023L1338.33 305.962L1317.17 285.023L1296 305.962L1274.84 285.023L1253.69 305.962L1232.52 285.023L1211.36 305.962L1190.2 285.023L1169.04 305.962L1147.88 285.023L1126.71 305.962L1105.55 285.023L1084.4 305.962L1063.23 285.023L1042.07 305.962L1020.91 285.023L999.745 305.962L978.587 285.023L957.429 305.962L936.262 285.023L915.104 305.962L893.945 285.023L872.787 305.962L851.629 285.023L830.462 305.962L809.304 285.023L788.145 305.962L766.987 285.023L745.82 305.962L724.662 285.023L703.504 305.962L682.345 285.023L661.179 305.962L640.02 285.023L618.854 305.962L597.687 285.023L576.529 305.962L555.362 285.023L534.196 305.962L513.038 285.023L491.879 305.962L470.713 285.023L449.546 305.962L428.388 285.023L407.221 305.962L386.063 285.023L364.904 305.962L343.738 285.023L322.58 305.962L301.413 285.023L280.255 305.962L259.096 285.023L237.938 305.962L216.78 285.023L195.613 305.962L174.455 285.023L153.288 305.962L132.13 285.023L110.971 305.962L89.8049 285.023L68.6465 305.962L47.4881 285.023L26.3216 305.962L5.16321 285.023L-16.0033 305.962L-37.1617 285.023L-58.3201 305.962L-79.4866 285.023L-100.645 305.962L-121.803 285.023L-142.962 305.962L-164.128 285.023M-164.128 263.101L-142.962 284.04L-121.803 263.101L-100.645 284.04L-79.4866 263.101L-58.3201 284.04L-37.1617 263.101L-16.0033 284.04L5.16321 263.101L26.3216 284.04L47.4881 263.101L68.6465 284.04L89.8049 263.101L110.971 284.04L132.13 263.101L153.288 284.04L174.455 263.101L195.613 284.04L216.78 263.101L237.938 284.04L259.096 263.101L280.255 284.04L301.413 263.101L322.58 284.04L343.738 263.101L364.904 284.04L386.063 263.101L407.221 284.04L428.388 263.101L449.546 284.04L470.713 263.101L491.879 284.04L513.038 263.101L534.196 284.04L555.362 263.101L576.529 284.04L597.687 263.101L618.854 284.04L640.02 263.101L661.179 284.04L682.345 263.101L703.504 284.04L724.662 263.101L745.82 284.04L766.987 263.101L788.145 284.04L809.304 263.101L830.462 284.04L851.629 263.101L872.787 284.04L893.945 263.101L915.104 284.04L936.262 263.101L957.429 284.04L978.587 263.101L999.745 284.04L1020.91 263.101L1042.07 284.04L1063.23 263.101L1084.4 284.04L1105.55 263.101L1126.71 284.04L1147.88 263.101L1169.04 284.04L1190.2 263.101L1211.36 284.04L1232.52 263.101L1253.69 284.04L1274.84 263.101L1296 284.04L1317.17 263.101L1338.33 284.04L1359.49 263.101L1380.65 284.04L1401.81 263.101L1422.97 284.04L1444.13 263.101M1444.13 241.17L1422.97 262.117L1401.81 241.17L1380.65 262.117L1359.49 241.17L1338.33 262.117L1317.17 241.17L1296 262.117L1274.84 241.17L1253.69 262.117L1232.52 241.17L1211.36 262.117L1190.2 241.17L1169.04 262.117L1147.88 241.17L1126.71 262.117L1105.55 241.17L1084.4 262.117L1063.23 241.17L1042.07 262.117L1020.91 241.17L999.745 262.117L978.587 241.17L957.429 262.117L936.262 241.17L915.104 262.117L893.945 241.17L872.787 262.117L851.629 241.17L830.462 262.117L809.304 241.17L788.145 262.117L766.987 241.17L745.82 262.117L724.662 241.17L703.504 262.117L682.345 241.17L661.179 262.117L640.02 241.17L618.854 262.117L597.687 241.17L576.529 262.117L555.362 241.17L534.196 262.117L513.038 241.17L491.879 262.117L470.713 241.17L449.546 262.117L428.388 241.17L407.221 262.117L386.063 241.17L364.904 262.117L343.738 241.17L322.58 262.117L301.413 241.17L280.255 262.117L259.096 241.17L237.938 262.117L216.78 241.17L195.613 262.117L174.455 241.17L153.288 262.117L132.13 241.17L110.971 262.117L89.8049 241.17L68.6465 262.117L47.4881 241.17L26.3216 262.117L5.16321 241.17L-16.0033 262.117L-37.1617 241.17L-58.3201 262.117L-79.4866 241.17L-100.645 262.117L-121.803 241.17L-142.962 262.117L-164.128 241.17M-164.128 219.248L-142.962 240.187L-121.803 219.248L-100.645 240.187L-79.4866 219.248L-58.3201 240.187L-37.1617 219.248L-16.0033 240.187L5.16321 219.248L26.3216 240.187L47.4881 219.248L68.6465 240.187L89.8049 219.248L110.971 240.187L132.13 219.248L153.288 240.187L174.455 219.248L195.613 240.187L216.78 219.248L237.938 240.187L259.096 219.248L280.255 240.187L301.413 219.248L322.58 240.187L343.738 219.248L364.904 240.187L386.063 219.248L407.221 240.187L428.388 219.248L449.546 240.187L470.713 219.248L491.879 240.187L513.038 219.248L534.196 240.187L555.362 219.248L576.529 240.187L597.687 219.248L618.854 240.187L640.02 219.248L661.179 240.187L682.345 219.248L703.504 240.187L724.662 219.248L745.82 240.187L766.987 219.248L788.145 240.187L809.304 219.248L830.462 240.187L851.629 219.248L872.787 240.187L893.945 219.248L915.104 240.187L936.262 219.248L957.429 240.187L978.587 219.248L999.745 240.187L1020.91 219.248L1042.07 240.187L1063.23 219.248L1084.4 240.187L1105.55 219.248L1126.71 240.187L1147.88 219.248L1169.04 240.187L1190.2 219.248L1211.36 240.187L1232.52 219.248L1253.69 240.187L1274.84 219.248L1296 240.187L1317.17 219.248L1338.33 240.187L1359.49 219.248L1380.65 240.187L1401.81 219.248L1422.97 240.187L1444.13 219.248M1444.13 328.868L1422.97 349.815L1401.81 328.868L1380.65 349.815L1359.49 328.868L1338.33 349.815L1317.17 328.868L1296 349.815L1274.84 328.868L1253.69 349.815L1232.52 328.868L1211.36 349.815L1190.2 328.868L1169.04 349.815L1147.88 328.868L1126.71 349.815L1105.55 328.868L1084.4 349.815L1063.23 328.868L1042.07 349.815L1020.91 328.868L999.745 349.815L978.587 328.868L957.429 349.815L936.262 328.868L915.104 349.815L893.945 328.868L872.787 349.815L851.629 328.868L830.462 349.815L809.304 328.868L788.145 349.815L766.987 328.868L745.82 349.815L724.662 328.868L703.504 349.815L682.345 328.868L661.179 349.815L640.02 328.868L618.854 349.815L597.687 328.868L576.529 349.815L555.362 328.868L534.196 349.815L513.038 328.868L491.879 349.815L470.713 328.868L449.546 349.815L428.388 328.868L407.221 349.815L386.063 328.868L364.904 349.815L343.738 328.868L322.58 349.815L301.413 328.868L280.255 349.815L259.096 328.868L237.938 349.815L216.78 328.868L195.613 349.815L174.455 328.868L153.288 349.815L132.13 328.868L110.971 349.815L89.8049 328.868L68.6465 349.815L47.4881 328.868L26.3216 349.815L5.16321 328.868L-16.0033 349.815L-37.1617 328.868L-58.3201 349.815L-79.4866 328.868L-100.645 349.815L-121.803 328.868L-142.962 349.815L-164.128 328.868M-164.128 350.798L-142.962 371.737L-121.803 350.798L-100.645 371.737L-79.4866 350.798L-58.3201 371.737L-37.1617 350.798L-16.0033 371.737L5.16321 350.798L26.3216 371.737L47.4881 350.798L68.6465 371.737L89.8049 350.798L110.971 371.737L132.13 350.798L153.288 371.737L174.455 350.798L195.613 371.737L216.78 350.798L237.938 371.737L259.096 350.798L280.255 371.737L301.413 350.798L322.58 371.737L343.738 350.798L364.904 371.737L386.063 350.798L407.221 371.737L428.388 350.798L449.546 371.737L470.713 350.798L491.879 371.737L513.038 350.798L534.196 371.737L555.362 350.798L576.529 371.737L597.687 350.798L618.854 371.737L640.02 350.798L661.179 371.737L682.345 350.798L703.504 371.737L724.662 350.798L745.82 371.737L766.987 350.798L788.145 371.737L809.304 350.798L830.462 371.737L851.629 350.798L872.787 371.737L893.945 350.798L915.104 371.737L936.262 350.798L957.429 371.737L978.587 350.798L999.745 371.737L1020.91 350.798L1042.07 371.737L1063.23 350.798L1084.4 371.737L1105.55 350.798L1126.71 371.737L1147.88 350.798L1169.04 371.737L1190.2 350.798L1211.36 371.737L1232.52 350.798L1253.69 371.737L1274.84 350.798L1296 371.737L1317.17 350.798L1338.33 371.737L1359.49 350.798L1380.65 371.737L1401.81 350.798L1422.97 371.737L1444.13 350.798M1444.13 372.72L1422.97 393.66L1401.81 372.72L1380.65 393.66L1359.49 372.72L1338.33 393.66L1317.17 372.72L1296 393.66L1274.84 372.72L1253.69 393.66L1232.52 372.72L1211.36 393.66L1190.2 372.72L1169.04 393.66L1147.88 372.72L1126.71 393.66L1105.55 372.72L1084.4 393.66L1063.23 372.72L1042.07 393.66L1020.91 372.72L999.745 393.66L978.587 372.72L957.429 393.66L936.262 372.72L915.104 393.66L893.945 372.72L872.787 393.66L851.629 372.72L830.462 393.66L809.304 372.72L788.145 393.66L766.987 372.72L745.82 393.66L724.662 372.72L703.504 393.66L682.345 372.72L661.179 393.66L640.02 372.72L618.854 393.66L597.687 372.72L576.529 393.66L555.362 372.72L534.196 393.66L513.038 372.72L491.879 393.66L470.713 372.72L449.546 393.66L428.388 372.72L407.221 393.66L386.063 372.72L364.904 393.66L343.738 372.72L322.58 393.66L301.413 372.72L280.255 393.66L259.096 372.72L237.938 393.66L216.78 372.72L195.613 393.66L174.455 372.72L153.288 393.66L132.13 372.72L110.971 393.66L89.8049 372.72L68.6465 393.66L47.4881 372.72L26.3216 393.66L5.16321 372.72L-16.0033 393.66L-37.1617 372.72L-58.3201 393.66L-79.4866 372.72L-100.645 393.66L-121.803 372.72L-142.962 393.66L-164.128 372.72M-164.128 394.643L-142.962 415.59L-121.803 394.643L-100.645 415.59L-79.4866 394.643L-58.3201 415.59L-37.1617 394.643L-16.0033 415.59L5.16321 394.643L26.3216 415.59L47.4881 394.643L68.6465 415.59L89.8049 394.643L110.971 415.59L132.13 394.643L153.288 415.59L174.455 394.643L195.613 415.59L216.78 394.643L237.938 415.59L259.096 394.643L280.255 415.59L301.413 394.643L322.58 415.59L343.738 394.643L364.904 415.59L386.063 394.643L407.221 415.59L428.388 394.643L449.546 415.59L470.713 394.643L491.879 415.59L513.038 394.643L534.196 415.59L555.362 394.643L576.529 415.59L597.687 394.643L618.854 415.59L640.02 394.643L661.179 415.59L682.345 394.643L703.504 415.59L724.662 394.643L745.82 415.59L766.987 394.643L788.145 415.59L809.304 394.643L830.462 415.59L851.629 394.643L872.787 415.59L893.945 394.643L915.104 415.59L936.262 394.643L957.429 415.59L978.587 394.643L999.745 415.59L1020.91 394.643L1042.07 415.59L1063.23 394.643L1084.4 415.59L1105.55 394.643L1126.71 415.59L1147.88 394.643L1169.04 415.59L1190.2 394.643L1211.36 415.59L1232.52 394.643L1253.69 415.59L1274.84 394.643L1296 415.59L1317.17 394.643L1338.33 415.59L1359.49 394.643L1380.65 415.59L1401.81 394.643L1422.97 415.59L1444.13 394.643M1444.13 416.565L1422.97 437.512L1401.81 416.565L1380.65 437.512L1359.49 416.565L1338.33 437.512L1317.17 416.565L1296 437.512L1274.84 416.565L1253.69 437.512L1232.52 416.565L1211.36 437.512L1190.2 416.565L1169.04 437.512L1147.88 416.565L1126.71 437.512L1105.55 416.565L1084.4 437.512L1063.23 416.565L1042.07 437.512L1020.91 416.565L999.745 437.512L978.587 416.565L957.429 437.512L936.262 416.565L915.104 437.512L893.945 416.565L872.787 437.512L851.629 416.565L830.462 437.512L809.304 416.565L788.145 437.512L766.987 416.565L745.82 437.512L724.662 416.565L703.504 437.512L682.345 416.565L661.179 437.512L640.02 416.565L618.854 437.512L597.687 416.565L576.529 437.512L555.362 416.565L534.196 437.512L513.038 416.565L491.879 437.512L470.713 416.565L449.546 437.512L428.388 416.565L407.221 437.512L386.063 416.565L364.904 437.512L343.738 416.565L322.58 437.512L301.413 416.565L280.255 437.512L259.096 416.565L237.938 437.512L216.78 416.565L195.613 437.512L174.455 416.565L153.288 437.512L132.13 416.565L110.971 437.512L89.8049 416.565L68.6465 437.512L47.4881 416.565L26.3216 437.512L5.16321 416.565L-16.0033 437.512L-37.1617 416.565L-58.3201 437.512L-79.4866 416.565L-100.645 437.512L-121.803 416.565L-142.962 437.512L-164.128 416.565M-164.128 438.496L-142.962 459.435L-121.803 438.496L-100.645 459.435L-79.4866 438.496L-58.3201 459.435L-37.1617 438.496L-16.0033 459.435L5.16321 438.496L26.3216 459.435L47.4881 438.496L68.6465 459.435L89.8049 438.496L110.971 459.435L132.13 438.496L153.288 459.435L174.455 438.496L195.613 459.435L216.78 438.496L237.938 459.435L259.096 438.496L280.255 459.435L301.413 438.496L322.58 459.435L343.738 438.496L364.904 459.435L386.063 438.496L407.221 459.435L428.388 438.496L449.546 459.435L470.713 438.496L491.879 459.435L513.038 438.496L534.196 459.435L555.362 438.496L576.529 459.435L597.687 438.496L618.854 459.435L640.02 438.496L661.179 459.435L682.345 438.496L703.504 459.435L724.662 438.496L745.82 459.435L766.987 438.496L788.145 459.435L809.304 438.496L830.462 459.435L851.629 438.496L872.787 459.435L893.945 438.496L915.104 459.435L936.262 438.496L957.429 459.435L978.587 438.496L999.745 459.435L1020.91 438.496L1042.07 459.435L1063.23 438.496L1084.4 459.435L1105.55 438.496L1126.71 459.435L1147.88 438.496L1169.04 459.435L1190.2 438.496L1211.36 459.435L1232.52 438.496L1253.69 459.435L1274.84 438.496L1296 459.435L1317.17 438.496L1338.33 459.435L1359.49 438.496L1380.65 459.435L1401.81 438.496L1422.97 459.435L1444.13 438.496M1444.13 460.418L1422.97 481.357L1401.81 460.418L1380.65 481.357L1359.49 460.418L1338.33 481.357L1317.17 460.418L1296 481.357L1274.84 460.418L1253.69 481.357L1232.52 460.418L1211.36 481.357L1190.2 460.418L1169.04 481.357L1147.88 460.418L1126.71 481.357L1105.55 460.418L1084.4 481.357L1063.23 460.418L1042.07 481.357L1020.91 460.418L999.745 481.357L978.587 460.418L957.429 481.357L936.262 460.418L915.104 481.357L893.945 460.418L872.787 481.357L851.629 460.418L830.462 481.357L809.304 460.418L788.145 481.357L766.987 460.418L745.82 481.357L724.662 460.418L703.504 481.357L682.345 460.418L661.179 481.357L640.02 460.418L618.854 481.357L597.687 460.418L576.529 481.357L555.362 460.418L534.196 481.357L513.038 460.418L491.879 481.357L470.713 460.418L449.546 481.357L428.388 460.418L407.221 481.357L386.063 460.418L364.904 481.357L343.738 460.418L322.58 481.357L301.413 460.418L280.255 481.357L259.096 460.418L237.938 481.357L216.78 460.418L195.613 481.357L174.455 460.418L153.288 481.357L132.13 460.418L110.971 481.357L89.8049 460.418L68.6465 481.357L47.4881 460.418L26.3216 481.357L5.16321 460.418L-16.0033 481.357L-37.1617 460.418L-58.3201 481.357L-79.4866 460.418L-100.645 481.357L-121.803 460.418L-142.962 481.357L-164.128 460.418M-164.128 482.34L-142.962 503.288L-121.803 482.34L-100.645 503.288L-79.4866 482.34L-58.3201 503.288L-37.1617 482.34L-16.0033 503.288L5.16321 482.34L26.3216 503.288L47.4881 482.34L68.6465 503.288L89.8049 482.34L110.971 503.288L132.13 482.34L153.288 503.288L174.455 482.34L195.613 503.288L216.78 482.34L237.938 503.288L259.096 482.34L280.255 503.288L301.413 482.34L322.58 503.288L343.738 482.34L364.904 503.288L386.063 482.34L407.221 503.288L428.388 482.34L449.546 503.288L470.713 482.34L491.879 503.288L513.038 482.34L534.196 503.288L555.362 482.34L576.529 503.288L597.687 482.34L618.854 503.288L640.02 482.34L661.179 503.288L682.345 482.34L703.504 503.288L724.662 482.34L745.82 503.288L766.987 482.34L788.145 503.288L809.304 482.34L830.462 503.288L851.629 482.34L872.787 503.288L893.945 482.34L915.104 503.288L936.262 482.34L957.429 503.288L978.587 482.34L999.745 503.288L1020.91 482.34L1042.07 503.288L1063.23 482.34L1084.4 503.288L1105.55 482.34L1126.71 503.288L1147.88 482.34L1169.04 503.288L1190.2 482.34L1211.36 503.288L1232.52 482.34L1253.69 503.288L1274.84 482.34L1296 503.288L1317.17 482.34L1338.33 503.288L1359.49 482.34L1380.65 503.288L1401.81 482.34L1422.97 503.288L1444.13 482.34M1444.13 504.263L1422.97 525.21L1401.81 504.263L1380.65 525.21L1359.49 504.263L1338.33 525.21L1317.17 504.263L1296 525.21L1274.84 504.263L1253.69 525.21L1232.52 504.263L1211.36 525.21L1190.2 504.263L1169.04 525.21L1147.88 504.263L1126.71 525.21L1105.55 504.263L1084.4 525.21L1063.23 504.263L1042.07 525.21L1020.91 504.263L999.745 525.21L978.587 504.263L957.429 525.21L936.262 504.263L915.104 525.21L893.945 504.263L872.787 525.21L851.629 504.263L830.462 525.21L809.304 504.263L788.145 525.21L766.987 504.263L745.82 525.21L724.662 504.263L703.504 525.21L682.345 504.263L661.179 525.21L640.02 504.263L618.854 525.21L597.687 504.263L576.529 525.21L555.362 504.263L534.196 525.21L513.038 504.263L491.879 525.21L470.713 504.263L449.546 525.21L428.388 504.263L407.221 525.21L386.063 504.263L364.904 525.21L343.738 504.263L322.58 525.21L301.413 504.263L280.255 525.21L259.096 504.263L237.938 525.21L216.78 504.263L195.613 525.21L174.455 504.263L153.288 525.21L132.13 504.263L110.971 525.21L89.8049 504.263L68.6465 525.21L47.4881 504.263L26.3216 525.21L5.16321 504.263L-16.0033 525.21L-37.1617 504.263L-58.3201 525.21L-79.4866 504.263L-100.645 525.21L-121.803 504.263L-142.962 525.21L-164.128 504.263M-164.128 526.193L-142.962 547.132L-121.803 526.193L-100.645 547.132L-79.4866 526.193L-58.3201 547.132L-37.1617 526.193L-16.0033 547.132L5.16321 526.193L26.3216 547.132L47.4881 526.193L68.6465 547.132L89.8049 526.193L110.971 547.132L132.13 526.193L153.288 547.132L174.455 526.193L195.613 547.132L216.78 526.193L237.938 547.132L259.096 526.193L280.255 547.132L301.413 526.193L322.58 547.132L343.738 526.193L364.904 547.132L386.063 526.193L407.221 547.132L428.388 526.193L449.546 547.132L470.713 526.193L491.879 547.132L513.038 526.193L534.196 547.132L555.362 526.193L576.529 547.132L597.687 526.193L618.854 547.132L640.02 526.193L661.179 547.132L682.345 526.193L703.504 547.132L724.662 526.193L745.82 547.132L766.987 526.193L788.145 547.132L809.304 526.193L830.462 547.132L851.629 526.193L872.787 547.132L893.945 526.193L915.104 547.132L936.262 526.193L957.429 547.132L978.587 526.193L999.745 547.132L1020.91 526.193L1042.07 547.132L1063.23 526.193L1084.4 547.132L1105.55 526.193L1126.71 547.132L1147.88 526.193L1169.04 547.132L1190.2 526.193L1211.36 547.132L1232.52 526.193L1253.69 547.132L1274.84 526.193L1296 547.132L1317.17 526.193L1338.33 547.132L1359.49 526.193L1380.65 547.132L1401.81 526.193L1422.97 547.132L1444.13 526.193M1444.13 548.115L1422.97 569.055L1401.81 548.115L1380.65 569.055L1359.49 548.115L1338.33 569.055L1317.17 548.115L1296 569.055L1274.84 548.115L1253.69 569.055L1232.52 548.115L1211.36 569.055L1190.2 548.115L1169.04 569.055L1147.88 548.115L1126.71 569.055L1105.55 548.115L1084.4 569.055L1063.23 548.115L1042.07 569.055L1020.91 548.115L999.745 569.055L978.587 548.115L957.429 569.055L936.262 548.115L915.104 569.055L893.945 548.115L872.787 569.055L851.629 548.115L830.462 569.055L809.304 548.115L788.145 569.055L766.987 548.115L745.82 569.055L724.662 548.115L703.504 569.055L682.345 548.115L661.179 569.055L640.02 548.115L618.854 569.055L597.687 548.115L576.529 569.055L555.362 548.115L534.196 569.055L513.038 548.115L491.879 569.055L470.713 548.115L449.546 569.055L428.388 548.115L407.221 569.055L386.063 548.115L364.904 569.055L343.738 548.115L322.58 569.055L301.413 548.115L280.255 569.055L259.096 548.115L237.938 569.055L216.78 548.115L195.613 569.055L174.455 548.115L153.288 569.055L132.13 548.115L110.971 569.055L89.8049 548.115L68.6465 569.055L47.4881 548.115L26.3216 569.055L5.16321 548.115L-16.0033 569.055L-37.1617 548.115L-58.3201 569.055L-79.4866 548.115L-100.645 569.055L-121.803 548.115L-142.962 569.055L-164.128 548.115M-164.128 570.038L-142.962 590.985L-121.803 570.038L-100.645 590.985L-79.4866 570.038L-58.3201 590.985L-37.1617 570.038L-16.0033 590.985L5.16321 570.038L26.3216 590.985L47.4881 570.038L68.6465 590.985L89.8049 570.038L110.971 590.985L132.13 570.038L153.288 590.985L174.455 570.038L195.613 590.985L216.78 570.038L237.938 590.985L259.096 570.038L280.255 590.985L301.413 570.038L322.58 590.985L343.738 570.038L364.904 590.985L386.063 570.038L407.221 590.985L428.388 570.038L449.546 590.985L470.713 570.038L491.879 590.985L513.038 570.038L534.196 590.985L555.362 570.038L576.529 590.985L597.687 570.038L618.854 590.985L640.02 570.038L661.179 590.985L682.345 570.038L703.504 590.985L724.662 570.038L745.82 590.985L766.987 570.038L788.145 590.985L809.304 570.038L830.462 590.985L851.629 570.038L872.787 590.985L893.945 570.038L915.104 590.985L936.262 570.038L957.429 590.985L978.587 570.038L999.745 590.985L1020.91 570.038L1042.07 590.985L1063.23 570.038L1084.4 590.985L1105.55 570.038L1126.71 590.985L1147.88 570.038L1169.04 590.985L1190.2 570.038L1211.36 590.985L1232.52 570.038L1253.69 590.985L1274.84 570.038L1296 590.985L1317.17 570.038L1338.33 590.985L1359.49 570.038L1380.65 590.985L1401.81 570.038L1422.97 590.985L1444.13 570.038M1444.13 591.968L1422.97 612.907L1401.81 591.968L1380.65 612.907L1359.49 591.968L1338.33 612.907L1317.17 591.968L1296 612.907L1274.84 591.968L1253.69 612.907L1232.52 591.968L1211.36 612.907L1190.2 591.968L1169.04 612.907L1147.88 591.968L1126.71 612.907L1105.55 591.968L1084.4 612.907L1063.23 591.968L1042.07 612.907L1020.91 591.968L999.745 612.907L978.587 591.968L957.429 612.907L936.262 591.968L915.104 612.907L893.945 591.968L872.787 612.907L851.629 591.968L830.462 612.907L809.304 591.968L788.145 612.907L766.987 591.968L745.82 612.907L724.662 591.968L703.504 612.907L682.345 591.968L661.179 612.907L640.02 591.968L618.854 612.907L597.687 591.968L576.529 612.907L555.362 591.968L534.196 612.907L513.038 591.968L491.879 612.907L470.713 591.968L449.546 612.907L428.388 591.968L407.221 612.907L386.063 591.968L364.904 612.907L343.738 591.968L322.58 612.907L301.413 591.968L280.255 612.907L259.096 591.968L237.938 612.907L216.78 591.968L195.613 612.907L174.455 591.968L153.288 612.907L132.13 591.968L110.971 612.907L89.8049 591.968L68.6465 612.907L47.4881 591.968L26.3216 612.907L5.16321 591.968L-16.0033 612.907L-37.1617 591.968L-58.3201 612.907L-79.4866 591.968L-100.645 612.907L-121.803 591.968L-142.962 612.907L-164.128 591.968M-164.128 613.891L-142.962 634.83L-121.803 613.891L-100.645 634.83L-79.4866 613.891L-58.3201 634.83L-37.1617 613.891L-16.0033 634.83L5.16321 613.891L26.3216 634.83L47.4881 613.891L68.6465 634.83L89.8049 613.891L110.971 634.83L132.13 613.891L153.288 634.83L174.455 613.891L195.613 634.83L216.78 613.891L237.938 634.83L259.096 613.891L280.255 634.83L301.413 613.891L322.58 634.83L343.738 613.891L364.904 634.83L386.063 613.891L407.221 634.83L428.388 613.891L449.546 634.83L470.713 613.891L491.879 634.83L513.038 613.891L534.196 634.83L555.362 613.891L576.529 634.83L597.687 613.891L618.854 634.83L640.02 613.891L661.179 634.83L682.345 613.891L703.504 634.83L724.662 613.891L745.82 634.83L766.987 613.891L788.145 634.83L809.304 613.891L830.462 634.83L851.629 613.891L872.787 634.83L893.945 613.891L915.104 634.83L936.262 613.891L957.429 634.83L978.587 613.891L999.745 634.83L1020.91 613.891L1042.07 634.83L1063.23 613.891L1084.4 634.83L1105.55 613.891L1126.71 634.83L1147.88 613.891L1169.04 634.83L1190.2 613.891L1211.36 634.83L1232.52 613.891L1253.69 634.83L1274.84 613.891L1296 634.83L1317.17 613.891L1338.33 634.83L1359.49 613.891L1380.65 634.83L1401.81 613.891L1422.97 634.83L1444.13 613.891M1444.13 635.813L1422.97 656.752L1401.81 635.813L1380.65 656.752L1359.49 635.813L1338.33 656.752L1317.17 635.813L1296 656.752L1274.84 635.813L1253.69 656.752L1232.52 635.813L1211.36 656.752L1190.2 635.813L1169.04 656.752L1147.88 635.813L1126.71 656.752L1105.55 635.813L1084.4 656.752L1063.23 635.813L1042.07 656.752L1020.91 635.813L999.745 656.752L978.587 635.813L957.429 656.752L936.262 635.813L915.104 656.752L893.945 635.813L872.787 656.752L851.629 635.813L830.462 656.752L809.304 635.813L788.145 656.752L766.987 635.813L745.82 656.752L724.662 635.813L703.504 656.752L682.345 635.813L661.179 656.752L640.02 635.813L618.854 656.752L597.687 635.813L576.529 656.752L555.362 635.813L534.196 656.752L513.038 635.813L491.879 656.752L470.713 635.813L449.546 656.752L428.388 635.813L407.221 656.752L386.063 635.813L364.904 656.752L343.738 635.813L322.58 656.752L301.413 635.813L280.255 656.752L259.096 635.813L237.938 656.752L216.78 635.813L195.613 656.752L174.455 635.813L153.288 656.752L132.13 635.813L110.971 656.752L89.8049 635.813L68.6465 656.752L47.4881 635.813L26.3216 656.752L5.16321 635.813L-16.0033 656.752L-37.1617 635.813L-58.3201 656.752L-79.4866 635.813L-100.645 656.752L-121.803 635.813L-142.962 656.752L-164.128 635.813M-164.128 657.735L-142.962 678.683L-121.803 657.735L-100.645 678.683L-79.4866 657.735L-58.3201 678.683L-37.1617 657.735L-16.0033 678.683L5.16321 657.735L26.3216 678.683L47.4881 657.735L68.6465 678.683L89.8049 657.735L110.971 678.683L132.13 657.735L153.288 678.683L174.455 657.735L195.613 678.683L216.78 657.735L237.938 678.683L259.096 657.735L280.255 678.683L301.413 657.735L322.58 678.683L343.738 657.735L364.904 678.683L386.063 657.735L407.221 678.683L428.388 657.735L449.546 678.683L470.713 657.735L491.879 678.683L513.038 657.735L534.196 678.683L555.362 657.735L576.529 678.683L597.687 657.735L618.854 678.683L640.02 657.735L661.179 678.683L682.345 657.735L703.504 678.683L724.662 657.735L745.82 678.683L766.987 657.735L788.145 678.683L809.304 657.735L830.462 678.683L851.629 657.735L872.787 678.683L893.945 657.735L915.104 678.683L936.262 657.735L957.429 678.683L978.587 657.735L999.745 678.683L1020.91 657.735L1042.07 678.683L1063.23 657.735L1084.4 678.683L1105.55 657.735L1126.71 678.683L1147.88 657.735L1169.04 678.683L1190.2 657.735L1211.36 678.683L1232.52 657.735L1253.69 678.683L1274.84 657.735L1296 678.683L1317.17 657.735L1338.33 678.683L1359.49 657.735L1380.65 678.683L1401.81 657.735L1422.97 678.683L1444.13 657.735M1444.13 679.666L1422.97 700.605L1401.81 679.666L1380.65 700.605L1359.49 679.666L1338.33 700.605L1317.17 679.666L1296 700.605L1274.84 679.666L1253.69 700.605L1232.52 679.666L1211.36 700.605L1190.2 679.666L1169.04 700.605L1147.88 679.666L1126.71 700.605L1105.55 679.666L1084.4 700.605L1063.23 679.666L1042.07 700.605L1020.91 679.666L999.745 700.605L978.587 679.666L957.429 700.605L936.262 679.666L915.104 700.605L893.945 679.666L872.787 700.605L851.629 679.666L830.462 700.605L809.304 679.666L788.145 700.605L766.987 679.666L745.82 700.605L724.662 679.666L703.504 700.605L682.345 679.666L661.179 700.605L640.02 679.666L618.854 700.605L597.687 679.666L576.529 700.605L555.362 679.666L534.196 700.605L513.038 679.666L491.879 700.605L470.713 679.666L449.546 700.605L428.388 679.666L407.221 700.605L386.063 679.666L364.904 700.605L343.738 679.666L322.58 700.605L301.413 679.666L280.255 700.605L259.096 679.666L237.938 700.605L216.78 679.666L195.613 700.605L174.455 679.666L153.288 700.605L132.13 679.666L110.971 700.605L89.8049 679.666L68.6465 700.605L47.4881 679.666L26.3216 700.605L5.16321 679.666L-16.0033 700.605L-37.1617 679.666L-58.3201 700.605L-79.4866 679.666L-100.645 700.605L-121.803 679.666L-142.962 700.605L-164.128 679.666M-164.128 701.588L-142.962 722.527L-121.803 701.588L-100.645 722.527L-79.4866 701.588L-58.3201 722.527L-37.1617 701.588L-16.0033 722.527L5.16321 701.588L26.3216 722.527L47.4881 701.588L68.6465 722.527L89.8049 701.588L110.971 722.527L132.13 701.588L153.288 722.527L174.455 701.588L195.613 722.527L216.78 701.588L237.938 722.527L259.096 701.588L280.255 722.527L301.413 701.588L322.58 722.527L343.738 701.588L364.904 722.527L386.063 701.588L407.221 722.527L428.388 701.588L449.546 722.527L470.713 701.588L491.879 722.527L513.038 701.588L534.196 722.527L555.362 701.588L576.529 722.527L597.687 701.588L618.854 722.527L640.02 701.588L661.179 722.527L682.345 701.588L703.504 722.527L724.662 701.588L745.82 722.527L766.987 701.588L788.145 722.527L809.304 701.588L830.462 722.527L851.629 701.588L872.787 722.527L893.945 701.588L915.104 722.527L936.262 701.588L957.429 722.527L978.587 701.588L999.745 722.527L1020.91 701.588L1042.07 722.527L1063.23 701.588L1084.4 722.527L1105.55 701.588L1126.71 722.527L1147.88 701.588L1169.04 722.527L1190.2 701.588L1211.36 722.527L1232.52 701.588L1253.69 722.527L1274.84 701.588L1296 722.527L1317.17 701.588L1338.33 722.527L1359.49 701.588L1380.65 722.527L1401.81 701.588L1422.97 722.527L1444.13 701.588M1444.13 723.51L1422.97 744.458L1401.81 723.51L1380.65 744.458L1359.49 723.51L1338.33 744.458L1317.17 723.51L1296 744.458L1274.84 723.51L1253.69 744.458L1232.52 723.51L1211.36 744.458L1190.2 723.51L1169.04 744.458L1147.88 723.51L1126.71 744.458L1105.55 723.51L1084.4 744.458L1063.23 723.51L1042.07 744.458L1020.91 723.51L999.745 744.458L978.587 723.51L957.429 744.458L936.262 723.51L915.104 744.458L893.945 723.51L872.787 744.458L851.629 723.51L830.462 744.458L809.304 723.51L788.145 744.458L766.987 723.51L745.82 744.458L724.662 723.51L703.504 744.458L682.345 723.51L661.179 744.458L640.02 723.51L618.854 744.458L597.687 723.51L576.529 744.458L555.362 723.51L534.196 744.458L513.038 723.51L491.879 744.458L470.713 723.51L449.546 744.458L428.388 723.51L407.221 744.458L386.063 723.51L364.904 744.458L343.738 723.51L322.58 744.458L301.413 723.51L280.255 744.458L259.096 723.51L237.938 744.458L216.78 723.51L195.613 744.458L174.455 723.51L153.288 744.458L132.13 723.51L110.971 744.458L89.8049 723.51L68.6465 744.458L47.4881 723.51L26.3216 744.458L5.16321 723.51L-16.0033 744.458L-37.1617 723.51L-58.3201 744.458L-79.4866 723.51L-100.645 744.458L-121.803 723.51L-142.962 744.458L-164.128 723.51M-164.128 745.433L-142.962 766.38L-121.803 745.433L-100.645 766.38L-79.4866 745.433L-58.3201 766.38L-37.1617 745.433L-16.0033 766.38L5.16321 745.433L26.3216 766.38L47.4881 745.433L68.6465 766.38L89.8049 745.433L110.971 766.38L132.13 745.433L153.288 766.38L174.455 745.433L195.613 766.38L216.78 745.433L237.938 766.38L259.096 745.433L280.255 766.38L301.413 745.433L322.58 766.38L343.738 745.433L364.904 766.38L386.063 745.433L407.221 766.38L428.388 745.433L449.546 766.38L470.713 745.433L491.879 766.38L513.038 745.433L534.196 766.38L555.362 745.433L576.529 766.38L597.687 745.433L618.854 766.38L640.02 745.433L661.179 766.38L682.345 745.433L703.504 766.38L724.662 745.433L745.82 766.38L766.987 745.433L788.145 766.38L809.304 745.433L830.462 766.38L851.629 745.433L872.787 766.38L893.945 745.433L915.104 766.38L936.262 745.433L957.429 766.38L978.587 745.433L999.745 766.38L1020.91 745.433L1042.07 766.38L1063.23 745.433L1084.4 766.38L1105.55 745.433L1126.71 766.38L1147.88 745.433L1169.04 766.38L1190.2 745.433L1211.36 766.38L1232.52 745.433L1253.69 766.38L1274.84 745.433L1296 766.38L1317.17 745.433L1338.33 766.38L1359.49 745.433L1380.65 766.38L1401.81 745.433L1422.97 766.38L1444.13 745.433M1444.13 767.363L1422.97 788.302L1401.81 767.363L1380.65 788.302L1359.49 767.363L1338.33 788.302L1317.17 767.363L1296 788.302L1274.84 767.363L1253.69 788.302L1232.52 767.363L1211.36 788.302L1190.2 767.363L1169.04 788.302L1147.88 767.363L1126.71 788.302L1105.55 767.363L1084.4 788.302L1063.23 767.363L1042.07 788.302L1020.91 767.363L999.745 788.302L978.587 767.363L957.429 788.302L936.262 767.363L915.104 788.302L893.945 767.363L872.787 788.302L851.629 767.363L830.462 788.302L809.304 767.363L788.145 788.302L766.987 767.363L745.82 788.302L724.662 767.363L703.504 788.302L682.345 767.363L661.179 788.302L645.922 763.268L618.854 788.302L597.687 767.363L576.529 788.302L555.362 767.363L534.196 788.302L513.038 767.363L491.879 788.302L470.713 767.363L449.546 788.302L428.388 767.363L407.221 788.302L386.063 767.363L364.904 788.302L343.738 767.363L322.58 788.302L301.413 767.363L280.255 788.302L259.096 767.363L237.938 788.302L216.78 767.363L195.613 788.302L174.455 767.363L153.288 788.302L132.13 767.363L110.971 788.302L89.8049 767.363L68.6465 788.302L47.4881 767.363L26.3216 788.302L5.16321 767.363L-16.0033 788.302L-37.1617 767.363L-58.3201 788.302L-79.4866 767.363L-100.645 788.302L-121.803 767.363L-142.962 788.302L-164.128 767.363M-164.128 789.286L-142.962 810.225L-121.803 789.286L-100.645 810.225L-79.4866 789.286L-58.3201 810.225L-37.1617 789.286L-16.0033 810.225L5.16321 789.286L26.3216 810.225L47.4881 789.286L68.6465 810.225L89.8049 789.286L110.971 810.225L132.13 789.286L153.288 810.225L174.455 789.286L195.613 810.225L216.78 789.286L237.938 810.225L259.096 789.286L280.255 810.225L301.413 789.286L322.58 810.225L343.738 789.286L364.904 810.225L386.063 789.286L407.221 810.225L428.388 789.286L449.546 810.225L470.713 789.286L491.879 810.225L513.038 789.286L534.196 810.225L555.362 789.286L576.529 810.225L597.687 789.286L618.854 810.225L640.02 789.286L661.179 810.225L682.345 789.286L703.504 810.225L724.662 789.286L745.82 810.225L766.987 789.286L788.145 810.225L809.304 789.286L830.462 810.225L851.629 789.286L872.787 810.225L893.945 789.286L915.104 810.225L936.262 789.286L957.429 810.225L978.587 789.286L999.745 810.225L1020.91 789.286L1042.07 810.225L1063.23 789.286L1084.4 810.225L1105.55 789.286L1126.71 810.225L1147.88 789.286L1169.04 810.225L1190.2 789.286L1211.36 810.225L1232.52 789.286L1253.69 810.225L1274.84 789.286L1296 810.225L1317.17 789.286L1338.33 810.225L1359.49 789.286L1380.65 810.225L1401.81 789.286L1422.97 810.225L1444.13 789.286M1444.13 811.208L1422.97 832.155L1401.81 811.208L1380.65 832.155L1359.49 811.208L1338.33 832.155L1317.17 811.208L1296 832.155L1274.84 811.208L1253.69 832.155L1232.52 811.208L1211.36 832.155L1190.2 811.208L1169.04 832.155L1147.88 811.208L1126.71 832.155L1105.55 811.208L1084.4 832.155L1063.23 811.208L1042.07 832.155L1020.91 811.208L999.745 832.155L978.587 811.208L957.429 832.155L936.262 811.208L915.104 832.155L893.945 811.208L872.787 832.155L851.629 811.208L830.462 832.155L809.304 811.208L788.145 832.155L766.987 811.208L745.82 832.155L724.662 811.208L703.504 832.155L682.345 811.208L661.179 832.155L640.02 811.208L618.854 832.155L597.687 811.208L576.529 832.155L555.362 811.208L534.196 832.155L513.038 811.208L491.879 832.155L470.713 811.208L449.546 832.155L428.388 811.208L407.221 832.155L386.063 811.208L364.904 832.155L343.738 811.208L322.58 832.155L301.413 811.208L280.255 832.155L259.096 811.208L237.938 832.155L216.78 811.208L195.613 832.155L174.455 811.208L153.288 832.155L132.13 811.208L110.971 832.155L89.8049 811.208L68.6465 832.155L47.4881 811.208L26.3216 832.155L5.16321 811.208L-16.0033 832.155L-37.1617 811.208L-58.3201 832.155L-79.4866 811.208L-100.645 832.155L-121.803 811.208L-142.962 832.155L-164.128 811.208M-164.128 833.139L-142.962 854.078L-121.803 833.139L-100.645 854.078L-79.4866 833.139L-58.3201 854.078L-37.1617 833.139L-16.0033 854.078L5.16321 833.139L26.3216 854.078L47.4881 833.139L68.6465 854.078L89.8049 833.139L110.971 854.078L132.13 833.139L153.288 854.078L174.455 833.139L195.613 854.078L216.78 833.139L237.938 854.078L259.096 833.139L280.255 854.078L301.413 833.139L322.58 854.078L343.738 833.139L364.904 854.078L386.063 833.139L407.221 854.078L428.388 833.139L449.546 854.078L470.713 833.139L491.879 854.078L513.038 833.139L534.196 854.078L555.362 833.139L576.529 854.078L597.687 833.139L618.854 854.078L644.272 828.929L661.179 854.078L682.345 833.139L703.504 854.078L724.662 833.139L745.82 854.078L766.987 833.139L788.145 854.078L809.304 833.139L830.462 854.078L851.629 833.139L872.787 854.078L893.945 833.139L915.104 854.078L936.262 833.139L957.429 854.078L978.587 833.139L999.745 854.078L1020.91 833.139L1042.07 854.078L1063.23 833.139L1084.4 854.078L1105.55 833.139L1126.71 854.078L1147.88 833.139L1169.04 854.078L1190.2 833.139L1211.36 854.078L1232.52 833.139L1253.69 854.078L1274.84 833.139L1296 854.078L1317.17 833.139L1338.33 854.078L1359.49 833.139L1380.65 854.078L1401.81 833.139L1422.97 854.078L1444.13 833.139M1444.13 855.061L1422.97 876L1401.81 855.061L1380.65 876L1359.49 855.061L1338.33 876L1317.17 855.061L1296 876L1274.84 855.061L1253.69 876L1232.52 855.061L1211.36 876L1190.2 855.061L1169.04 876L1147.88 855.061L1126.71 876L1105.55 855.061L1084.4 876L1063.23 855.061L1042.07 876L1020.91 855.061L999.745 876L978.587 855.061L957.429 876L936.262 855.061L915.104 876L893.945 855.061L872.787 876L851.629 855.061L830.462 876L809.304 855.061L788.145 876L766.987 855.061L745.82 876L724.662 855.061L703.504 876L682.345 855.061L661.179 876L640.02 855.061L618.854 876L597.687 855.061L576.529 876L555.362 855.061L534.196 876L513.038 855.061L491.879 876L470.713 855.061L449.546 876L428.388 855.061L407.221 876L386.063 855.061L364.904 876L343.738 855.061L322.58 876L301.413 855.061L280.255 876L259.096 855.061L237.938 876L216.78 855.061L195.613 876L174.455 855.061L153.288 876L132.13 855.061L110.971 876L89.8049 855.061L68.6465 876L47.4881 855.061L26.3216 876L5.16321 855.061L-16.0033 876L-37.1617 855.061L-58.3201 876L-79.4866 855.061L-100.645 876L-121.803 855.061L-142.962 876L-164.128 855.061" stroke="#E4E4E7" stroke-width="2" stroke-miterlimit="10"/>
</svg>
