<svg width="512" height="512" viewBox="0 0 512 512" fill="none" xmlns="http://www.w3.org/2000/svg">
<g clip-path="url(#clip0_319_970)">
<path d="M512 0H0V512H512V0Z" fill="white"/>
<path d="M256.001 280.002C269.25 280.002 279.991 269.263 279.991 256.017C279.991 242.77 269.25 232.031 256.001 232.031C242.751 232.031 232.011 242.77 232.011 256.017C232.011 269.263 242.751 280.002 256.001 280.002Z" fill="#EB5454"/>
<path d="M369.997 274.014C360.062 274.014 351.996 265.95 351.996 256.017C351.996 202.994 309 160.042 256.001 160.042C203 160.042 160.005 203.028 160.005 256.017C160.005 309.006 203 351.992 256.001 351.992C292.626 351.992 324.474 331.502 340.641 301.322C361.55 314.889 389.833 312.501 408.18 294.158C418.738 283.602 424 269.792 424 255.982C424 163.226 348.776 88.0176 256.001 88.0176C163.224 88.0176 88 163.262 88 256.017C88 348.774 163.224 423.982 256.001 423.982C302.388 423.982 344.414 405.188 374.809 374.766L349.365 349.327C325.478 373.208 292.487 387.987 256.034 387.987C183.13 387.987 124.037 328.906 124.037 256.017C124.037 183.127 183.095 124.047 256.001 124.047C328.906 124.047 387.998 183.127 387.998 256.017C387.998 265.95 379.932 274.014 369.997 274.014ZM256.001 315.998C222.871 315.998 196.007 289.139 196.007 256.017C196.007 222.894 222.871 196.037 256.001 196.037C289.13 196.037 315.993 222.894 315.993 256.017C315.993 289.139 289.13 315.998 256.001 315.998Z" fill="#EB5454"/>
</g>
<defs>
<clipPath id="clip0_319_970">
<rect width="512" height="512" fill="white"/>
</clipPath>
</defs>
</svg>
