<svg width="512" height="512" viewBox="0 0 512 512" fill="none" xmlns="http://www.w3.org/2000/svg">
<g clip-path="url(#clip0_326_2197)">
<path d="M512 0H0V512H512V0Z" fill="#9E0101"/>
<g clip-path="url(#clip1_326_2197)">
<path d="M81.0069 187.762H347.409C349.368 187.756 351.309 188.14 353.119 188.891C354.929 189.642 356.571 190.746 357.951 192.138C360.74 194.942 362.311 198.734 362.323 202.691V393.102C362.328 395.059 361.944 396.997 361.194 398.803C360.443 400.609 359.341 402.248 357.951 403.624C357.722 403.882 357.461 404.112 357.176 404.307C354.469 406.733 350.949 408.051 347.316 408H80.9139C76.9639 408 73.1752 406.432 70.3792 403.639C67.5832 400.846 66.0083 397.056 66.0001 393.102V202.691C65.9942 200.73 66.3777 198.787 67.1282 196.975C67.8787 195.164 68.9813 193.52 70.3719 192.138C73.1711 189.344 76.9606 187.771 80.9139 187.762H81.0069ZM165.684 103H432.086C434.045 102.994 435.986 103.378 437.796 104.129C439.606 104.881 441.248 105.984 442.628 107.376C445.417 110.18 446.988 113.972 447 117.929V308.34C447.005 310.297 446.621 312.235 445.871 314.041C445.12 315.848 444.018 317.486 442.628 318.862C442.406 319.128 442.145 319.358 441.853 319.545C439.133 322.045 435.562 323.411 431.869 323.362H415.188V305.423H429.172V120.722H168.505V133.758H150.677V117.929C150.671 115.968 151.055 114.025 151.805 112.213C152.556 110.402 153.658 108.758 155.049 107.376C157.85 104.585 161.638 103.012 165.591 103H165.684ZM123.361 145.397H389.763C391.718 145.391 393.654 145.776 395.458 146.527C397.263 147.278 398.9 148.382 400.274 149.773C403.067 152.561 404.639 156.346 404.646 160.294V350.706C404.652 352.667 404.268 354.61 403.518 356.421C402.767 358.233 401.665 359.877 400.274 361.258C400.044 361.516 399.784 361.745 399.499 361.941C396.792 364.367 393.272 365.685 389.639 365.635H372.958V347.819H386.942V163.119H126.151V176.154H108.323V160.294C108.331 156.34 109.906 152.551 112.702 149.758C115.498 146.965 119.287 145.397 123.237 145.397H123.361ZM142.523 239.563C146.757 239.556 150.897 240.808 154.42 243.159C157.943 245.51 160.69 248.854 162.313 252.768C163.936 256.683 164.362 260.991 163.538 265.148C162.713 269.306 160.675 273.124 157.681 276.121C154.688 279.118 150.873 281.158 146.72 281.984C142.567 282.809 138.263 282.382 134.352 280.757C130.442 279.133 127.101 276.383 124.752 272.857C122.404 269.33 121.153 265.185 121.159 260.947C121.159 258.139 121.712 255.358 122.786 252.764C123.859 250.169 125.433 247.812 127.417 245.826C129.4 243.84 131.755 242.265 134.347 241.19C136.939 240.116 139.717 239.563 142.523 239.563ZM232.44 331.401L275.259 257.285L320.682 372.308H108.695V358.062L126.492 357.162L144.321 313.462L153.22 344.685H179.947L203.108 284.939L232.502 331.308L232.44 331.401ZM344.619 205.422H83.8284V390.185H344.619V205.422Z" fill="white"/>
</g>
</g>
<defs>
<clipPath id="clip0_326_2197">
<rect width="512" height="512" fill="white"/>
</clipPath>
<clipPath id="clip1_326_2197">
<rect width="381" height="305" fill="white" transform="translate(66 103)"/>
</clipPath>
</defs>
</svg>
