<svg width="512" height="512" viewBox="0 0 512 512" fill="none" xmlns="http://www.w3.org/2000/svg">
<g clip-path="url(#clip0_323_2063)">
<path d="M512 0H0V512H512V0Z" fill="url(#paint0_linear_323_2063)"/>
<path d="M115.006 133.485L229.618 261.649C232.874 265.311 236.87 268.24 241.342 270.243C245.814 272.245 250.661 273.275 255.561 273.265C260.454 273.237 265.289 272.189 269.755 270.189C274.222 268.189 278.223 265.281 281.503 261.649L394.179 135.421C394.929 134.328 396.017 133.511 397.277 133.098C392.364 131.069 387.104 130.017 381.789 130H129.332C124.143 130.016 119.008 131.069 114.231 133.098C114.44 133.308 114.712 133.444 115.006 133.485Z" fill="white"/>
<path d="M414.316 149.359C413.917 150.732 413.106 151.948 411.992 152.844L299.703 278.685C294.136 284.881 287.331 289.839 279.727 293.241C272.124 296.642 263.892 298.411 255.562 298.433C247.239 298.373 239.018 296.587 231.421 293.188C223.823 289.789 217.013 284.851 211.421 278.685L97.1961 150.521L96.4217 149.747C92.8299 155.704 90.954 162.538 91.0009 169.494V342.961C91.0211 348.022 92.0393 353.029 93.9971 357.696C95.955 362.363 98.814 366.598 102.411 370.158C106.007 373.719 110.271 376.535 114.957 378.446C119.643 380.357 124.66 381.325 129.721 381.294H381.403C386.464 381.325 391.481 380.357 396.168 378.446C400.854 376.535 405.117 373.719 408.714 370.158C412.31 366.598 415.169 362.363 417.127 357.696C419.085 353.029 420.103 348.022 420.124 342.961V169.494C420.038 162.382 418.031 155.425 414.316 149.359Z" fill="white"/>
</g>
<defs>
<linearGradient id="paint0_linear_323_2063" x1="-0.00418679" y1="-0.00556786" x2="362.034" y2="362.033" gradientUnits="userSpaceOnUse">
<stop stop-color="#8E2DE2"/>
<stop offset="1" stop-color="#4A00E0"/>
</linearGradient>
<clipPath id="clip0_323_2063">
<rect width="512" height="512" fill="white"/>
</clipPath>
</defs>
</svg>
