<svg width="512" height="512" viewBox="0 0 512 512" fill="none" xmlns="http://www.w3.org/2000/svg">
<g clip-path="url(#clip0_321_1302)">
<path d="M512 0H0V512H512V0Z" fill="white"/>
<path d="M319.417 191.902L350.71 160.607L352.797 147.431C295.773 95.5785 205.125 101.459 153.717 159.699C139.44 175.875 128.846 196.042 123.198 216.867L134.405 215.287L196.991 204.967L201.822 200.027C229.661 169.452 276.733 165.337 308.877 191.351L319.417 191.902Z" fill="#EA4335"/>
<path d="M395.289 215.949C388.097 189.46 373.329 165.647 352.796 147.434L308.876 191.354C318.029 198.833 325.365 208.293 330.329 219.02C335.293 229.747 337.757 241.462 337.533 253.28V261.076C359.121 261.076 376.622 278.576 376.622 300.163C376.622 321.75 359.121 338.814 337.533 338.814H259.246L251.561 347.159V394.044L259.246 401.4H337.533C393.685 401.838 439.559 357.111 439.997 300.961C440.128 284.203 436.115 267.674 428.315 252.842C420.515 238.01 409.169 225.336 395.289 215.949Z" fill="#4285F4"/>
<path d="M181.07 401.4H259.247V338.814H181.07C175.535 338.814 170.067 337.615 165.039 335.301L153.949 338.705L122.437 369.998L119.691 380.648C137.364 393.991 158.924 401.495 181.07 401.4Z" fill="#34A853"/>
<path d="M181.07 198.377C124.917 198.712 79.669 244.504 80.0018 300.655C80.0946 316.128 83.7186 331.377 90.5962 345.239C97.4738 359.1 107.424 371.209 119.69 380.644L165.038 335.296C145.363 326.408 136.621 303.252 145.509 283.58C154.398 263.908 177.553 255.164 197.223 264.05C205.892 267.968 212.836 274.911 216.753 283.58L262.1 238.233C252.583 225.789 240.315 215.716 226.258 208.802C212.201 201.888 196.735 198.32 181.07 198.377Z" fill="#FBBC05"/>
</g>
<defs>
<clipPath id="clip0_321_1302">
<rect width="512" height="512" fill="white"/>
</clipPath>
</defs>
</svg>
