<svg width="512" height="512" viewBox="0 0 512 512" fill="none" xmlns="http://www.w3.org/2000/svg">
<g clip-path="url(#clip0_321_1424)">
<path d="M512 0H0V512H512V0Z" fill="#971547"/>
<path d="M284.619 248.079C234.718 239.287 201.451 265.764 201.451 308.721V406.994L123 456.784V308.721C123 222.807 183.043 163.02 284.619 175.128V248.079Z" fill="white"/>
<path d="M258.146 99.6144C258.146 108.438 255.505 117.064 250.557 124.401C245.609 131.738 238.576 137.457 230.347 140.833C222.118 144.21 213.064 145.093 204.329 143.372C195.593 141.65 187.569 137.401 181.272 131.162C174.974 124.922 170.685 116.973 168.947 108.318C167.21 99.6644 168.101 90.6944 171.51 82.5414C174.918 74.3894 180.69 67.4214 188.096 62.5194C195.501 57.6168 204.207 55 213.114 55C225.057 55 236.511 59.7008 244.956 68.0674C253.402 76.4344 258.146 87.7824 258.146 99.6144Z" fill="white"/>
<path d="M303.383 242.15C303.5 244.867 304.495 247.476 306.22 249.592C307.945 251.708 310.31 253.22 312.967 253.906C323.84 255.619 334.821 256.577 345.828 256.77C356.853 256.579 367.851 255.621 378.74 253.906C381.397 253.22 383.762 251.708 385.488 249.592C387.213 247.476 388.207 244.867 388.325 242.15V184.773C388.213 182.059 387.219 179.455 385.492 177.345C383.765 175.236 381.397 173.736 378.74 173.067C367.851 171.352 356.853 170.395 345.828 170.203C334.821 170.397 323.84 171.354 312.967 173.067C310.31 173.736 307.942 175.236 306.215 177.345C304.488 179.455 303.495 182.059 303.383 184.773V242.15Z" fill="#FFCB03"/>
</g>
<defs>
<clipPath id="clip0_321_1424">
<rect width="512" height="512" fill="white"/>
</clipPath>
</defs>
</svg>
