<svg width="512" height="512" viewBox="0 0 512 512" fill="none" xmlns="http://www.w3.org/2000/svg">
<g clip-path="url(#clip0_323_1700)">
<path d="M512 0H0V512H512V0Z" fill="#BE0027"/>
<path d="M256.505 419C349.642 419 425 346.019 425 256.005C425 188.285 382.322 130.179 321.493 105.591C291.704 112.102 269.315 138.602 269.315 170.247C269.315 170.94 269.51 171.74 269.51 172.423C316.533 182.448 340.298 214.17 340.298 256.005C340.298 303.013 301.809 341.138 254.826 341.138C207.832 341.138 163.934 301.91 163.934 243.765C163.934 172.765 224.733 106.197 311.417 104.098C313.057 104.02 315.498 104.098 318.056 104.215C299.027 96.9727 278.278 93 256.505 93C163.436 93 88 165.981 88 256.005C88 346.019 163.436 419 256.505 419Z" fill="white"/>
</g>
<defs>
<clipPath id="clip0_323_1700">
<rect width="512" height="512" fill="white"/>
</clipPath>
</defs>
</svg>
